{
.appVersion = "1131";
DisplayStrings = (
"®",
"À"
);
date = "2020-04-14 12:45:11 +0000";
familyName = Alsace;
featurePrefixes = (
{
automatic = 1;
code = "languagesystem DFLT dflt;\012";
name = Languagesystems;
}
);
features = (
{
automatic = 1;
code = "feature ordn;\012feature salt;\012feature ss01;\012feature ss02;\012";
name = aalt;
},
{
automatic = 1;
code = "sub [zero one two three four five six seven eight nine] [O]' by ordmasculine;\012";
name = ordn;
},
{
automatic = 1;
code = "sub chequeredFlag by chequeredFlag.ss01;\012";
name = salt;
},
{
automatic = 1;
code = "sub chequeredFlag by chequeredFlag.ss01;\012";
name = ss01;
},
{
automatic = 1;
code = "sub chequeredFlag by chequeredFlag.ss02;\012";
name = ss02;
}
);
fontMaster = (
{
alignmentZones = (
"{760, 10}",
"{-10, 10}"
);
ascender = 900;
capHeight = 760;
descender = -200;
guideLines = (
{
locked = 1;
position = "{620, 575}";
},
{
locked = 1;
position = "{620, 500}";
},
{
locked = 1;
position = "{609, 195}";
},
{
locked = 1;
position = "{609, 270}";
},
{
position = "{594, 917}";
},
{
locked = 1;
position = "{836, 629}";
},
{
locked = 1;
position = "{798, 131}";
},
{
locked = 1;
position = "{387, 680}";
}
);
id = "C60226DB-E4D3-4E89-B452-CA8BAB7E3EC0";
visible = 1;
xHeight = 500;
}
);
glyphs = (
{
color = 3;
glyphname = A;
lastChange = "2020-07-16 14:05:49 +0000";
layers = (
{
anchors = (
{
name = bottom;
position = "{398, 0}";
},
{
name = ogonek;
position = "{716, 10}";
},
{
name = top;
position = "{398, 760}";
}
);
layerId = "C60226DB-E4D3-4E89-B452-CA8BAB7E3EC0";
paths = (
{
closed = 1;
nodes = (
"173 760 LINE",
"90 760 LINE",
"90 0 LINE",
"173 0 LINE"
);
},
{
closed = 1;
nodes = (
"706 270 LINE",
"90 270 LINE",
"90 195 LINE",
"706 195 LINE"
);
},
{
closed = 1;
nodes = (
"623 0 LINE",
"706 0 LINE",
"706 760 LINE",
"623 760 LINE"
);
},
{
closed = 1;
nodes = (
"706 760 LINE",
"90 760 LINE",
"90 685 LINE",
"706 685 LINE"
);
},
{
closed = 1;
nodes = (
"390 0 LINE",
"473 0 LINE",
"473 667 LINE",
"390 667 LINE"
);
},
{
closed = 1;
nodes = (
"240 0 LINE",
"323 0 LINE",
"323 483 LINE",
"240 483 LINE"
);
},
{
closed = 1;
nodes = (
"461 760 LINE",
"93 310 LINE",
"151 262 LINE",
"521 714 LINE"
);
}
);
width = 796;
},
{
associatedMasterId = "C60226DB-E4D3-4E89-B452-CA8BAB7E3EC0";
background = {
paths = (
{
closed = 1;
nodes = (
"161 314 LINE",
"487 745 LINE",
"427 790 LINE",
"102 359 LINE"
);
},
{
closed = 1;
nodes = (
"161 314 LINE",
"487 745 LINE",
"427 790 LINE",
"102 359 LINE"
);
}
);
};
layerId = "FE62E11B-9866-4AE6-BF82-FE2210466D0F";
name = "Apr 14 20, 23:06";
paths = (
{
closed = 1;
nodes = (
"555 0 LINE",
"640 0 LINE",
"640 760 LINE",
"555 760 LINE"
);
},
{
closed = 1;
nodes = (
"100 685 LINE",
"640 685 LINE",
"640 760 LINE",
"100 760 LINE"
);
},
{
closed = 1;
nodes = (
"185 760 LINE",
"100 760 LINE",
"100 0 LINE",
"185 0 LINE"
);
},
{
closed = 1;
nodes = (
"100 178 LINE",
"640 178 LINE",
"640 253 LINE",
"100 253 LINE"
);
},
{
closed = 1;
nodes = (
"161 314 LINE",
"475 729 LINE",
"381 729 LINE",
"161 437 LINE"
);
},
{
closed = 1;
nodes = (
"435 700 LINE",
"350 620 LINE",
"350 0 LINE",
"435 0 LINE"
);
},
{
closed = 1;
nodes = (
"310 600 LINE",
"225 490 LINE",
"225 0 LINE",
"310 0 LINE"
);
}
);
width = 740;
},
{
associatedMasterId = "C60226DB-E4D3-4E89-B452-CA8BAB7E3EC0";
background = {
paths = (
{
closed = 1;
nodes = (
"161 314 LINE",
"487 745 LINE",
"427 790 LINE",
"102 359 LINE"
);
},
{
closed = 1;
nodes = (
"161 314 LINE",
"487 745 LINE",
"427 790 LINE",
"102 359 LINE"
);
}
);
};
layerId = "070AB05A-1C61-4EAA-A2E3-F5C4945C53AE";
name = "Apr 15 20, 10:44";
paths = (
{
closed = 1;
nodes = (
"555 0 LINE",
"640 0 LINE",
"640 760 LINE",
"555 760 LINE"
);
},
{
closed = 1;
nodes = (
"100 685 LINE",
"640 685 LINE",
"640 760 LINE",
"100 760 LINE"
);
},
{
closed = 1;
nodes = (
"185 760 LINE",
"100 760 LINE",
"100 0 LINE",
"185 0 LINE"
);
},
{
closed = 1;
nodes = (
"100 178 LINE",
"640 178 LINE",
"640 253 LINE",
"100 253 LINE"
);
},
{
closed = 1;
nodes = (
"161 314 LINE",
"475 729 LINE",
"381 729 LINE",
"161 437 LINE"
);
},
{
closed = 1;
nodes = (
"435 700 LINE",
"350 620 LINE",
"350 0 LINE",
"435 0 LINE"
);
},
{
closed = 1;
nodes = (
"310 600 LINE",
"225 490 LINE",
"225 0 LINE",
"310 0 LINE"
);
}
);
width = 740;
},
{
associatedMasterId = "C60226DB-E4D3-4E89-B452-CA8BAB7E3EC0";
layerId = "00E88D50-FFDF-4F26-9622-DC622795DA9A";
name = "Apr 15 20, 11:24";
paths = (
{
closed = 1;
nodes = (
"557 0 LINE",
"640 0 LINE",
"640 760 LINE",
"557 760 LINE"
);
},
{
closed = 1;
nodes = (
"100 687 LINE",
"640 687 LINE",
"640 760 LINE",
"100 760 LINE"
);
},
{
closed = 1;
nodes = (
"183 760 LINE",
"100 760 LINE",
"100 0 LINE",
"183 0 LINE"
);
},
{
closed = 1;
nodes = (
"100 179 LINE",
"640 179 LINE",
"640 252 LINE",
"100 252 LINE"
);
},
{
closed = 1;
nodes = (
"160 314 LINE",
"474 729 LINE",
"382 729 LINE",
"114 373 LINE"
);
},
{
closed = 1;
nodes = (
"433 700 LINE",
"350 620 LINE",
"350 0 LINE",
"433 0 LINE"
);
},
{
closed = 1;
nodes = (
"308 600 LINE",
"225 490 LINE",
"225 0 LINE",
"308 0 LINE"
);
}
);
width = 740;
},
{
associatedMasterId = "C60226DB-E4D3-4E89-B452-CA8BAB7E3EC0";
layerId = "E7A79090-1E76-43E9-A621-D44E827EE37C";
name = "Apr 15 20, 15:45";
paths = (
{
closed = 1;
nodes = (
"567 0 LINE",
"650 0 LINE",
"650 760 LINE",
"567 760 LINE"
);
},
{
closed = 1;
nodes = (
"100 687 LINE",
"650 687 LINE",
"650 760 LINE",
"100 760 LINE"
);
},
{
closed = 1;
nodes = (
"183 760 LINE",
"100 760 LINE",
"100 0 LINE",
"183 0 LINE"
);
},
{
closed = 1;
nodes = (
"100 179 LINE",
"650 179 LINE",
"650 252 LINE",
"100 252 LINE"
);
},
{
closed = 1;
nodes = (
"160 314 LINE",
"474 729 LINE",
"382 729 LINE",
"114 373 LINE"
);
},
{
closed = 1;
nodes = (
"453 720 LINE",
"370 620 LINE",
"370 0 LINE",
"453 0 LINE"
);
},
{
closed = 1;
nodes = (
"318 600 LINE",
"235 490 LINE",
"235 0 LINE",
"318 0 LINE"
);
}
);
width = 750;
},
{
associatedMasterId = "C60226DB-E4D3-4E89-B452-CA8BAB7E3EC0";
layerId = "812E712F-3672-46C0-893D-9307743BA34C";
name = "Apr 16 20, 17:24";
paths = (
{
closed = 1;
nodes = (
"178 760 LINE",
"95 760 LINE",
"95 0 LINE",
"178 0 LINE"
);
},
{
closed = 1;
nodes = (
"654 259 LINE",
"95 259 LINE",
"95 186 LINE",
"654 186 LINE"
);
},
{
closed = 1;
nodes = (
"571 0 LINE",
"654 0 LINE",
"654 760 LINE",
"571 760 LINE"
);
},
{
closed = 1;
nodes = (
"654 760 LINE",
"95 760 LINE",
"95 687 LINE",
"654 687 LINE"
);
},
{
closed = 1;
nodes = (
"333 0 LINE",
"416 0 LINE",
"416 620 LINE",
"333 620 LINE"
);
},
{
closed = 1;
nodes = (
"214 0 LINE",
"297 0 LINE",
"297 473 LINE",
"214 473 LINE"
);
},
{
closed = 1;
nodes = (
"452 760 LINE",
"95 344 LINE",
"150 296 LINE",
"508 713 LINE"
);
}
);
width = 749;
}
);
unicode = "0041,0061";
},
{
color = 3;
glyphname = B;
lastChange = "2020-07-16 13:25:50 +0000";
layers = (
{
anchors = (
{
name = bottom;
position = "{387, 0}";
},
{
name = top;
position = "{387, 760}";
}
);
layerId = "C60226DB-E4D3-4E89-B452-CA8BAB7E3EC0";
paths = (
{
closed = 1;
nodes = (
"173 760 LINE",
"90 760 LINE",
"90 0 LINE",
"173 0 LINE"
);
},
{
closed = 1;
nodes = (
"250 414 LINE",
"698 414 LINE",
"698 489 LINE",
"250 489 LINE"
);
},
{
closed = 1;
nodes = (
"615 760 LINE",
"532 760 LINE",
"532 414 LINE",
"615 414 LINE"
);
},
{
closed = 1;
nodes = (
"544 760 LINE",
"90 760 LINE",
"90 685 LINE",
"544 685 LINE"
);
},
{
closed = 1;
nodes = (
"90 75 LINE",
"90 0 LINE",
"698 0 LINE",
"698 75 LINE"
);
},
{
closed = 1;
nodes = (
"698 489 LINE",
"615 489 LINE",
"615 0 LINE",
"698 0 LINE"
);
},
{
closed = 1;
nodes = (
"384 480 LINE",
"306 449 LINE",
"516 10 LINE",
"592 45 LINE"
);
},
{
closed = 1;
nodes = (
"464 760 LINE",
"96 310 LINE",
"154 262 LINE",
"524 714 LINE"
);
}
);
width = 773;
},
{
associatedMasterId = "C60226DB-E4D3-4E89-B452-CA8BAB7E3EC0";
layerId = "04890A7A-A918-48F0-8FAF-A89A40F737CF";
name = "Apr 14 20, 23:06";
width = 740;
},
{
associatedMasterId = "C60226DB-E4D3-4E89-B452-CA8BAB7E3EC0";
layerId = "C7764B8A-D98E-42DE-9E14-69257B87F944";
name = "Apr 15 20, 15:45";
width = 740;
},
{
associatedMasterId = "C60226DB-E4D3-4E89-B452-CA8BAB7E3EC0";
layerId = "9594DAC8-B5CA-420D-A3EA-FC55A0645B64";
name = "Apr 16 20, 17:24";
paths = (
{
closed = 1;
nodes = (
"95 760 LINE",
"95 0 LINE",
"178 0 LINE",
"178 760 LINE"
);
},
{
closed = 1;
nodes = (
"95 559 LINE",
"95 486 LINE",
"665 486 LINE",
"665 559 LINE"
);
},
{
closed = 1;
nodes = (
"665 0 LINE",
"665 559 LINE",
"582 559 LINE",
"582 0 LINE"
);
},
{
closed = 1;
nodes = (
"95 73 LINE",
"95 0 LINE",
"665 0 LINE",
"665 73 LINE"
);
},
{
closed = 1;
nodes = (
"493 545 LINE",
"214 62 LINE",
"286 19 LINE",
"565 503 LINE"
);
}
);
width = 750;
},
{
associatedMasterId = "C60226DB-E4D3-4E89-B452-CA8BAB7E3EC0";
layerId = "6EBD1761-0736-4F4B-BC58-09C5E6B15AC2";
name = "Apr 23 20, 15:11";
paths = (
{
closed = 1;
nodes = (
"95 760 LINE",
"95 0 LINE",
"178 0 LINE",
"178 760 LINE"
);
},
{
closed = 1;
nodes = (
"95 574 LINE",
"95 501 LINE",
"685 501 LINE",
"685 574 LINE"
);
},
{
closed = 1;
nodes = (
"685 0 LINE",
"685 574 LINE",
"602 574 LINE",
"602 0 LINE"
);
},
{
closed = 1;
nodes = (
"95 73 LINE",
"95 0 LINE",
"685 0 LINE",
"685 73 LINE"
);
},
{
closed = 1;
nodes = (
"512 545 LINE",
"244 44 LINE",
"313 10 LINE",
"580 510 LINE"
);
},
{
closed = 1;
nodes = (
"493 501 LINE",
"576 501 LINE",
"576 760 LINE",
"493 760 LINE"
);
},
{
closed = 1;
nodes = (
"95 687 LINE",
"576 687 LINE",
"576 760 LINE",
"95 760 LINE"
);
}
);
width = 775;
}
);
unicode = "0042,0062";
},
{
color = 3;
glyphname = C;
lastChange = "2020-07-16 13:25:50 +0000";
layers = (
{
anchors = (
{
name = bottom;
position = "{365, 0}";
},
{
name = top;
position = "{365, 760}";
}
);
layerId = "C60226DB-E4D3-4E89-B452-CA8BAB7E3EC0";
paths = (
{
closed = 1;
nodes = (
"90 685 LINE",
"665 685 LINE",
"665 760 LINE",
"90 760 LINE"
);
},
{
closed = 1;
nodes = (
"173 760 LINE",
"90 760 LINE",
"90 0 LINE",
"173 0 LINE"
);
},
{
closed = 1;
nodes = (
"90 0 LINE",
"670 0 LINE",
"670 75 LINE",
"90 75 LINE"
);
},
{
closed = 1;
nodes = (
"380 760 LINE",
"297 760 LINE",
"297 170 LINE",
"380 170 LINE"
);
},
{
closed = 1;
nodes = (
"141 497 LINE",
"112 397 LINE",
"405 9 LINE",
"471 60 LINE"
);
}
);
width = 730;
},
{
associatedMasterId = "C60226DB-E4D3-4E89-B452-CA8BAB7E3EC0";
layerId = "877B6364-B5D5-41FD-8426-578C37283D7D";
name = "Apr 14 20, 23:06";
paths = (
{
closed = 1;
nodes = (
"100 685 LINE",
"640 685 LINE",
"640 760 LINE",
"100 760 LINE"
);
},
{
closed = 1;
nodes = (
"185 760 LINE",
"100 760 LINE",
"100 0 LINE",
"185 0 LINE"
);
},
{
closed = 1;
nodes = (
"100 0 LINE",
"640 0 LINE",
"640 75 LINE",
"100 75 LINE"
);
},
{
closed = 1;
nodes = (
"165 467 LINE",
"165 327 LINE",
"405 9 LINE",
"473 60 LINE"
);
},
{
closed = 1;
nodes = (
"310 260 LINE",
"225 260 LINE",
"225 0 LINE",
"310 0 LINE"
);
}
);
width = 740;
},
{
associatedMasterId = "C60226DB-E4D3-4E89-B452-CA8BAB7E3EC0";
layerId = "E9D88C6A-FF37-44CC-8796-DEB0325938A6";
name = "Apr 15 20, 10:44";
paths = (
{
closed = 1;
nodes = (
"100 685 LINE",
"640 685 LINE",
"640 760 LINE",
"100 760 LINE"
);
},
{
closed = 1;
nodes = (
"185 760 LINE",
"100 760 LINE",
"100 0 LINE",
"185 0 LINE"
);
},
{
closed = 1;
nodes = (
"100 0 LINE",
"640 0 LINE",
"640 75 LINE",
"100 75 LINE"
);
},
{
closed = 1;
nodes = (
"165 467 LINE",
"165 327 LINE",
"405 9 LINE",
"473 60 LINE"
);
},
{
closed = 1;
nodes = (
"310 260 LINE",
"225 260 LINE",
"225 0 LINE",
"310 0 LINE"
);
}
);
width = 740;
},
{
associatedMasterId = "C60226DB-E4D3-4E89-B452-CA8BAB7E3EC0";
layerId = "26849582-2854-46FE-8950-1A969D173AE8";
name = "Apr 15 20, 11:24";
paths = (
{
closed = 1;
nodes = (
"100 687 LINE",
"640 687 LINE",
"640 760 LINE",
"100 760 LINE"
);
},
{
closed = 1;
nodes = (
"183 760 LINE",
"100 760 LINE",
"100 0 LINE",
"183 0 LINE"
);
},
{
closed = 1;
nodes = (
"100 0 LINE",
"640 0 LINE",
"640 73 LINE",
"100 73 LINE"
);
},
{
closed = 1;
nodes = (
"163 467 LINE",
"165 327 LINE",
"405 9 LINE",
"471 60 LINE"
);
},
{
closed = 1;
nodes = (
"309 260 LINE",
"226 260 LINE",
"226 0 LINE",
"309 0 LINE"
);
}
);
width = 740;
},
{
associatedMasterId = "C60226DB-E4D3-4E89-B452-CA8BAB7E3EC0";
layerId = "E9FF5D54-1714-403B-B26C-C958A012937E";
name = "Apr 15 20, 15:45";
paths = (
{
closed = 1;
nodes = (
"100 687 LINE",
"640 687 LINE",
"640 760 LINE",
"100 760 LINE"
);
},
{
closed = 1;
nodes = (
"183 760 LINE",
"100 760 LINE",
"100 0 LINE",
"183 0 LINE"
);
},
{
closed = 1;
nodes = (
"100 0 LINE",
"640 0 LINE",
"640 73 LINE",
"100 73 LINE"
);
},
{
closed = 1;
nodes = (
"173 467 LINE",
"133 382 LINE",
"415 9 LINE",
"481 60 LINE"
);
},
{
closed = 1;
nodes = (
"309 280 LINE",
"226 280 LINE",
"226 0 LINE",
"309 0 LINE"
);
}
);
width = 710;
},
{
associatedMasterId = "C60226DB-E4D3-4E89-B452-CA8BAB7E3EC0";
layerId = "E54E432D-048E-471E-BEE2-0ED83225BEFC";
name = "Apr 16 20, 17:24";
paths = (
{
closed = 1;
nodes = (
"95 687 LINE",
"615 687 LINE",
"615 760 LINE",
"95 760 LINE"
);
},
{
closed = 1;
nodes = (
"178 760 LINE",
"95 760 LINE",
"95 0 LINE",
"178 0 LINE"
);
},
{
closed = 1;
nodes = (
"95 0 LINE",
"615 0 LINE",
"615 73 LINE",
"95 73 LINE"
);
},
{
closed = 1;
nodes = (
"146 497 LINE",
"117 397 LINE",
"410 9 LINE",
"476 60 LINE"
);
}
);
width = 687;
}
);
unicode = "0043,0063";
},
{
color = 3;
glyphname = Ccedilla;
lastChange = "2020-07-16 13:25:50 +0000";
layers = (
{
anchors = (
{
name = bottom;
position = "{365, 0}";
},
{
name = top;
position = "{365, 760}";
}
);
layerId = "C60226DB-E4D3-4E89-B452-CA8BAB7E3EC0";
paths = (
{
closed = 1;
nodes = (
"426 75 LINE",
"333 75 LINE",
"333 -163 LINE",
"426 -163 LINE"
);
},
{
closed = 1;
nodes = (
"90 685 LINE",
"665 685 LINE",
"665 760 LINE",
"90 760 LINE"
);
},
{
closed = 1;
nodes = (
"173 760 LINE",
"90 760 LINE",
"90 0 LINE",
"173 0 LINE"
);
},
{
closed = 1;
nodes = (
"90 0 LINE",
"670 0 LINE",
"670 75 LINE",
"90 75 LINE"
);
},
{
closed = 1;
nodes = (
"380 760 LINE",
"297 760 LINE",
"297 170 LINE",
"380 170 LINE"
);
},
{
closed = 1;
nodes = (
"141 497 LINE",
"112 397 LINE",
"405 9 LINE",
"471 60 LINE"
);
}
);
width = 730;
}
);
unicode = "00C7,00E7";
},
{
color = 3;
glyphname = D;
lastChange = "2020-07-22 12:30:19 +0000";
layers = (
{
anchors = (
{
name = bottom;
position = "{390, 0}";
},
{
name = center;
position = "{390, 380}";
},
{
name = top;
position = "{390, 760}";
}
);
layerId = "C60226DB-E4D3-4E89-B452-CA8BAB7E3EC0";
paths = (
{
closed = 1;
nodes = (
"720 0 LINE",
"720 310 LINE",
"637 310 LINE",
"637 0 LINE"
);
},
{
closed = 1;
nodes = (
"720 0 LINE",
"720 75 LINE",
"90 75 LINE",
"90 0 LINE"
);
},
{
closed = 1;
nodes = (
"90 760 LINE",
"90 0 LINE",
"173 0 LINE",
"173 760 LINE"
);
},
{
closed = 1;
nodes = (
"352 685 LINE",
"352 760 LINE",
"90 760 LINE",
"90 685 LINE"
);
},
{
closed = 1;
nodes = (
"297 724 LINE",
"297 0 LINE",
"380 0 LINE",
"380 724 LINE"
);
},
{
closed = 1;
nodes = (
"654 257 LINE",
"720 310 LINE",
"352 760 LINE",
"287 708 LINE"
);
},
{
closed = 1;
nodes = (
"720 195 LINE",
"720 270 LINE",
"90 270 LINE",
"90 195 LINE"
);
}
);
width = 795;
},
{
associatedMasterId = "C60226DB-E4D3-4E89-B452-CA8BAB7E3EC0";
layerId = "5C272C60-AF66-45C0-B9DE-E8FF6A7A3431";
name = "Apr 14 20, 23:06";
paths = (
{
closed = 1;
nodes = (
"555 0 LINE",
"640 0 LINE",
"640 760 LINE",
"555 760 LINE"
);
},
{
closed = 1;
nodes = (
"100 485 LINE",
"640 485 LINE",
"640 560 LINE",
"100 560 LINE"
);
},
{
closed = 1;
nodes = (
"185 560 LINE",
"100 560 LINE",
"100 0 LINE",
"185 0 LINE"
);
},
{
closed = 1;
nodes = (
"100 0 LINE",
"640 0 LINE",
"640 75 LINE",
"100 75 LINE"
);
},
{
closed = 1;
nodes = (
"360 215 LINE",
"640 215 LINE",
"640 290 LINE",
"360 290 LINE"
);
},
{
closed = 1;
nodes = (
"458 19 LINE",
"532 62 LINE",
"253 545 LINE",
"179 503 LINE"
);
}
);
width = 740;
},
{
associatedMasterId = "C60226DB-E4D3-4E89-B452-CA8BAB7E3EC0";
layerId = "4A7868BC-F1C3-468D-B8F7-0B34E6927617";
name = "Apr 15 20, 10:44";
paths = (
{
closed = 1;
nodes = (
"555 0 LINE",
"640 0 LINE",
"640 760 LINE",
"555 760 LINE"
);
},
{
closed = 1;
nodes = (
"100 485 LINE",
"640 485 LINE",
"640 560 LINE",
"100 560 LINE"
);
},
{
closed = 1;
nodes = (
"185 560 LINE",
"100 560 LINE",
"100 0 LINE",
"185 0 LINE"
);
},
{
closed = 1;
nodes = (
"100 0 LINE",
"640 0 LINE",
"640 75 LINE",
"100 75 LINE"
);
},
{
closed = 1;
nodes = (
"360 215 LINE",
"640 215 LINE",
"640 290 LINE",
"360 290 LINE"
);
},
{
closed = 1;
nodes = (
"458 19 LINE",
"532 62 LINE",
"253 545 LINE",
"179 503 LINE"
);
}
);
width = 740;
},
{
associatedMasterId = "C60226DB-E4D3-4E89-B452-CA8BAB7E3EC0";
layerId = "44D7F215-9D1B-400B-A327-3320720D3A6A";
name = "Apr 15 20, 11:24";
paths = (
{
closed = 1;
nodes = (
"557 0 LINE",
"640 0 LINE",
"640 760 LINE",
"557 760 LINE"
);
},
{
closed = 1;
nodes = (
"100 486 LINE",
"640 486 LINE",
"640 559 LINE",
"100 559 LINE"
);
},
{
closed = 1;
nodes = (
"183 559 LINE",
"100 559 LINE",
"100 0 LINE",
"183 0 LINE"
);
},
{
closed = 1;
nodes = (
"100 0 LINE",
"640 0 LINE",
"640 73 LINE",
"100 73 LINE"
);
},
{
closed = 1;
nodes = (
"360 216 LINE",
"640 216 LINE",
"640 289 LINE",
"360 289 LINE"
);
},
{
closed = 1;
nodes = (
"459 19 LINE",
"531 62 LINE",
"252 545 LINE",
"180 503 LINE"
);
}
);
width = 740;
},
{
associatedMasterId = "C60226DB-E4D3-4E89-B452-CA8BAB7E3EC0";
layerId = "ABE4245C-1D63-4D9B-B7BE-32CDAFE45822";
name = "Apr 15 20, 15:45";
paths = (
{
closed = 1;
nodes = (
"557 0 LINE",
"640 0 LINE",
"640 760 LINE",
"557 760 LINE"
);
},
{
closed = 1;
nodes = (
"80 486 LINE",
"640 486 LINE",
"640 559 LINE",
"80 559 LINE"
);
},
{
closed = 1;
nodes = (
"163 559 LINE",
"80 559 LINE",
"80 0 LINE",
"163 0 LINE"
);
},
{
closed = 1;
nodes = (
"80 0 LINE",
"640 0 LINE",
"640 73 LINE",
"80 73 LINE"
);
},
{
closed = 1;
nodes = (
"360 216 LINE",
"640 216 LINE",
"640 289 LINE",
"360 289 LINE"
);
},
{
closed = 1;
nodes = (
"459 19 LINE",
"531 62 LINE",
"252 545 LINE",
"180 503 LINE"
);
}
);
width = 740;
},
{
associatedMasterId = "C60226DB-E4D3-4E89-B452-CA8BAB7E3EC0";
background = {
paths = (
{
closed = 1;
nodes = (
"203 459 LINE",
"120 459 LINE",
"120 0 LINE",
"203 0 LINE"
);
},
{
closed = 1;
nodes = (
"680 73 LINE",
"120 73 LINE",
"120 0 LINE",
"680 0 LINE"
);
},
{
closed = 1;
nodes = (
"597 0 LINE",
"680 0 LINE",
"680 760 LINE",
"597 760 LINE"
);
},
{
closed = 1;
nodes = (
"680 459 LINE",
"120 459 LINE",
"120 386 LINE",
"680 386 LINE"
);
},
{
closed = 1;
nodes = (
"476 49 LINE",
"578 49 LINE",
"317 421 LINE",
"216 421 LINE"
);
},
{
closed = 1;
nodes = (
"680 259 LINE",
"400 259 LINE",
"400 186 LINE",
"680 186 LINE"
);
}
);
};
layerId = "C56B4C7D-1F61-46FF-91D8-3490EB79DD36";
name = "Apr 16 20, 17:24";
paths = (
{
closed = 1;
nodes = (
"572 0 LINE",
"655 0 LINE",
"655 760 LINE",
"572 760 LINE"
);
},
{
closed = 1;
nodes = (
"85 486 LINE",
"655 486 LINE",
"655 559 LINE",
"85 559 LINE"
);
},
{
closed = 1;
nodes = (
"168 559 LINE",
"85 559 LINE",
"85 0 LINE",
"168 0 LINE"
);
},
{
closed = 1;
nodes = (
"85 0 LINE",
"655 0 LINE",
"655 73 LINE",
"85 73 LINE"
);
},
{
closed = 1;
nodes = (
"365 216 LINE",
"655 216 LINE",
"655 289 LINE",
"365 289 LINE"
);
},
{
closed = 1;
nodes = (
"464 19 LINE",
"536 62 LINE",
"257 545 LINE",
"185 503 LINE"
);
}
);
width = 750;
},
{
associatedMasterId = "C60226DB-E4D3-4E89-B452-CA8BAB7E3EC0";
layerId = "A7B43AEF-CB1F-4A11-A81D-1C2F8D489F1F";
name = "Apr 23 20, 23:15";
paths = (
{
closed = 1;
nodes = (
"95 687 LINE",
"531 687 LINE",
"531 760 LINE",
"95 760 LINE"
);
},
{
closed = 1;
nodes = (
"178 760 LINE",
"95 760 LINE",
"95 0 LINE",
"178 0 LINE"
);
},
{
closed = 1;
nodes = (
"95 0 LINE",
"745 0 LINE",
"745 73 LINE",
"95 73 LINE"
);
},
{
closed = 1;
nodes = (
"95 222 LINE",
"645 222 LINE",
"645 295 LINE",
"95 295 LINE"
);
},
{
closed = 1;
nodes = (
"666 46 LINE",
"745 73 LINE",
"531 760 LINE",
"452 730 LINE"
);
},
{
closed = 1;
nodes = (
"302 0 LINE",
"385 0 LINE",
"385 760 LINE",
"302 760 LINE"
);
}
);
width = 785;
},
{
associatedMasterId = "C60226DB-E4D3-4E89-B452-CA8BAB7E3EC0";
layerId = "433D687B-135B-4552-8F02-44B3740442C4";
name = "Apr 23 20, 23:48";
paths = (
{
closed = 1;
nodes = (
"95 687 LINE",
"434 687 LINE",
"434 760 LINE",
"95 760 LINE"
);
},
{
closed = 1;
nodes = (
"178 760 LINE",
"95 760 LINE",
"95 0 LINE",
"178 0 LINE"
);
},
{
closed = 1;
nodes = (
"95 0 LINE",
"715 0 LINE",
"715 73 LINE",
"95 73 LINE"
);
},
{
closed = 1;
nodes = (
"95 186 LINE",
"715 186 LINE",
"715 259 LINE",
"95 259 LINE"
);
},
{
closed = 1;
nodes = (
"302 0 LINE",
"385 0 LINE",
"385 760 LINE",
"302 760 LINE"
);
},
{
closed = 1;
nodes = (
"673 0 LINE",
"756 0 LINE",
"756 333 LINE",
"673 333 LINE"
);
},
{
closed = 1;
nodes = (
"692 280 LINE",
"756 333 LINE",
"434 760 LINE",
"368 709 LINE"
);
}
);
width = 816;
}
);
unicode = "0044,0064";
},
{
color = 3;
glyphname = E;
lastChange = "2020-07-16 13:25:50 +0000";
layers = (
{
anchors = (
{
name = bottom;
position = "{365, 0}";
},
{
name = ogonek;
position = "{657, 10}";
},
{
name = top;
position = "{375, 760}";
},
{
name = topleft;
position = "{20, 760}";
}
);
layerId = "C60226DB-E4D3-4E89-B452-CA8BAB7E3EC0";
paths = (
{
closed = 1;
nodes = (
"90 685 LINE",
"665 685 LINE",
"665 760 LINE",
"90 760 LINE"
);
},
{
closed = 1;
nodes = (
"173 760 LINE",
"90 760 LINE",
"90 0 LINE",
"173 0 LINE"
);
},
{
closed = 1;
nodes = (
"90 0 LINE",
"670 0 LINE",
"670 75 LINE",
"90 75 LINE"
);
},
{
closed = 1;
nodes = (
"90 454 LINE",
"655 454 LINE",
"655 529 LINE",
"90 529 LINE"
);
},
{
closed = 1;
nodes = (
"380 760 LINE",
"297 760 LINE",
"297 170 LINE",
"380 170 LINE"
);
},
{
closed = 1;
nodes = (
"141 497 LINE",
"112 397 LINE",
"405 9 LINE",
"471 60 LINE"
);
}
);
width = 735;
},
{
associatedMasterId = "C60226DB-E4D3-4E89-B452-CA8BAB7E3EC0";
layerId = "81A34514-6F9E-463A-AB8E-00E4634C75C2";
name = "Apr 14 20, 23:06";
paths = (
{
closed = 1;
nodes = (
"100 685 LINE",
"640 685 LINE",
"640 760 LINE",
"100 760 LINE"
);
},
{
closed = 1;
nodes = (
"185 760 LINE",
"100 760 LINE",
"100 0 LINE",
"185 0 LINE"
);
},
{
closed = 1;
nodes = (
"100 0 LINE",
"640 0 LINE",
"640 75 LINE",
"100 75 LINE"
);
},
{
closed = 1;
nodes = (
"100 505 LINE",
"640 505 LINE",
"640 580 LINE",
"100 580 LINE"
);
},
{
closed = 1;
nodes = (
"390 760 LINE",
"305 760 LINE",
"305 150 LINE",
"390 150 LINE"
);
},
{
closed = 1;
nodes = (
"165 467 LINE",
"165 327 LINE",
"405 9 LINE",
"473 60 LINE"
);
}
);
width = 740;
},
{
associatedMasterId = "C60226DB-E4D3-4E89-B452-CA8BAB7E3EC0";
layerId = "16B4713B-4A56-4E34-8BDF-37D4376B6FD1";
name = "Apr 15 20, 10:44";
paths = (
{
closed = 1;
nodes = (
"100 685 LINE",
"640 685 LINE",
"640 760 LINE",
"100 760 LINE"
);
},
{
closed = 1;
nodes = (
"185 760 LINE",
"100 760 LINE",
"100 0 LINE",
"185 0 LINE"
);
},
{
closed = 1;
nodes = (
"100 0 LINE",
"640 0 LINE",
"640 75 LINE",
"100 75 LINE"
);
},
{
closed = 1;
nodes = (
"100 505 LINE",
"640 505 LINE",
"640 580 LINE",
"100 580 LINE"
);
},
{
closed = 1;
nodes = (
"390 760 LINE",
"305 760 LINE",
"305 150 LINE",
"390 150 LINE"
);
},
{
closed = 1;
nodes = (
"165 467 LINE",
"165 327 LINE",
"405 9 LINE",
"473 60 LINE"
);
}
);
width = 740;
},
{
associatedMasterId = "C60226DB-E4D3-4E89-B452-CA8BAB7E3EC0";
layerId = "45B85FF7-C9E4-46AA-82D6-4130E1076209";
name = "Apr 15 20, 11:24";
paths = (
{
closed = 1;
nodes = (
"100 687 LINE",
"640 687 LINE",
"640 760 LINE",
"100 760 LINE"
);
},
{
closed = 1;
nodes = (
"183 760 LINE",
"100 760 LINE",
"100 0 LINE",
"183 0 LINE"
);
},
{
closed = 1;
nodes = (
"100 0 LINE",
"640 0 LINE",
"640 73 LINE",
"100 73 LINE"
);
},
{
closed = 1;
nodes = (
"100 506 LINE",
"640 506 LINE",
"640 579 LINE",
"100 579 LINE"
);
},
{
closed = 1;
nodes = (
"389 760 LINE",
"306 760 LINE",
"306 150 LINE",
"389 150 LINE"
);
},
{
closed = 1;
nodes = (
"163 467 LINE",
"165 327 LINE",
"405 9 LINE",
"471 60 LINE"
);
}
);
width = 740;
},
{
associatedMasterId = "C60226DB-E4D3-4E89-B452-CA8BAB7E3EC0";
layerId = "08BAA0D0-9E16-4202-9D95-AF2C1C5FCCDF";
name = "Apr 15 20, 15:45";
paths = (
{
closed = 1;
nodes = (
"100 687 LINE",
"640 687 LINE",
"640 760 LINE",
"100 760 LINE"
);
},
{
closed = 1;
nodes = (
"183 760 LINE",
"100 760 LINE",
"100 0 LINE",
"183 0 LINE"
);
},
{
closed = 1;
nodes = (
"100 0 LINE",
"640 0 LINE",
"640 73 LINE",
"100 73 LINE"
);
},
{
closed = 1;
nodes = (
"100 506 LINE",
"640 506 LINE",
"640 579 LINE",
"100 579 LINE"
);
},
{
closed = 1;
nodes = (
"389 760 LINE",
"306 760 LINE",
"306 170 LINE",
"389 170 LINE"
);
},
{
closed = 1;
nodes = (
"151 497 LINE",
"122 397 LINE",
"415 9 LINE",
"481 60 LINE"
);
}
);
width = 730;
},
{
associatedMasterId = "C60226DB-E4D3-4E89-B452-CA8BAB7E3EC0";
layerId = "2E07F2F9-4805-4DCF-BED3-DDE5BF7E63EB";
name = "Apr 16 20, 17:24";
paths = (
{
closed = 1;
nodes = (
"95 687 LINE",
"615 687 LINE",
"615 760 LINE",
"95 760 LINE"
);
},
{
closed = 1;
nodes = (
"178 760 LINE",
"95 760 LINE",
"95 0 LINE",
"178 0 LINE"
);
},
{
closed = 1;
nodes = (
"95 0 LINE",
"615 0 LINE",
"615 73 LINE",
"95 73 LINE"
);
},
{
closed = 1;
nodes = (
"95 501 LINE",
"615 501 LINE",
"615 574 LINE",
"95 574 LINE"
);
},
{
closed = 1;
nodes = (
"384 760 LINE",
"301 760 LINE",
"301 170 LINE",
"384 170 LINE"
);
},
{
closed = 1;
nodes = (
"146 497 LINE",
"117 397 LINE",
"410 9 LINE",
"476 60 LINE"
);
}
);
width = 700;
}
);
unicode = "0045,0065";
},
{
color = 3;
glyphname = F;
lastChange = "2020-07-16 13:25:50 +0000";
layers = (
{
anchors = (
{
name = bottom;
position = "{358, 0}";
},
{
name = top;
position = "{358, 760}";
}
);
background = {
paths = (
{
closed = 1;
nodes = (
"90 685 LINE",
"665 685 LINE",
"665 760 LINE",
"90 760 LINE"
);
},
{
closed = 1;
nodes = (
"173 760 LINE",
"90 760 LINE",
"90 0 LINE",
"173 0 LINE"
);
},
{
closed = 1;
nodes = (
"90 0 LINE",
"670 0 LINE",
"670 75 LINE",
"90 75 LINE"
);
},
{
closed = 1;
nodes = (
"90 454 LINE",
"655 454 LINE",
"655 529 LINE",
"90 529 LINE"
);
},
{
closed = 1;
nodes = (
"380 760 LINE",
"297 760 LINE",
"297 170 LINE",
"380 170 LINE"
);
},
{
closed = 1;
nodes = (
"141 497 LINE",
"112 397 LINE",
"405 9 LINE",
"471 60 LINE"
);
}
);
};
layerId = "C60226DB-E4D3-4E89-B452-CA8BAB7E3EC0";
paths = (
{
closed = 1;
nodes = (
"90 685 LINE",
"660 685 LINE",
"660 760 LINE",
"90 760 LINE"
);
},
{
closed = 1;
nodes = (
"173 760 LINE",
"90 760 LINE",
"90 0 LINE",
"173 0 LINE"
);
},
{
closed = 1;
nodes = (
"90 449 LINE",
"650 449 LINE",
"650 524 LINE",
"90 524 LINE"
);
},
{
closed = 1;
nodes = (
"380 760 LINE",
"297 760 LINE",
"297 0 LINE",
"380 0 LINE"
);
}
);
width = 720;
},
{
associatedMasterId = "C60226DB-E4D3-4E89-B452-CA8BAB7E3EC0";
layerId = "AD4A54D3-EB48-4620-8946-37F15872CC1C";
name = "Apr 14 20, 23:06";
width = 740;
},
{
associatedMasterId = "C60226DB-E4D3-4E89-B452-CA8BAB7E3EC0";
layerId = "D4C0D4F3-E18C-47C8-A86A-8161FA1197A6";
name = "Apr 15 20, 15:45";
width = 740;
},
{
associatedMasterId = "C60226DB-E4D3-4E89-B452-CA8BAB7E3EC0";
layerId = "535449B6-2B69-4D37-88FB-1DAE1DE08744";
name = "Apr 16 20, 17:24";
paths = (
{
closed = 1;
nodes = (
"95 687 LINE",
"615 687 LINE",
"615 760 LINE",
"95 760 LINE"
);
},
{
closed = 1;
nodes = (
"178 760 LINE",
"95 760 LINE",
"95 0 LINE",
"178 0 LINE"
);
},
{
closed = 1;
nodes = (
"95 501 LINE",
"615 501 LINE",
"615 574 LINE",
"95 574 LINE"
);
},
{
closed = 1;
nodes = (
"384 760 LINE",
"301 760 LINE",
"301 0 LINE",
"384 0 LINE"
);
}
);
width = 690;
}
);
unicode = "0046,0066";
},
{
color = 3;
glyphname = G;
lastChange = "2020-07-16 13:25:50 +0000";
layers = (
{
anchors = (
{
name = bottom;
position = "{390, 0}";
},
{
name = top;
position = "{390, 760}";
}
);
layerId = "C60226DB-E4D3-4E89-B452-CA8BAB7E3EC0";
paths = (
{
closed = 1;
nodes = (
"602 0 LINE",
"685 0 LINE",
"685 562 LINE",
"602 562 LINE"
);
},
{
closed = 1;
nodes = (
"90 685 LINE",
"685 685 LINE",
"685 760 LINE",
"90 760 LINE"
);
},
{
closed = 1;
nodes = (
"173 760 LINE",
"90 760 LINE",
"90 0 LINE",
"173 0 LINE"
);
},
{
closed = 1;
nodes = (
"90 0 LINE",
"685 0 LINE",
"685 75 LINE",
"90 75 LINE"
);
},
{
closed = 1;
nodes = (
"517 487 LINE",
"685 487 LINE",
"685 562 LINE",
"517 562 LINE"
);
},
{
closed = 1;
nodes = (
"270 11 LINE",
"582 525 LINE",
"517 562 LINE",
"207 52 LINE"
);
},
{
closed = 1;
nodes = (
"90 195 LINE",
"685 195 LINE",
"685 270 LINE",
"90 270 LINE"
);
}
);
width = 775;
}
);
unicode = "0047,0067";
},
{
color = 3;
glyphname = H;
lastChange = "2020-07-16 13:25:50 +0000";
layers = (
{
anchors = (
{
name = bottom;
position = "{398, 0}";
},
{
name = center;
position = "{398, 380}";
},
{
name = top;
position = "{398, 760}";
},
{
name = topleft;
position = "{20, 760}";
}
);
layerId = "C60226DB-E4D3-4E89-B452-CA8BAB7E3EC0";
paths = (
{
closed = 1;
nodes = (
"622 0 LINE",
"705 0 LINE",
"705 760 LINE",
"622 760 LINE"
);
},
{
closed = 1;
nodes = (
"90 380 LINE",
"705 380 LINE",
"705 455 LINE",
"90 455 LINE"
);
},
{
closed = 1;
nodes = (
"173 760 LINE",
"90 760 LINE",
"90 0 LINE",
"173 0 LINE"
);
},
{
closed = 1;
nodes = (
"90 0 LINE",
"278 0 LINE",
"278 75 LINE",
"90 75 LINE"
);
},
{
closed = 1;
nodes = (
"278 0 LINE",
"539 417 LINE",
"470 448 LINE",
"215 40 LINE"
);
}
);
width = 795;
}
);
unicode = "0048,0068";
},
{
color = 3;
glyphname = I;
lastChange = "2020-07-16 13:25:50 +0000";
layers = (
{
anchors = (
{
name = bottom;
position = "{350, 0}";
},
{
name = ogonek;
position = "{630, 10}";
},
{
name = top;
position = "{350, 760}";
},
{
name = topleft;
position = "{20, 760}";
}
);
background = {
paths = (
{
closed = 1;
nodes = (
"45 687 LINE",
"655 687 LINE",
"655 760 LINE",
"45 760 LINE"
);
},
{
closed = 1;
nodes = (
"288 760 LINE",
"205 760 LINE",
"205 0 LINE",
"288 0 LINE"
);
},
{
closed = 1;
nodes = (
"205 0 LINE",
"495 0 LINE",
"495 73 LINE",
"205 73 LINE"
);
},
{
closed = 1;
nodes = (
"495 760 LINE",
"412 760 LINE",
"412 0 LINE",
"495 0 LINE"
);
},
{
closed = 1;
nodes = (
"45 0 LINE",
"655 0 LINE",
"655 73 LINE",
"45 73 LINE"
);
}
);
};
layerId = "C60226DB-E4D3-4E89-B452-CA8BAB7E3EC0";
paths = (
{
closed = 1;
nodes = (
"65 685 LINE",
"635 685 LINE",
"635 760 LINE",
"65 760 LINE"
);
},
{
closed = 1;
nodes = (
"288 760 LINE",
"205 760 LINE",
"205 0 LINE",
"288 0 LINE"
);
},
{
closed = 1;
nodes = (
"495 760 LINE",
"412 760 LINE",
"412 0 LINE",
"495 0 LINE"
);
},
{
closed = 1;
nodes = (
"65 0 LINE",
"635 0 LINE",
"635 75 LINE",
"65 75 LINE"
);
},
{
closed = 1;
nodes = (
"205 486 LINE",
"495 486 LINE",
"495 561 LINE",
"205 561 LINE"
);
}
);
width = 700;
},
{
associatedMasterId = "C60226DB-E4D3-4E89-B452-CA8BAB7E3EC0";
layerId = "2BFCC143-5D76-4710-A9F3-25907264A695";
name = "Apr 14 20, 23:06";
width = 740;
},
{
associatedMasterId = "C60226DB-E4D3-4E89-B452-CA8BAB7E3EC0";
layerId = "52A84ACE-D139-4271-BDE9-9F5EC71E4FCC";
name = "Apr 15 20, 15:45";
width = 740;
},
{
associatedMasterId = "C60226DB-E4D3-4E89-B452-CA8BAB7E3EC0";
background = {
paths = (
{
closed = 1;
nodes = (
"371 0 LINE",
"454 0 LINE",
"454 760 LINE",
"371 760 LINE"
);
},
{
closed = 1;
nodes = (
"178 600 LINE",
"95 600 LINE",
"95 0 LINE",
"178 0 LINE"
);
}
);
};
layerId = "7F1E6544-CEBE-4026-81A9-5891AAE9B2C3";
name = "Apr 16 20, 17:24";
paths = (
{
closed = 1;
nodes = (
"95 687 LINE",
"419 687 LINE",
"419 760 LINE",
"95 760 LINE"
);
},
{
closed = 1;
nodes = (
"178 760 LINE",
"95 760 LINE",
"95 0 LINE",
"178 0 LINE"
);
},
{
closed = 1;
nodes = (
"95 0 LINE",
"419 0 LINE",
"419 73 LINE",
"95 73 LINE"
);
},
{
closed = 1;
nodes = (
"95 501 LINE",
"419 501 LINE",
"419 574 LINE",
"95 574 LINE"
);
},
{
closed = 1;
nodes = (
"419 760 LINE",
"336 760 LINE",
"336 0 LINE",
"419 0 LINE"
);
}
);
width = 514;
}
);
unicode = "0049,0069";
},
{
color = 3;
glyphname = J;
lastChange = "2020-07-16 13:25:50 +0000";
layers = (
{
anchors = (
{
name = bottom;
position = "{360, 0}";
},
{
name = top;
position = "{360, 760}";
}
);
layerId = "C60226DB-E4D3-4E89-B452-CA8BAB7E3EC0";
paths = (
{
closed = 1;
nodes = (
"100 685 LINE",
"710 685 LINE",
"710 760 LINE",
"100 760 LINE"
);
},
{
closed = 1;
nodes = (
"343 760 LINE",
"260 760 LINE",
"260 160 LINE",
"343 160 LINE"
);
},
{
closed = 1;
nodes = (
"550 760 LINE",
"467 760 LINE",
"467 0 LINE",
"550 0 LINE"
);
},
{
closed = 1;
nodes = (
"40 0 LINE",
"550 0 LINE",
"550 75 LINE",
"40 75 LINE"
);
},
{
closed = 1;
nodes = (
"213 0 LINE",
"549 411 LINE",
"490 458 LINE",
"156 50 LINE"
);
}
);
width = 740;
},
{
associatedMasterId = "C60226DB-E4D3-4E89-B452-CA8BAB7E3EC0";
layerId = "0AF38DBD-6214-4ABF-9E18-B033BC585277";
name = "Apr 14 20, 23:06";
width = 740;
},
{
associatedMasterId = "C60226DB-E4D3-4E89-B452-CA8BAB7E3EC0";
layerId = "7306A697-E3AD-48ED-91B3-110F54936B6A";
name = "Apr 15 20, 15:45";
width = 740;
},
{
associatedMasterId = "C60226DB-E4D3-4E89-B452-CA8BAB7E3EC0";
layerId = "286C0DC3-F692-4702-9BC1-5C8C8A3F02A3";
name = "Apr 16 20, 17:24";
paths = (
{
closed = 1;
nodes = (
"263 687 LINE",
"587 687 LINE",
"587 760 LINE",
"263 760 LINE"
);
},
{
closed = 1;
nodes = (
"346 760 LINE",
"263 760 LINE",
"263 110 LINE",
"346 110 LINE"
);
},
{
closed = 1;
nodes = (
"263 501 LINE",
"587 501 LINE",
"587 574 LINE",
"263 574 LINE"
);
},
{
closed = 1;
nodes = (
"587 760 LINE",
"504 760 LINE",
"504 411 LINE",
"587 411 LINE"
);
},
{
closed = 1;
nodes = (
"50 0 LINE",
"261 0 LINE",
"261 73 LINE",
"50 73 LINE"
);
},
{
closed = 1;
nodes = (
"261 0 LINE",
"587 411 LINE",
"530 456 LINE",
"204 45 LINE"
);
}
);
width = 667;
},
{
associatedMasterId = "C60226DB-E4D3-4E89-B452-CA8BAB7E3EC0";
layerId = "751D236C-D596-4506-AA60-AB773B8DA0F5";
name = "Apr 21 20, 00:58";
paths = (
{
closed = 1;
nodes = (
"380 760 LINE",
"297 760 LINE",
"297 150 LINE",
"380 150 LINE"
);
},
{
closed = 1;
nodes = (
"587 760 LINE",
"504 760 LINE",
"504 411 LINE",
"587 411 LINE"
);
},
{
closed = 1;
nodes = (
"50 0 LINE",
"261 0 LINE",
"261 73 LINE",
"50 73 LINE"
);
},
{
closed = 1;
nodes = (
"261 0 LINE",
"587 411 LINE",
"530 456 LINE",
"204 45 LINE"
);
},
{
closed = 1;
nodes = (
"147 687 LINE",
"737 687 LINE",
"737 760 LINE",
"147 760 LINE"
);
}
);
width = 787;
}
);
unicode = "004A,006A";
},
{
color = 3;
glyphname = K;
lastChange = "2020-07-16 13:25:50 +0000";
layers = (
{
anchors = (
{
name = bottom;
position = "{365, 0}";
},
{
name = top;
position = "{365, 760}";
}
);
layerId = "C60226DB-E4D3-4E89-B452-CA8BAB7E3EC0";
paths = (
{
closed = 1;
nodes = (
"173 760 LINE",
"90 760 LINE",
"90 0 LINE",
"173 0 LINE"
);
},
{
closed = 1;
nodes = (
"90 444 LINE",
"644 444 LINE",
"644 519 LINE",
"90 519 LINE"
);
},
{
closed = 1;
nodes = (
"546 760 LINE",
"94 210 LINE",
"151 161 LINE",
"643 760 LINE"
);
},
{
closed = 1;
nodes = (
"664 0 LINE",
"349 455 LINE",
"286 399 LINE",
"563 0 LINE"
);
},
{
closed = 1;
nodes = (
"644 760 LINE",
"561 760 LINE",
"561 444 LINE",
"644 444 LINE"
);
}
);
width = 734;
}
);
unicode = "004B,006B";
},
{
color = 3;
glyphname = L;
lastChange = "2020-07-16 21:58:33 +0000";
layers = (
{
anchors = (
{
name = bottom;
position = "{355, 0}";
},
{
name = center;
position = "{355, 380}";
},
{
name = top;
position = "{355, 760}";
},
{
name = topright;
position = "{690, 760}";
}
);
layerId = "C60226DB-E4D3-4E89-B452-CA8BAB7E3EC0";
paths = (
{
closed = 1;
nodes = (
"173 760 LINE",
"90 760 LINE",
"90 0 LINE",
"173 0 LINE"
);
},
{
closed = 1;
nodes = (
"90 0 LINE",
"670 0 LINE",
"670 75 LINE",
"90 75 LINE"
);
},
{
closed = 1;
nodes = (
"141 497 LINE",
"112 397 LINE",
"405 9 LINE",
"471 60 LINE"
);
},
{
closed = 1;
nodes = (
"380 760 LINE",
"297 760 LINE",
"297 170 LINE",
"380 170 LINE"
);
}
);
width = 720;
},
{
associatedMasterId = "C60226DB-E4D3-4E89-B452-CA8BAB7E3EC0";
layerId = "CA5448C5-C9A6-4274-AB22-74B8E2171087";
name = "Apr 14 20, 23:06";
width = 740;
},
{
associatedMasterId = "C60226DB-E4D3-4E89-B452-CA8BAB7E3EC0";
layerId = "9871968E-509A-43A7-BCD6-B13B3A2243A5";
name = "Apr 15 20, 15:45";
width = 740;
},
{
associatedMasterId = "C60226DB-E4D3-4E89-B452-CA8BAB7E3EC0";
layerId = "46DFC50D-9750-4339-B12A-934897371B2D";
name = "Apr 16 20, 17:24";
paths = (
{
closed = 1;
nodes = (
"178 760 LINE",
"95 760 LINE",
"95 0 LINE",
"178 0 LINE"
);
},
{
closed = 1;
nodes = (
"95 0 LINE",
"615 0 LINE",
"615 73 LINE",
"95 73 LINE"
);
},
{
closed = 1;
nodes = (
"146 497 LINE",
"117 397 LINE",
"410 9 LINE",
"476 60 LINE"
);
},
{
closed = 1;
nodes = (
"233 760 LINE",
"233 0 LINE",
"316 0 LINE",
"316 760 LINE"
);
}
);
width = 675;
}
);
unicode = "004C,006C";
},
{
color = 3;
glyphname = M;
lastChange = "2020-07-16 13:25:50 +0000";
layers = (
{
anchors = (
{
name = bottom;
position = "{429, 0}";
},
{
name = top;
position = "{429, 760}";
}
);
layerId = "C60226DB-E4D3-4E89-B452-CA8BAB7E3EC0";
paths = (
{
closed = 1;
nodes = (
"714 0 LINE",
"797 0 LINE",
"797 760 LINE",
"714 760 LINE"
);
},
{
closed = 1;
nodes = (
"90 685 LINE",
"797 685 LINE",
"797 760 LINE",
"90 760 LINE"
);
},
{
closed = 1;
nodes = (
"173 760 LINE",
"90 760 LINE",
"90 0 LINE",
"173 0 LINE"
);
},
{
closed = 1;
nodes = (
"473 676 LINE",
"390 656 LINE",
"390 0 LINE",
"473 0 LINE"
);
},
{
closed = 1;
nodes = (
"323 760 LINE",
"240 760 LINE",
"240 0 LINE",
"323 0 LINE"
);
},
{
closed = 1;
nodes = (
"464 760 LINE",
"96 310 LINE",
"154 262 LINE",
"524 714 LINE"
);
}
);
width = 887;
},
{
associatedMasterId = "C60226DB-E4D3-4E89-B452-CA8BAB7E3EC0";
layerId = "EBB66B44-EC65-4C1B-886A-C9BBB3CB9301";
name = "Apr 14 20, 23:06";
paths = (
{
closed = 1;
nodes = (
"555 0 LINE",
"640 0 LINE",
"640 760 LINE",
"555 760 LINE"
);
},
{
closed = 1;
nodes = (
"100 685 LINE",
"640 685 LINE",
"640 760 LINE",
"100 760 LINE"
);
},
{
closed = 1;
nodes = (
"185 760 LINE",
"100 760 LINE",
"100 0 LINE",
"185 0 LINE"
);
},
{
closed = 1;
nodes = (
"435 660 LINE",
"350 620 LINE",
"350 0 LINE",
"435 0 LINE"
);
},
{
closed = 1;
nodes = (
"310 760 LINE",
"225 760 LINE",
"225 0 LINE",
"310 0 LINE"
);
},
{
closed = 1;
nodes = (
"155 135 LINE",
"470 704 LINE",
"405 740 LINE",
"123 231 LINE"
);
}
);
width = 740;
},
{
associatedMasterId = "C60226DB-E4D3-4E89-B452-CA8BAB7E3EC0";
layerId = "7491773F-5527-4802-83F7-4A3EFDC35FE1";
name = "Apr 15 20, 10:44";
paths = (
{
closed = 1;
nodes = (
"555 0 LINE",
"640 0 LINE",
"640 760 LINE",
"555 760 LINE"
);
},
{
closed = 1;
nodes = (
"100 685 LINE",
"640 685 LINE",
"640 760 LINE",
"100 760 LINE"
);
},
{
closed = 1;
nodes = (
"185 760 LINE",
"100 760 LINE",
"100 0 LINE",
"185 0 LINE"
);
},
{
closed = 1;
nodes = (
"435 660 LINE",
"350 620 LINE",
"350 0 LINE",
"435 0 LINE"
);
},
{
closed = 1;
nodes = (
"310 760 LINE",
"225 760 LINE",
"225 0 LINE",
"310 0 LINE"
);
},
{
closed = 1;
nodes = (
"155 135 LINE",
"470 704 LINE",
"405 740 LINE",
"123 231 LINE"
);
}
);
width = 740;
},
{
associatedMasterId = "C60226DB-E4D3-4E89-B452-CA8BAB7E3EC0";
layerId = "D78F948F-5FF3-4F14-BBFA-7791FEBB7953";
name = "Apr 15 20, 11:24";
paths = (
{
closed = 1;
nodes = (
"557 0 LINE",
"640 0 LINE",
"640 760 LINE",
"557 760 LINE"
);
},
{
closed = 1;
nodes = (
"100 687 LINE",
"640 687 LINE",
"640 760 LINE",
"100 760 LINE"
);
},
{
closed = 1;
nodes = (
"183 760 LINE",
"100 760 LINE",
"100 0 LINE",
"183 0 LINE"
);
},
{
closed = 1;
nodes = (
"433 660 LINE",
"350 620 LINE",
"350 0 LINE",
"433 0 LINE"
);
},
{
closed = 1;
nodes = (
"308 760 LINE",
"225 760 LINE",
"225 0 LINE",
"308 0 LINE"
);
},
{
closed = 1;
nodes = (
"154 135 LINE",
"469 704 LINE",
"406 740 LINE",
"124 231 LINE"
);
}
);
width = 740;
},
{
associatedMasterId = "C60226DB-E4D3-4E89-B452-CA8BAB7E3EC0";
layerId = "5F5D3015-7BE5-4053-8FBD-93405ED6993A";
name = "Apr 15 20, 15:45";
paths = (
{
closed = 1;
nodes = (
"617 0 LINE",
"700 0 LINE",
"700 760 LINE",
"617 760 LINE"
);
},
{
closed = 1;
nodes = (
"100 687 LINE",
"700 687 LINE",
"700 760 LINE",
"100 760 LINE"
);
},
{
closed = 1;
nodes = (
"183 760 LINE",
"100 760 LINE",
"100 0 LINE",
"183 0 LINE"
);
},
{
closed = 1;
nodes = (
"453 690 LINE",
"370 620 LINE",
"370 0 LINE",
"453 0 LINE"
);
},
{
closed = 1;
nodes = (
"318 760 LINE",
"235 760 LINE",
"235 0 LINE",
"318 0 LINE"
);
},
{
closed = 1;
nodes = (
"174 135 LINE",
"489 704 LINE",
"426 740 LINE",
"144 231 LINE"
);
}
);
width = 800;
},
{
associatedMasterId = "C60226DB-E4D3-4E89-B452-CA8BAB7E3EC0";
layerId = "191F9044-0F65-415A-ADE3-DE1EC59613EB";
name = "Apr 16 20, 17:24";
paths = (
{
closed = 1;
nodes = (
"647 0 LINE",
"730 0 LINE",
"730 760 LINE",
"647 760 LINE"
);
},
{
closed = 1;
nodes = (
"95 687 LINE",
"730 687 LINE",
"730 760 LINE",
"95 760 LINE"
);
},
{
closed = 1;
nodes = (
"178 760 LINE",
"95 760 LINE",
"95 0 LINE",
"178 0 LINE"
);
},
{
closed = 1;
nodes = (
"454 606 LINE",
"371 606 LINE",
"371 0 LINE",
"454 0 LINE"
);
},
{
closed = 1;
nodes = (
"316 760 LINE",
"233 760 LINE",
"233 0 LINE",
"316 0 LINE"
);
},
{
closed = 1;
nodes = (
"165 187 LINE",
"529 707 LINE",
"469 749 LINE",
"105 229 LINE"
);
}
);
width = 825;
}
);
unicode = "004D,006D";
},
{
color = 3;
glyphname = N;
lastChange = "2020-07-16 13:25:50 +0000";
layers = (
{
anchors = (
{
name = bottom;
position = "{415, 0}";
},
{
name = top;
position = "{415, 760}";
}
);
layerId = "C60226DB-E4D3-4E89-B452-CA8BAB7E3EC0";
paths = (
{
closed = 1;
nodes = (
"90 760 LINE",
"90 0 LINE",
"173 0 LINE",
"173 760 LINE"
);
},
{
closed = 1;
nodes = (
"740 0 LINE",
"740 760 LINE",
"657 760 LINE",
"657 0 LINE"
);
},
{
closed = 1;
nodes = (
"576 75 LINE",
"576 0 LINE",
"740 0 LINE",
"740 75 LINE"
);
},
{
closed = 1;
nodes = (
"295 760 LINE",
"204 760 LINE",
"537 0 LINE",
"627 0 LINE"
);
},
{
closed = 1;
nodes = (
"90 760 LINE",
"90 685 LINE",
"263 685 LINE",
"263 760 LINE"
);
},
{
closed = 1;
nodes = (
"380 500 LINE",
"297 700 LINE",
"297 0 LINE",
"380 0 LINE"
);
}
);
width = 830;
},
{
associatedMasterId = "C60226DB-E4D3-4E89-B452-CA8BAB7E3EC0";
layerId = "2A0AA41E-8D73-46A3-BA94-8B8418ED8110";
name = "Apr 14 20, 23:06";
width = 740;
},
{
associatedMasterId = "C60226DB-E4D3-4E89-B452-CA8BAB7E3EC0";
layerId = "A44A3A4D-87D4-4105-9655-66EDF97AB71D";
name = "Apr 15 20, 15:45";
width = 740;
},
{
associatedMasterId = "C60226DB-E4D3-4E89-B452-CA8BAB7E3EC0";
layerId = "79A34564-C2CD-4434-918C-478DA7A77884";
name = "Apr 16 20, 17:24";
paths = (
{
closed = 1;
nodes = (
"95 760 LINE",
"95 0 LINE",
"178 0 LINE",
"178 760 LINE"
);
},
{
closed = 1;
nodes = (
"95 760 LINE",
"95 687 LINE",
"635 687 LINE",
"635 760 LINE"
);
},
{
closed = 1;
nodes = (
"635 0 LINE",
"635 760 LINE",
"552 760 LINE",
"552 0 LINE"
);
},
{
closed = 1;
nodes = (
"497 0 LINE",
"497 760 LINE",
"414 760 LINE",
"414 0 LINE"
);
},
{
closed = 1;
nodes = (
"197 704 LINE",
"561 184 LINE",
"629 232 LINE",
"265 752 LINE"
);
}
);
width = 730;
},
{
associatedMasterId = "C60226DB-E4D3-4E89-B452-CA8BAB7E3EC0";
layerId = "CC943C06-BD15-4314-BF99-C533B7164C33";
name = "Apr 23 20, 15:01";
paths = (
{
closed = 1;
nodes = (
"95 760 LINE",
"95 0 LINE",
"178 0 LINE",
"178 760 LINE"
);
},
{
closed = 1;
nodes = (
"95 760 LINE",
"95 687 LINE",
"695 687 LINE",
"695 760 LINE"
);
},
{
closed = 1;
nodes = (
"695 0 LINE",
"695 760 LINE",
"612 760 LINE",
"612 0 LINE"
);
},
{
closed = 1;
nodes = (
"548 0 LINE",
"548 760 LINE",
"465 760 LINE",
"465 0 LINE"
);
},
{
closed = 1;
nodes = (
"257 704 LINE",
"621 184 LINE",
"689 232 LINE",
"325 752 LINE"
);
}
);
width = 790;
}
);
unicode = "004E,006E";
},
{
color = 3;
glyphname = O;
lastChange = "2020-07-16 13:25:50 +0000";
layers = (
{
anchors = (
{
name = bottom;
position = "{408, 0}";
},
{
name = center;
position = "{408, 380}";
},
{
name = ogonek;
position = "{734, 10}";
},
{
name = top;
position = "{408, 760}";
},
{
name = topleft;
position = "{20, 760}";
},
{
name = topright;
position = "{796, 760}";
}
);
layerId = "C60226DB-E4D3-4E89-B452-CA8BAB7E3EC0";
paths = (
{
closed = 1;
nodes = (
"643 0 LINE",
"726 0 LINE",
"726 760 LINE",
"643 760 LINE"
);
},
{
closed = 1;
nodes = (
"90 685 LINE",
"726 685 LINE",
"726 760 LINE",
"90 760 LINE"
);
},
{
closed = 1;
nodes = (
"173 760 LINE",
"90 760 LINE",
"90 0 LINE",
"173 0 LINE"
);
},
{
closed = 1;
nodes = (
"90 0 LINE",
"726 0 LINE",
"726 75 LINE",
"90 75 LINE"
);
},
{
closed = 1;
nodes = (
"473 480 LINE",
"390 610 LINE",
"390 0 LINE",
"473 0 LINE"
);
},
{
closed = 1;
nodes = (
"323 760 LINE",
"240 760 LINE",
"240 0 LINE",
"323 0 LINE"
);
},
{
closed = 1;
nodes = (
"657 34 LINE",
"703 126 LINE",
"371 750 LINE",
"298 708 LINE"
);
}
);
width = 816;
},
{
associatedMasterId = "C60226DB-E4D3-4E89-B452-CA8BAB7E3EC0";
layerId = "BB7364AB-4D5B-453D-BD69-F87E2B1803FE";
name = "Apr 14 20, 23:06";
paths = (
{
closed = 1;
nodes = (
"555 0 LINE",
"640 0 LINE",
"640 760 LINE",
"555 760 LINE"
);
},
{
closed = 1;
nodes = (
"100 685 LINE",
"640 685 LINE",
"640 760 LINE",
"100 760 LINE"
);
},
{
closed = 1;
nodes = (
"185 760 LINE",
"100 760 LINE",
"100 0 LINE",
"185 0 LINE"
);
},
{
closed = 1;
nodes = (
"100 0 LINE",
"640 0 LINE",
"640 75 LINE",
"100 75 LINE"
);
},
{
closed = 1;
nodes = (
"435 480 LINE",
"350 610 LINE",
"350 0 LINE",
"435 0 LINE"
);
},
{
closed = 1;
nodes = (
"310 760 LINE",
"225 760 LINE",
"225 0 LINE",
"310 0 LINE"
);
},
{
closed = 1;
nodes = (
"585 109 LINE",
"604 257 LINE",
"342 749 LINE",
"266 710 LINE"
);
}
);
width = 740;
},
{
associatedMasterId = "C60226DB-E4D3-4E89-B452-CA8BAB7E3EC0";
layerId = "0F114B90-1BB2-41D9-A1BE-AB99ED34BD07";
name = "Apr 15 20, 10:44";
paths = (
{
closed = 1;
nodes = (
"555 0 LINE",
"640 0 LINE",
"640 760 LINE",
"555 760 LINE"
);
},
{
closed = 1;
nodes = (
"100 685 LINE",
"640 685 LINE",
"640 760 LINE",
"100 760 LINE"
);
},
{
closed = 1;
nodes = (
"185 760 LINE",
"100 760 LINE",
"100 0 LINE",
"185 0 LINE"
);
},
{
closed = 1;
nodes = (
"100 0 LINE",
"640 0 LINE",
"640 75 LINE",
"100 75 LINE"
);
},
{
closed = 1;
nodes = (
"435 480 LINE",
"350 610 LINE",
"350 0 LINE",
"435 0 LINE"
);
},
{
closed = 1;
nodes = (
"310 760 LINE",
"225 760 LINE",
"225 0 LINE",
"310 0 LINE"
);
},
{
closed = 1;
nodes = (
"585 109 LINE",
"604 257 LINE",
"342 749 LINE",
"266 710 LINE"
);
}
);
width = 740;
},
{
associatedMasterId = "C60226DB-E4D3-4E89-B452-CA8BAB7E3EC0";
layerId = "3B321172-995C-4247-A6C9-90EF10261EA9";
name = "Apr 15 20, 11:24";
paths = (
{
closed = 1;
nodes = (
"557 0 LINE",
"640 0 LINE",
"640 760 LINE",
"557 760 LINE"
);
},
{
closed = 1;
nodes = (
"100 687 LINE",
"640 687 LINE",
"640 760 LINE",
"100 760 LINE"
);
},
{
closed = 1;
nodes = (
"183 760 LINE",
"100 760 LINE",
"100 0 LINE",
"183 0 LINE"
);
},
{
closed = 1;
nodes = (
"100 0 LINE",
"640 0 LINE",
"640 73 LINE",
"100 73 LINE"
);
},
{
closed = 1;
nodes = (
"433 480 LINE",
"350 610 LINE",
"350 0 LINE",
"433 0 LINE"
);
},
{
closed = 1;
nodes = (
"308 760 LINE",
"225 760 LINE",
"225 0 LINE",
"308 0 LINE"
);
},
{
closed = 1;
nodes = (
"586 109 LINE",
"626 213 LINE",
"341 749 LINE",
"267 710 LINE"
);
}
);
width = 740;
},
{
associatedMasterId = "C60226DB-E4D3-4E89-B452-CA8BAB7E3EC0";
layerId = "C133FD16-6762-4DE6-8366-ABEC5A985EFB";
name = "Apr 15 20, 15:45";
paths = (
{
closed = 1;
nodes = (
"577 0 LINE",
"660 0 LINE",
"660 760 LINE",
"577 760 LINE"
);
},
{
closed = 1;
nodes = (
"100 687 LINE",
"660 687 LINE",
"660 760 LINE",
"100 760 LINE"
);
},
{
closed = 1;
nodes = (
"183 760 LINE",
"100 760 LINE",
"100 0 LINE",
"183 0 LINE"
);
},
{
closed = 1;
nodes = (
"100 0 LINE",
"660 0 LINE",
"660 73 LINE",
"100 73 LINE"
);
},
{
closed = 1;
nodes = (
"453 480 LINE",
"370 610 LINE",
"370 0 LINE",
"453 0 LINE"
);
},
{
closed = 1;
nodes = (
"318 760 LINE",
"235 760 LINE",
"235 0 LINE",
"318 0 LINE"
);
},
{
closed = 1;
nodes = (
"586 109 LINE",
"626 213 LINE",
"341 749 LINE",
"267 710 LINE"
);
}
);
width = 760;
},
{
associatedMasterId = "C60226DB-E4D3-4E89-B452-CA8BAB7E3EC0";
layerId = "ECD20490-B83B-489C-A816-C0E2732EF358";
name = "Apr 16 20, 17:24";
paths = (
{
closed = 1;
nodes = (
"572 0 LINE",
"655 0 LINE",
"655 760 LINE",
"572 760 LINE"
);
},
{
closed = 1;
nodes = (
"95 687 LINE",
"655 687 LINE",
"655 760 LINE",
"95 760 LINE"
);
},
{
closed = 1;
nodes = (
"178 760 LINE",
"95 760 LINE",
"95 0 LINE",
"178 0 LINE"
);
},
{
closed = 1;
nodes = (
"95 0 LINE",
"655 0 LINE",
"655 73 LINE",
"95 73 LINE"
);
},
{
closed = 1;
nodes = (
"416 480 LINE",
"333 610 LINE",
"333 0 LINE",
"416 0 LINE"
);
},
{
closed = 1;
nodes = (
"297 760 LINE",
"214 760 LINE",
"214 0 LINE",
"297 0 LINE"
);
},
{
closed = 1;
nodes = (
"581 109 LINE",
"621 213 LINE",
"336 749 LINE",
"262 710 LINE"
);
}
);
width = 750;
}
);
unicode = "004F,006F";
},
{
color = 3;
glyphname = P;
lastChange = "2020-07-16 13:25:50 +0000";
layers = (
{
anchors = (
{
name = bottom;
position = "{373, 0}";
},
{
name = top;
position = "{373, 760}";
}
);
layerId = "C60226DB-E4D3-4E89-B452-CA8BAB7E3EC0";
paths = (
{
closed = 1;
nodes = (
"597 274 LINE",
"680 274 LINE",
"680 760 LINE",
"597 760 LINE"
);
},
{
closed = 1;
nodes = (
"90 685 LINE",
"680 685 LINE",
"680 760 LINE",
"90 760 LINE"
);
},
{
closed = 1;
nodes = (
"173 760 LINE",
"90 760 LINE",
"90 0 LINE",
"173 0 LINE"
);
},
{
closed = 1;
nodes = (
"90 274 LINE",
"680 274 LINE",
"680 349 LINE",
"90 349 LINE"
);
},
{
closed = 1;
nodes = (
"90 500 LINE",
"370 500 LINE",
"370 575 LINE",
"90 575 LINE"
);
},
{
closed = 1;
nodes = (
"567 335 LINE",
"274 752 LINE",
"206 704 LINE",
"496 290 LINE"
);
}
);
width = 760;
},
{
associatedMasterId = "C60226DB-E4D3-4E89-B452-CA8BAB7E3EC0";
layerId = "FEA82D90-9805-4E06-B26E-24B8EA6A8C00";
name = "Apr 14 20, 23:06";
paths = (
{
closed = 1;
nodes = (
"555 300 LINE",
"640 300 LINE",
"640 760 LINE",
"555 760 LINE"
);
},
{
closed = 1;
nodes = (
"100 685 LINE",
"640 685 LINE",
"640 760 LINE",
"100 760 LINE"
);
},
{
closed = 1;
nodes = (
"185 760 LINE",
"100 760 LINE",
"100 0 LINE",
"185 0 LINE"
);
},
{
closed = 1;
nodes = (
"100 300 LINE",
"640 300 LINE",
"640 375 LINE",
"100 375 LINE"
);
},
{
closed = 1;
nodes = (
"295 711 LINE",
"191 711 LINE",
"452 339 LINE",
"555 339 LINE"
);
},
{
closed = 1;
nodes = (
"100 525 LINE",
"360 525 LINE",
"360 600 LINE",
"100 600 LINE"
);
}
);
width = 740;
},
{
associatedMasterId = "C60226DB-E4D3-4E89-B452-CA8BAB7E3EC0";
layerId = "6D1976FE-8C8A-4BCF-82F1-E5CF5C6A9143";
name = "Apr 15 20, 10:44";
paths = (
{
closed = 1;
nodes = (
"555 300 LINE",
"640 300 LINE",
"640 760 LINE",
"555 760 LINE"
);
},
{
closed = 1;
nodes = (
"100 685 LINE",
"640 685 LINE",
"640 760 LINE",
"100 760 LINE"
);
},
{
closed = 1;
nodes = (
"185 760 LINE",
"100 760 LINE",
"100 0 LINE",
"185 0 LINE"
);
},
{
closed = 1;
nodes = (
"100 300 LINE",
"640 300 LINE",
"640 375 LINE",
"100 375 LINE"
);
},
{
closed = 1;
nodes = (
"295 711 LINE",
"191 711 LINE",
"452 339 LINE",
"555 339 LINE"
);
},
{
closed = 1;
nodes = (
"100 525 LINE",
"360 525 LINE",
"360 600 LINE",
"100 600 LINE"
);
}
);
width = 740;
},
{
associatedMasterId = "C60226DB-E4D3-4E89-B452-CA8BAB7E3EC0";
layerId = "DFE0E26C-543F-4355-949E-B717F481C147";
name = "Apr 15 20, 11:24";
paths = (
{
closed = 1;
nodes = (
"557 301 LINE",
"640 301 LINE",
"640 760 LINE",
"557 760 LINE"
);
},
{
closed = 1;
nodes = (
"100 687 LINE",
"640 687 LINE",
"640 760 LINE",
"100 760 LINE"
);
},
{
closed = 1;
nodes = (
"183 760 LINE",
"100 760 LINE",
"100 0 LINE",
"183 0 LINE"
);
},
{
closed = 1;
nodes = (
"100 301 LINE",
"640 301 LINE",
"640 374 LINE",
"100 374 LINE"
);
},
{
closed = 1;
nodes = (
"294 711 LINE",
"192 711 LINE",
"453 339 LINE",
"554 339 LINE"
);
},
{
closed = 1;
nodes = (
"100 526 LINE",
"360 526 LINE",
"360 599 LINE",
"100 599 LINE"
);
}
);
width = 740;
},
{
associatedMasterId = "C60226DB-E4D3-4E89-B452-CA8BAB7E3EC0";
layerId = "695CA746-167E-4AE4-A604-1EC073DE5876";
name = "Apr 15 20, 15:45";
paths = (
{
closed = 1;
nodes = (
"587 301 LINE",
"670 301 LINE",
"670 760 LINE",
"587 760 LINE"
);
},
{
closed = 1;
nodes = (
"100 687 LINE",
"670 687 LINE",
"670 760 LINE",
"100 760 LINE"
);
},
{
closed = 1;
nodes = (
"183 760 LINE",
"100 760 LINE",
"100 0 LINE",
"183 0 LINE"
);
},
{
closed = 1;
nodes = (
"100 301 LINE",
"670 301 LINE",
"670 374 LINE",
"100 374 LINE"
);
},
{
closed = 1;
nodes = (
"314 711 LINE",
"212 711 LINE",
"473 339 LINE",
"574 339 LINE"
);
},
{
closed = 1;
nodes = (
"100 526 LINE",
"380 526 LINE",
"380 599 LINE",
"100 599 LINE"
);
}
);
width = 750;
},
{
associatedMasterId = "C60226DB-E4D3-4E89-B452-CA8BAB7E3EC0";
background = {
paths = (
{
closed = 1;
nodes = (
"95 687 LINE",
"605 687 LINE",
"605 760 LINE",
"95 760 LINE"
);
},
{
closed = 1;
nodes = (
"178 760 LINE",
"95 760 LINE",
"95 0 LINE",
"178 0 LINE"
);
},
{
closed = 1;
nodes = (
"95 0 LINE",
"605 0 LINE",
"605 73 LINE",
"95 73 LINE"
);
},
{
closed = 1;
nodes = (
"95 501 LINE",
"605 501 LINE",
"605 574 LINE",
"95 574 LINE"
);
},
{
closed = 1;
nodes = (
"384 760 LINE",
"301 760 LINE",
"301 170 LINE",
"384 170 LINE"
);
},
{
closed = 1;
nodes = (
"146 497 LINE",
"117 397 LINE",
"410 9 LINE",
"476 60 LINE"
);
}
);
};
layerId = "8246F06C-D63D-4414-9F60-C7D1CAE29412";
name = "Apr 16 20, 17:24";
paths = (
{
closed = 1;
nodes = (
"572 301 LINE",
"655 301 LINE",
"655 760 LINE",
"572 760 LINE"
);
},
{
closed = 1;
nodes = (
"95 687 LINE",
"655 687 LINE",
"655 760 LINE",
"95 760 LINE"
);
},
{
closed = 1;
nodes = (
"178 760 LINE",
"95 760 LINE",
"95 0 LINE",
"178 0 LINE"
);
},
{
closed = 1;
nodes = (
"95 301 LINE",
"655 301 LINE",
"655 374 LINE",
"95 374 LINE"
);
},
{
closed = 1;
nodes = (
"299 711 LINE",
"197 711 LINE",
"458 339 LINE",
"559 339 LINE"
);
},
{
closed = 1;
nodes = (
"95 501 LINE",
"375 501 LINE",
"375 574 LINE",
"95 574 LINE"
);
}
);
width = 740;
}
);
unicode = "0050,0070";
},
{
color = 3;
glyphname = Q;
lastChange = "2020-07-16 13:25:50 +0000";
layers = (
{
anchors = (
{
name = bottom;
position = "{407, 0}";
},
{
name = top;
position = "{407, 760}";
}
);
layerId = "C60226DB-E4D3-4E89-B452-CA8BAB7E3EC0";
paths = (
{
closed = 1;
nodes = (
"643 0 LINE",
"726 0 LINE",
"726 760 LINE",
"643 760 LINE"
);
},
{
closed = 1;
nodes = (
"90 685 LINE",
"726 685 LINE",
"726 760 LINE",
"90 760 LINE"
);
},
{
closed = 1;
nodes = (
"173 760 LINE",
"90 760 LINE",
"90 0 LINE",
"173 0 LINE"
);
},
{
closed = 1;
nodes = (
"90 0 LINE",
"726 0 LINE",
"726 75 LINE",
"90 75 LINE"
);
},
{
closed = 1;
nodes = (
"473 480 LINE",
"390 610 LINE",
"390 0 LINE",
"473 0 LINE"
);
},
{
closed = 1;
nodes = (
"323 760 LINE",
"240 760 LINE",
"240 0 LINE",
"323 0 LINE"
);
},
{
closed = 1;
nodes = (
"782 -200 LINE",
"874 -200 LINE",
"371 750 LINE",
"298 708 LINE"
);
}
);
width = 844;
},
{
associatedMasterId = "C60226DB-E4D3-4E89-B452-CA8BAB7E3EC0";
layerId = "045A0F3C-472F-46FF-93C1-805B6706268F";
name = "Apr 14 20, 23:06";
width = 740;
},
{
associatedMasterId = "C60226DB-E4D3-4E89-B452-CA8BAB7E3EC0";
layerId = "2120075E-8FD3-41BB-864D-D3D549086ADB";
name = "Apr 15 20, 15:45";
width = 740;
},
{
associatedMasterId = "C60226DB-E4D3-4E89-B452-CA8BAB7E3EC0";
layerId = "4BF97A62-ECAA-432B-BC32-B9D285ADAFF3";
name = "Apr 16 20, 17:24";
paths = (
{
closed = 1;
nodes = (
"85 760 LINE",
"85 301 LINE",
"168 301 LINE",
"168 760 LINE"
);
},
{
closed = 1;
nodes = (
"85 760 LINE",
"85 687 LINE",
"645 687 LINE",
"645 760 LINE"
);
},
{
closed = 1;
nodes = (
"645 0 LINE",
"645 760 LINE",
"562 760 LINE",
"562 0 LINE"
);
},
{
closed = 1;
nodes = (
"85 374 LINE",
"85 301 LINE",
"645 301 LINE",
"645 374 LINE"
);
},
{
closed = 1;
nodes = (
"282 339 LINE",
"543 711 LINE",
"441 711 LINE",
"181 339 LINE"
);
}
);
width = 740;
}
);
unicode = "0051,0071";
},
{
color = 3;
glyphname = R;
lastChange = "2020-07-16 13:25:50 +0000";
layers = (
{
anchors = (
{
name = bottom;
position = "{375, 0}";
},
{
name = top;
position = "{375, 760}";
}
);
layerId = "C60226DB-E4D3-4E89-B452-CA8BAB7E3EC0";
paths = (
{
closed = 1;
nodes = (
"586 242 LINE",
"669 242 LINE",
"669 760 LINE",
"586 760 LINE"
);
},
{
closed = 1;
nodes = (
"90 685 LINE",
"669 685 LINE",
"669 760 LINE",
"90 760 LINE"
);
},
{
closed = 1;
nodes = (
"173 760 LINE",
"90 760 LINE",
"90 0 LINE",
"173 0 LINE"
);
},
{
closed = 1;
nodes = (
"90 500 LINE",
"669 500 LINE",
"669 575 LINE",
"90 575 LINE"
);
},
{
closed = 1;
nodes = (
"405 242 LINE",
"669 242 LINE",
"669 317 LINE",
"405 317 LINE"
);
},
{
closed = 1;
nodes = (
"636 0 LINE",
"291 563 LINE",
"219 521 LINE",
"538 0 LINE"
);
}
);
width = 749;
},
{
associatedMasterId = "C60226DB-E4D3-4E89-B452-CA8BAB7E3EC0";
layerId = "A99270DB-E6AB-4CF5-9ED4-9F78FDF0DEDB";
name = "Apr 14 20, 23:06";
paths = (
{
closed = 1;
nodes = (
"555 241 LINE",
"640 241 LINE",
"640 760 LINE",
"555 760 LINE"
);
},
{
closed = 1;
nodes = (
"100 685 LINE",
"640 685 LINE",
"640 760 LINE",
"100 760 LINE"
);
},
{
closed = 1;
nodes = (
"185 760 LINE",
"100 760 LINE",
"100 0 LINE",
"185 0 LINE"
);
},
{
closed = 1;
nodes = (
"100 511 LINE",
"640 511 LINE",
"640 586 LINE",
"100 586 LINE"
);
},
{
closed = 1;
nodes = (
"618 0 LINE",
"263 569 LINE",
"172 554 LINE",
"518 0 LINE"
);
},
{
closed = 1;
nodes = (
"400 241 LINE",
"640 241 LINE",
"640 316 LINE",
"400 316 LINE"
);
}
);
width = 740;
},
{
associatedMasterId = "C60226DB-E4D3-4E89-B452-CA8BAB7E3EC0";
layerId = "38E65928-6DE5-4587-9FEC-288479AD6C4C";
name = "Apr 15 20, 10:44";
paths = (
{
closed = 1;
nodes = (
"555 241 LINE",
"640 241 LINE",
"640 760 LINE",
"555 760 LINE"
);
},
{
closed = 1;
nodes = (
"100 685 LINE",
"640 685 LINE",
"640 760 LINE",
"100 760 LINE"
);
},
{
closed = 1;
nodes = (
"185 760 LINE",
"100 760 LINE",
"100 0 LINE",
"185 0 LINE"
);
},
{
closed = 1;
nodes = (
"100 511 LINE",
"640 511 LINE",
"640 586 LINE",
"100 586 LINE"
);
},
{
closed = 1;
nodes = (
"618 0 LINE",
"263 569 LINE",
"172 554 LINE",
"518 0 LINE"
);
},
{
closed = 1;
nodes = (
"400 241 LINE",
"640 241 LINE",
"640 316 LINE",
"400 316 LINE"
);
}
);
width = 740;
},
{
associatedMasterId = "C60226DB-E4D3-4E89-B452-CA8BAB7E3EC0";
layerId = "B676B639-5618-41DB-8BE6-25D2572E7DFE";
name = "Apr 15 20, 11:24";
paths = (
{
closed = 1;
nodes = (
"557 242 LINE",
"640 242 LINE",
"640 760 LINE",
"557 760 LINE"
);
},
{
closed = 1;
nodes = (
"100 687 LINE",
"640 687 LINE",
"640 760 LINE",
"100 760 LINE"
);
},
{
closed = 1;
nodes = (
"183 760 LINE",
"100 760 LINE",
"100 0 LINE",
"183 0 LINE"
);
},
{
closed = 1;
nodes = (
"100 512 LINE",
"640 512 LINE",
"640 585 LINE",
"100 585 LINE"
);
},
{
closed = 1;
nodes = (
"617 0 LINE",
"262 569 LINE",
"173 554 LINE",
"519 0 LINE"
);
},
{
closed = 1;
nodes = (
"400 242 LINE",
"640 242 LINE",
"640 315 LINE",
"400 315 LINE"
);
}
);
width = 740;
},
{
associatedMasterId = "C60226DB-E4D3-4E89-B452-CA8BAB7E3EC0";
layerId = "3509D78E-8C64-4AF5-8374-EA6D49AFB700";
name = "Apr 15 20, 15:45";
paths = (
{
closed = 1;
nodes = (
"577 242 LINE",
"660 242 LINE",
"660 760 LINE",
"577 760 LINE"
);
},
{
closed = 1;
nodes = (
"100 687 LINE",
"660 687 LINE",
"660 760 LINE",
"100 760 LINE"
);
},
{
closed = 1;
nodes = (
"183 760 LINE",
"100 760 LINE",
"100 0 LINE",
"183 0 LINE"
);
},
{
closed = 1;
nodes = (
"100 512 LINE",
"660 512 LINE",
"660 585 LINE",
"100 585 LINE"
);
},
{
closed = 1;
nodes = (
"617 0 LINE",
"262 569 LINE",
"173 554 LINE",
"519 0 LINE"
);
},
{
closed = 1;
nodes = (
"400 242 LINE",
"660 242 LINE",
"660 315 LINE",
"400 315 LINE"
);
}
);
width = 760;
},
{
associatedMasterId = "C60226DB-E4D3-4E89-B452-CA8BAB7E3EC0";
backgroundImage = {
crop = "{{0, 0}, {306, 436}}";
imagePath = "PILOTE/HEAR/B/_images/Capture d’écran 2020-04-14 à 14.48.07.png";
locked = "1";
transform = "{2.89497, 0, 0, 2.60313, -55, -151}";
};
layerId = "DCBB8F2B-DCAE-4CA7-9DF3-267F15E73EB0";
name = "Apr 16 20, 17:24";
paths = (
{
closed = 1;
nodes = (
"572 242 LINE",
"655 242 LINE",
"655 760 LINE",
"572 760 LINE"
);
},
{
closed = 1;
nodes = (
"95 687 LINE",
"655 687 LINE",
"655 760 LINE",
"95 760 LINE"
);
},
{
closed = 1;
nodes = (
"178 760 LINE",
"95 760 LINE",
"95 0 LINE",
"178 0 LINE"
);
},
{
closed = 1;
nodes = (
"95 501 LINE",
"655 501 LINE",
"655 574 LINE",
"95 574 LINE"
);
},
{
closed = 1;
nodes = (
"395 242 LINE",
"655 242 LINE",
"655 315 LINE",
"395 315 LINE"
);
},
{
closed = 1;
nodes = (
"631 0 LINE",
"260 564 LINE",
"191 518 LINE",
"532 0 LINE"
);
}
);
width = 745;
}
);
unicode = "0052,0072";
},
{
color = 3;
glyphname = S;
lastChange = "2020-07-16 13:25:50 +0000";
layers = (
{
anchors = (
{
name = bottom;
position = "{355, 0}";
},
{
name = top;
position = "{355, 760}";
}
);
layerId = "C60226DB-E4D3-4E89-B452-CA8BAB7E3EC0";
paths = (
{
closed = 1;
nodes = (
"552 0 LINE",
"635 0 LINE",
"635 529 LINE",
"552 529 LINE"
);
},
{
closed = 1;
nodes = (
"70 685 LINE",
"635 685 LINE",
"635 760 LINE",
"70 760 LINE"
);
},
{
closed = 1;
nodes = (
"153 760 LINE",
"70 760 LINE",
"70 454 LINE",
"153 454 LINE"
);
},
{
closed = 1;
nodes = (
"70 454 LINE",
"635 454 LINE",
"635 529 LINE",
"70 529 LINE"
);
},
{
closed = 1;
nodes = (
"70 0 LINE",
"635 0 LINE",
"635 75 LINE",
"70 75 LINE"
);
},
{
closed = 1;
nodes = (
"298 0 LINE",
"621 395 LINE",
"575 458 LINE",
"241 50 LINE"
);
},
{
closed = 1;
nodes = (
"360 760 LINE",
"277 760 LINE",
"277 454 LINE",
"360 454 LINE"
);
}
);
width = 710;
},
{
associatedMasterId = "C60226DB-E4D3-4E89-B452-CA8BAB7E3EC0";
layerId = "1B1E6767-C6A6-443F-B3F1-EED3850A1EEC";
name = "Apr 14 20, 23:06";
paths = (
{
closed = 1;
nodes = (
"555 0 LINE",
"640 0 LINE",
"640 580 LINE",
"555 580 LINE"
);
},
{
closed = 1;
nodes = (
"100 685 LINE",
"640 685 LINE",
"640 760 LINE",
"100 760 LINE"
);
},
{
closed = 1;
nodes = (
"185 760 LINE",
"100 760 LINE",
"100 505 LINE",
"185 505 LINE"
);
},
{
closed = 1;
nodes = (
"100 0 LINE",
"290 0 LINE",
"290 75 LINE",
"100 75 LINE"
);
},
{
closed = 1;
nodes = (
"100 505 LINE",
"640 505 LINE",
"640 580 LINE",
"100 580 LINE"
);
},
{
closed = 1;
nodes = (
"345 760 LINE",
"260 760 LINE",
"260 506 LINE",
"345 506 LINE"
);
},
{
closed = 1;
nodes = (
"412 0 LINE",
"497 0 LINE",
"497 580 LINE",
"412 580 LINE"
);
},
{
closed = 1;
nodes = (
"412 0 LINE",
"640 0 LINE",
"640 75 LINE",
"412 75 LINE"
);
},
{
closed = 1;
nodes = (
"320 0 LINE",
"612 417 LINE",
"575 494 LINE",
"229 0 LINE"
);
}
);
width = 740;
},
{
associatedMasterId = "C60226DB-E4D3-4E89-B452-CA8BAB7E3EC0";
layerId = "32AA7878-53A2-4CEF-8793-AB270C2D787A";
name = "Apr 15 20, 10:44";
paths = (
{
closed = 1;
nodes = (
"555 0 LINE",
"640 0 LINE",
"640 580 LINE",
"555 580 LINE"
);
},
{
closed = 1;
nodes = (
"100 685 LINE",
"640 685 LINE",
"640 760 LINE",
"100 760 LINE"
);
},
{
closed = 1;
nodes = (
"185 760 LINE",
"100 760 LINE",
"100 505 LINE",
"185 505 LINE"
);
},
{
closed = 1;
nodes = (
"100 0 LINE",
"290 0 LINE",
"290 75 LINE",
"100 75 LINE"
);
},
{
closed = 1;
nodes = (
"100 505 LINE",
"640 505 LINE",
"640 580 LINE",
"100 580 LINE"
);
},
{
closed = 1;
nodes = (
"345 760 LINE",
"260 760 LINE",
"260 506 LINE",
"345 506 LINE"
);
},
{
closed = 1;
nodes = (
"412 0 LINE",
"497 0 LINE",
"497 580 LINE",
"412 580 LINE"
);
},
{
closed = 1;
nodes = (
"412 0 LINE",
"640 0 LINE",
"640 75 LINE",
"412 75 LINE"
);
},
{
closed = 1;
nodes = (
"320 0 LINE",
"612 417 LINE",
"575 494 LINE",
"229 0 LINE"
);
}
);
width = 740;
},
{
associatedMasterId = "C60226DB-E4D3-4E89-B452-CA8BAB7E3EC0";
layerId = "E9622D20-87DE-4065-90C9-7F75128EED9E";
name = "Apr 15 20, 11:24";
paths = (
{
closed = 1;
nodes = (
"557 0 LINE",
"640 0 LINE",
"640 579 LINE",
"557 579 LINE"
);
},
{
closed = 1;
nodes = (
"100 687 LINE",
"640 687 LINE",
"640 760 LINE",
"100 760 LINE"
);
},
{
closed = 1;
nodes = (
"183 760 LINE",
"100 760 LINE",
"100 506 LINE",
"183 506 LINE"
);
},
{
closed = 1;
nodes = (
"100 0 LINE",
"290 0 LINE",
"290 73 LINE",
"100 73 LINE"
);
},
{
closed = 1;
nodes = (
"100 506 LINE",
"640 506 LINE",
"640 579 LINE",
"100 579 LINE"
);
},
{
closed = 1;
nodes = (
"344 760 LINE",
"261 760 LINE",
"261 506 LINE",
"344 506 LINE"
);
},
{
closed = 1;
nodes = (
"413 0 LINE",
"496 0 LINE",
"496 579 LINE",
"413 579 LINE"
);
},
{
closed = 1;
nodes = (
"413 0 LINE",
"640 0 LINE",
"640 73 LINE",
"413 73 LINE"
);
},
{
closed = 1;
nodes = (
"320 0 LINE",
"612 417 LINE",
"577 494 LINE",
"231 0 LINE"
);
}
);
width = 740;
},
{
associatedMasterId = "C60226DB-E4D3-4E89-B452-CA8BAB7E3EC0";
layerId = "3EB63110-06EF-4905-B04D-AD5EF479FA4A";
name = "Apr 15 20, 15:45";
paths = (
{
closed = 1;
nodes = (
"567 0 LINE",
"650 0 LINE",
"650 579 LINE",
"567 579 LINE"
);
},
{
closed = 1;
nodes = (
"100 687 LINE",
"650 687 LINE",
"650 760 LINE",
"100 760 LINE"
);
},
{
closed = 1;
nodes = (
"183 760 LINE",
"100 760 LINE",
"100 506 LINE",
"183 506 LINE"
);
},
{
closed = 1;
nodes = (
"100 0 LINE",
"290 0 LINE",
"290 73 LINE",
"100 73 LINE"
);
},
{
closed = 1;
nodes = (
"100 506 LINE",
"650 506 LINE",
"650 579 LINE",
"100 579 LINE"
);
},
{
closed = 1;
nodes = (
"344 760 LINE",
"261 760 LINE",
"261 506 LINE",
"344 506 LINE"
);
},
{
closed = 1;
nodes = (
"413 0 LINE",
"496 0 LINE",
"496 579 LINE",
"413 579 LINE"
);
},
{
closed = 1;
nodes = (
"413 0 LINE",
"650 0 LINE",
"650 73 LINE",
"413 73 LINE"
);
},
{
closed = 1;
nodes = (
"320 0 LINE",
"612 417 LINE",
"577 494 LINE",
"231 0 LINE"
);
}
);
width = 750;
},
{
associatedMasterId = "C60226DB-E4D3-4E89-B452-CA8BAB7E3EC0";
backgroundImage = {
crop = "{{0, 0}, {160, 229}}";
imagePath = "PILOTE/HEAR/B/_images/Capture d’écran 2020-04-14 à 14.45.32.png";
locked = "1";
transform = "{5.05765, 0, 0, 4.49176, -28, -110}";
};
layerId = "7896625A-CB76-4FE7-97FA-77D642BBA54B";
name = "Apr 16 20, 17:24";
paths = (
{
closed = 1;
nodes = (
"552 0 LINE",
"635 0 LINE",
"635 574 LINE",
"552 574 LINE"
);
},
{
closed = 1;
nodes = (
"85 687 LINE",
"635 687 LINE",
"635 760 LINE",
"85 760 LINE"
);
},
{
closed = 1;
nodes = (
"168 760 LINE",
"85 760 LINE",
"85 501 LINE",
"168 501 LINE"
);
},
{
closed = 1;
nodes = (
"85 0 LINE",
"296 0 LINE",
"296 73 LINE",
"85 73 LINE"
);
},
{
closed = 1;
nodes = (
"85 501 LINE",
"635 501 LINE",
"635 574 LINE",
"85 574 LINE"
);
},
{
closed = 1;
nodes = (
"329 760 LINE",
"246 760 LINE",
"246 501 LINE",
"329 501 LINE"
);
},
{
closed = 1;
nodes = (
"398 0 LINE",
"481 0 LINE",
"481 574 LINE",
"398 574 LINE"
);
},
{
closed = 1;
nodes = (
"398 0 LINE",
"635 0 LINE",
"635 73 LINE",
"398 73 LINE"
);
},
{
closed = 1;
nodes = (
"296 0 LINE",
"622 411 LINE",
"565 456 LINE",
"239 45 LINE"
);
}
);
width = 730;
},
{
associatedMasterId = "C60226DB-E4D3-4E89-B452-CA8BAB7E3EC0";
layerId = "A81031AA-5DBD-4963-B478-3C5B58C98020";
name = "Apr 27 20, 22:33";
paths = (
{
closed = 1;
nodes = (
"572 0 LINE",
"655 0 LINE",
"655 574 LINE",
"572 574 LINE"
);
},
{
closed = 1;
nodes = (
"75 687 LINE",
"655 687 LINE",
"655 760 LINE",
"75 760 LINE"
);
},
{
closed = 1;
nodes = (
"158 760 LINE",
"75 760 LINE",
"75 501 LINE",
"158 501 LINE"
);
},
{
closed = 1;
nodes = (
"75 0 LINE",
"306 0 LINE",
"306 73 LINE",
"75 73 LINE"
);
},
{
closed = 1;
nodes = (
"75 501 LINE",
"655 501 LINE",
"655 574 LINE",
"75 574 LINE"
);
},
{
closed = 1;
nodes = (
"425 253 LINE",
"508 253 LINE",
"508 574 LINE",
"425 574 LINE"
);
},
{
closed = 1;
nodes = (
"295 0 LINE",
"655 0 LINE",
"655 73 LINE",
"295 73 LINE"
);
},
{
closed = 1;
nodes = (
"306 0 LINE",
"642 411 LINE",
"585 456 LINE",
"249 45 LINE"
);
},
{
closed = 1;
nodes = (
"305 760 LINE",
"222 760 LINE",
"222 501 LINE",
"305 501 LINE"
);
}
);
width = 750;
}
);
unicode = "0053,0073";
},
{
color = 3;
glyphname = T;
lastChange = "2020-07-16 21:59:07 +0000";
layers = (
{
anchors = (
{
name = bottom;
position = "{416, 0}";
},
{
name = center;
position = "{416, 380}";
},
{
name = top;
position = "{416, 760}";
}
);
layerId = "C60226DB-E4D3-4E89-B452-CA8BAB7E3EC0";
paths = (
{
closed = 1;
nodes = (
"478 0 LINE",
"561 0 LINE",
"561 575 LINE",
"478 575 LINE"
);
},
{
closed = 1;
nodes = (
"60 685 LINE",
"771 685 LINE",
"771 760 LINE",
"60 760 LINE"
);
},
{
closed = 1;
nodes = (
"354 760 LINE",
"271 760 LINE",
"271 0 LINE",
"354 0 LINE"
);
},
{
closed = 1;
nodes = (
"271 0 LINE",
"561 0 LINE",
"561 73 LINE",
"271 73 LINE"
);
},
{
closed = 1;
nodes = (
"60 500 LINE",
"771 500 LINE",
"771 575 LINE",
"60 575 LINE"
);
},
{
closed = 1;
nodes = (
"143 760 LINE",
"60 760 LINE",
"60 500 LINE",
"143 500 LINE"
);
},
{
closed = 1;
nodes = (
"771 760 LINE",
"688 760 LINE",
"688 500 LINE",
"771 500 LINE"
);
},
{
closed = 1;
nodes = (
"640 554 LINE",
"506 745 LINE",
"434 704 LINE",
"568 512 LINE"
);
}
);
width = 831;
},
{
associatedMasterId = "C60226DB-E4D3-4E89-B452-CA8BAB7E3EC0";
layerId = "8F215CC9-2D23-40A1-A233-5DE2F2DA7D79";
name = "Apr 14 20, 23:06";
paths = (
{
closed = 1;
nodes = (
"405 0 LINE",
"490 0 LINE",
"490 585 LINE",
"405 585 LINE"
);
},
{
closed = 1;
nodes = (
"100 685 LINE",
"640 685 LINE",
"640 760 LINE",
"100 760 LINE"
);
},
{
closed = 1;
nodes = (
"337 760 LINE",
"252 760 LINE",
"252 0 LINE",
"337 0 LINE"
);
},
{
closed = 1;
nodes = (
"252 0 LINE",
"490 0 LINE",
"490 75 LINE",
"252 75 LINE"
);
},
{
closed = 1;
nodes = (
"100 510 LINE",
"640 510 LINE",
"640 585 LINE",
"100 585 LINE"
);
},
{
closed = 1;
nodes = (
"185 760 LINE",
"100 760 LINE",
"100 510 LINE",
"185 510 LINE"
);
},
{
closed = 1;
nodes = (
"640 760 LINE",
"555 760 LINE",
"555 510 LINE",
"640 510 LINE"
);
},
{
closed = 1;
nodes = (
"351 734 LINE",
"467 533 LINE",
"566 533 LINE",
"450 734 LINE"
);
}
);
width = 740;
},
{
associatedMasterId = "C60226DB-E4D3-4E89-B452-CA8BAB7E3EC0";
layerId = "7E07B04E-1D6C-4A16-B9FD-A613B66BE72C";
name = "Apr 15 20, 10:44";
paths = (
{
closed = 1;
nodes = (
"405 0 LINE",
"490 0 LINE",
"490 585 LINE",
"405 585 LINE"
);
},
{
closed = 1;
nodes = (
"100 685 LINE",
"640 685 LINE",
"640 760 LINE",
"100 760 LINE"
);
},
{
closed = 1;
nodes = (
"337 760 LINE",
"252 760 LINE",
"252 0 LINE",
"337 0 LINE"
);
},
{
closed = 1;
nodes = (
"252 0 LINE",
"490 0 LINE",
"490 75 LINE",
"252 75 LINE"
);
},
{
closed = 1;
nodes = (
"100 510 LINE",
"640 510 LINE",
"640 585 LINE",
"100 585 LINE"
);
},
{
closed = 1;
nodes = (
"185 760 LINE",
"100 760 LINE",
"100 510 LINE",
"185 510 LINE"
);
},
{
closed = 1;
nodes = (
"640 760 LINE",
"555 760 LINE",
"555 510 LINE",
"640 510 LINE"
);
},
{
closed = 1;
nodes = (
"351 734 LINE",
"467 533 LINE",
"566 533 LINE",
"450 734 LINE"
);
}
);
width = 740;
},
{
associatedMasterId = "C60226DB-E4D3-4E89-B452-CA8BAB7E3EC0";
layerId = "88EA1617-B5B3-4DF1-8A89-B8EF868FA8F9";
name = "Apr 15 20, 11:24";
paths = (
{
closed = 1;
nodes = (
"406 0 LINE",
"489 0 LINE",
"489 584 LINE",
"406 584 LINE"
);
},
{
closed = 1;
nodes = (
"100 687 LINE",
"640 687 LINE",
"640 760 LINE",
"100 760 LINE"
);
},
{
closed = 1;
nodes = (
"336 760 LINE",
"253 760 LINE",
"253 0 LINE",
"336 0 LINE"
);
},
{
closed = 1;
nodes = (
"253 0 LINE",
"489 0 LINE",
"489 73 LINE",
"253 73 LINE"
);
},
{
closed = 1;
nodes = (
"100 511 LINE",
"640 511 LINE",
"640 584 LINE",
"100 584 LINE"
);
},
{
closed = 1;
nodes = (
"183 760 LINE",
"100 760 LINE",
"100 511 LINE",
"183 511 LINE"
);
},
{
closed = 1;
nodes = (
"640 760 LINE",
"557 760 LINE",
"557 511 LINE",
"640 511 LINE"
);
},
{
closed = 1;
nodes = (
"352 734 LINE",
"468 533 LINE",
"565 533 LINE",
"449 734 LINE"
);
}
);
width = 740;
},
{
associatedMasterId = "C60226DB-E4D3-4E89-B452-CA8BAB7E3EC0";
layerId = "CA8C8C23-76AB-46AB-8ACA-DF9F0B8FF6D5";
name = "Apr 15 20, 15:45";
paths = (
{
closed = 1;
nodes = (
"450 0 LINE",
"533 0 LINE",
"533 584 LINE",
"450 584 LINE"
);
},
{
closed = 1;
nodes = (
"65 687 LINE",
"745 687 LINE",
"745 760 LINE",
"65 760 LINE"
);
},
{
closed = 1;
nodes = (
"360 760 LINE",
"277 760 LINE",
"277 0 LINE",
"360 0 LINE"
);
},
{
closed = 1;
nodes = (
"277 0 LINE",
"533 0 LINE",
"533 73 LINE",
"277 73 LINE"
);
},
{
closed = 1;
nodes = (
"65 511 LINE",
"745 511 LINE",
"745 584 LINE",
"65 584 LINE"
);
},
{
closed = 1;
nodes = (
"148 760 LINE",
"65 760 LINE",
"65 511 LINE",
"148 511 LINE"
);
},
{
closed = 1;
nodes = (
"745 760 LINE",
"662 760 LINE",
"662 511 LINE",
"745 511 LINE"
);
},
{
closed = 1;
nodes = (
"386 734 LINE",
"502 533 LINE",
"599 533 LINE",
"483 734 LINE"
);
}
);
width = 810;
},
{
associatedMasterId = "C60226DB-E4D3-4E89-B452-CA8BAB7E3EC0";
backgroundImage = {
crop = "{{0, 0}, {165, 252}}";
imagePath = "PILOTE/HEAR/B/_images/Capture d’écran 2020-04-14 à 14.45.42.png";
locked = "1";
transform = "{6.27085, 0, 0, 4.47018, -95, -140}";
};
layerId = "62FE8F7D-E4E0-43B9-8016-CE4769F89B6A";
name = "Apr 16 20, 17:24";
paths = (
{
closed = 1;
nodes = (
"440 0 LINE",
"523 0 LINE",
"523 574 LINE",
"440 574 LINE"
);
},
{
closed = 1;
nodes = (
"65 687 LINE",
"725 687 LINE",
"725 760 LINE",
"65 760 LINE"
);
},
{
closed = 1;
nodes = (
"350 760 LINE",
"267 760 LINE",
"267 0 LINE",
"350 0 LINE"
);
},
{
closed = 1;
nodes = (
"267 0 LINE",
"523 0 LINE",
"523 73 LINE",
"267 73 LINE"
);
},
{
closed = 1;
nodes = (
"65 501 LINE",
"725 501 LINE",
"725 574 LINE",
"65 574 LINE"
);
},
{
closed = 1;
nodes = (
"148 760 LINE",
"65 760 LINE",
"65 501 LINE",
"148 501 LINE"
);
},
{
closed = 1;
nodes = (
"725 760 LINE",
"642 760 LINE",
"642 501 LINE",
"725 501 LINE"
);
},
{
closed = 1;
nodes = (
"394 719 LINE",
"535 535 LINE",
"631 548 LINE",
"490 732 LINE"
);
}
);
width = 790;
}
);
unicode = "0054,0074";
},
{
color = 3;
glyphname = U;
lastChange = "2020-07-16 13:25:50 +0000";
layers = (
{
anchors = (
{
name = bottom;
position = "{392, 0}";
},
{
name = ogonek;
position = "{705, 10}";
},
{
name = top;
position = "{392, 760}";
},
{
name = topright;
position = "{763, 760}";
}
);
background = {
paths = (
{
closed = 1;
nodes = (
"610 454 LINE",
"693 454 LINE",
"693 760 LINE",
"610 760 LINE"
);
},
{
closed = 1;
nodes = (
"67 500 LINE",
"693 500 LINE",
"693 575 LINE",
"67 575 LINE"
);
},
{
closed = 1;
nodes = (
"150 760 LINE",
"67 760 LINE",
"67 0 LINE",
"150 0 LINE"
);
},
{
closed = 1;
nodes = (
"67 0 LINE",
"322 0 LINE",
"322 75 LINE",
"67 75 LINE"
);
},
{
closed = 1;
nodes = (
"543 575 LINE",
"460 575 LINE",
"460 277 LINE",
"543 277 LINE"
);
},
{
closed = 1;
nodes = (
"322 0 LINE",
"693 454 LINE",
"632 498 LINE",
"262 46 LINE"
);
}
);
};
layerId = "C60226DB-E4D3-4E89-B452-CA8BAB7E3EC0";
paths = (
{
closed = 1;
nodes = (
"610 0 LINE",
"693 0 LINE",
"693 760 LINE",
"610 760 LINE"
);
},
{
closed = 1;
nodes = (
"173 760 LINE",
"90 760 LINE",
"90 0 LINE",
"173 0 LINE"
);
},
{
closed = 1;
nodes = (
"90 0 LINE",
"693 0 LINE",
"693 75 LINE",
"90 75 LINE"
);
},
{
closed = 1;
nodes = (
"543 760 LINE",
"460 760 LINE",
"460 0 LINE",
"543 0 LINE"
);
},
{
closed = 1;
nodes = (
"322 0 LINE",
"690 450 LINE",
"629 494 LINE",
"263 47 LINE"
);
}
);
width = 783;
},
{
associatedMasterId = "C60226DB-E4D3-4E89-B452-CA8BAB7E3EC0";
layerId = "6C783A21-945B-49F5-8AD0-9FB02962B258";
name = "Apr 14 20, 23:06";
width = 740;
},
{
associatedMasterId = "C60226DB-E4D3-4E89-B452-CA8BAB7E3EC0";
layerId = "4FAD8B27-18F4-466C-83F3-B3E4765296B4";
name = "Apr 15 20, 15:45";
width = 740;
},
{
associatedMasterId = "C60226DB-E4D3-4E89-B452-CA8BAB7E3EC0";
layerId = "9E2000A8-2505-43C8-9AF5-5694FCA9BA24";
name = "Apr 16 20, 17:24";
paths = (
{
closed = 1;
nodes = (
"178 760 LINE",
"95 760 LINE",
"95 0 LINE",
"178 0 LINE"
);
},
{
closed = 1;
nodes = (
"655 73 LINE",
"95 73 LINE",
"95 0 LINE",
"655 0 LINE"
);
},
{
closed = 1;
nodes = (
"572 0 LINE",
"655 0 LINE",
"655 760 LINE",
"572 760 LINE"
);
},
{
closed = 1;
nodes = (
"329 7 LINE",
"646 377 LINE",
"591 425 LINE",
"273 54 LINE"
);
}
);
width = 750;
},
{
associatedMasterId = "C60226DB-E4D3-4E89-B452-CA8BAB7E3EC0";
layerId = "2337660F-25B9-44C0-A555-7EA585B210B9";
name = "Apr 23 20, 14:53";
paths = (
{
closed = 1;
nodes = (
"685 0 LINE",
"685 760 LINE",
"602 760 LINE",
"602 0 LINE"
);
},
{
closed = 1;
nodes = (
"685 0 LINE",
"685 73 LINE",
"95 73 LINE",
"95 0 LINE"
);
},
{
closed = 1;
nodes = (
"95 760 LINE",
"95 0 LINE",
"178 0 LINE",
"178 760 LINE"
);
},
{
closed = 1;
nodes = (
"242 760 LINE",
"242 0 LINE",
"325 0 LINE",
"325 760 LINE"
);
},
{
closed = 1;
nodes = (
"533 56 LINE",
"169 576 LINE",
"101 528 LINE",
"465 8 LINE"
);
}
);
width = 780;
}
);
unicode = "0055,0075";
},
{
color = 3;
glyphname = V;
lastChange = "2020-07-22 13:19:01 +0000";
layers = (
{
anchors = (
{
name = bottom;
position = "{376, 0}";
},
{
name = top;
position = "{376, 760}";
}
);
layerId = "C60226DB-E4D3-4E89-B452-CA8BAB7E3EC0";
paths = (
{
closed = 1;
nodes = (
"623 454 LINE",
"706 454 LINE",
"706 760 LINE",
"623 760 LINE"
);
},
{
closed = 1;
nodes = (
"90 500 LINE",
"706 500 LINE",
"706 575 LINE",
"90 575 LINE"
);
},
{
closed = 1;
nodes = (
"173 760 LINE",
"90 760 LINE",
"90 0 LINE",
"173 0 LINE"
);
},
{
closed = 1;
nodes = (
"90 0 LINE",
"335 0 LINE",
"335 75 LINE",
"90 75 LINE"
);
},
{
closed = 1;
nodes = (
"499 575 LINE",
"416 575 LINE",
"416 193 LINE",
"499 203 LINE"
);
},
{
closed = 1;
nodes = (
"335 0 LINE",
"706 454 LINE",
"645 498 LINE",
"275 46 LINE"
);
}
);
width = 771;
},
{
associatedMasterId = "C60226DB-E4D3-4E89-B452-CA8BAB7E3EC0";
layerId = "F10AD0B9-FF73-4AC9-8278-757A22D1FA05";
name = "Apr 14 20, 23:06";
paths = (
{
closed = 1;
nodes = (
"555 410 LINE",
"640 410 LINE",
"640 760 LINE",
"555 760 LINE"
);
},
{
closed = 1;
nodes = (
"170 515 LINE",
"575 515 LINE",
"575 590 LINE",
"170 590 LINE"
);
},
{
closed = 1;
nodes = (
"185 760 LINE",
"100 760 LINE",
"100 0 LINE",
"185 0 LINE"
);
},
{
closed = 1;
nodes = (
"100 0 LINE",
"312 0 LINE",
"312 75 LINE",
"100 75 LINE"
);
},
{
closed = 1;
nodes = (
"331 0 LINE",
"640 410 LINE",
"583 458 LINE",
"238 0 LINE"
);
},
{
closed = 1;
nodes = (
"390 515 LINE",
"305 515 LINE",
"305 80 LINE",
"390 80 LINE"
);
},
{
closed = 1;
nodes = (
"515 515 LINE",
"430 515 LINE",
"430 247 LINE",
"515 247 LINE"
);
}
);
width = 740;
},
{
associatedMasterId = "C60226DB-E4D3-4E89-B452-CA8BAB7E3EC0";
layerId = "DC489631-EF84-47B9-AF3E-C030897B0ACA";
name = "Apr 15 20, 10:44";
paths = (
{
closed = 1;
nodes = (
"555 410 LINE",
"640 410 LINE",
"640 760 LINE",
"555 760 LINE"
);
},
{
closed = 1;
nodes = (
"170 515 LINE",
"575 515 LINE",
"575 590 LINE",
"170 590 LINE"
);
},
{
closed = 1;
nodes = (
"185 760 LINE",
"100 760 LINE",
"100 0 LINE",
"185 0 LINE"
);
},
{
closed = 1;
nodes = (
"100 0 LINE",
"312 0 LINE",
"312 75 LINE",
"100 75 LINE"
);
},
{
closed = 1;
nodes = (
"331 0 LINE",
"640 410 LINE",
"583 458 LINE",
"238 0 LINE"
);
},
{
closed = 1;
nodes = (
"390 515 LINE",
"305 515 LINE",
"305 80 LINE",
"390 80 LINE"
);
},
{
closed = 1;
nodes = (
"515 515 LINE",
"430 515 LINE",
"430 247 LINE",
"515 247 LINE"
);
}
);
width = 740;
},
{
associatedMasterId = "C60226DB-E4D3-4E89-B452-CA8BAB7E3EC0";
layerId = "3DEEA4C5-7248-44D1-B5F6-3F0535210AB4";
name = "Apr 15 20, 11:24";
paths = (
{
closed = 1;
nodes = (
"557 410 LINE",
"640 410 LINE",
"640 760 LINE",
"557 760 LINE"
);
},
{
closed = 1;
nodes = (
"170 516 LINE",
"575 516 LINE",
"575 589 LINE",
"170 589 LINE"
);
},
{
closed = 1;
nodes = (
"183 760 LINE",
"100 760 LINE",
"100 0 LINE",
"183 0 LINE"
);
},
{
closed = 1;
nodes = (
"100 0 LINE",
"312 0 LINE",
"312 73 LINE",
"100 73 LINE"
);
},
{
closed = 1;
nodes = (
"331 0 LINE",
"640 410 LINE",
"585 458 LINE",
"240 0 LINE"
);
},
{
closed = 1;
nodes = (
"389 565 LINE",
"306 565 LINE",
"306 80 LINE",
"389 80 LINE"
);
},
{
closed = 1;
nodes = (
"514 565 LINE",
"431 565 LINE",
"431 247 LINE",
"514 247 LINE"
);
}
);
width = 740;
},
{
associatedMasterId = "C60226DB-E4D3-4E89-B452-CA8BAB7E3EC0";
layerId = "67AAF894-4257-4430-8333-C2CF32DD870D";
name = "Apr 15 20, 15:45";
paths = (
{
closed = 1;
nodes = (
"576 410 LINE",
"659 410 LINE",
"659 760 LINE",
"576 760 LINE"
);
},
{
closed = 1;
nodes = (
"140 516 LINE",
"605 516 LINE",
"605 589 LINE",
"140 589 LINE"
);
},
{
closed = 1;
nodes = (
"183 760 LINE",
"100 760 LINE",
"100 0 LINE",
"183 0 LINE"
);
},
{
closed = 1;
nodes = (
"100 0 LINE",
"312 0 LINE",
"312 73 LINE",
"100 73 LINE"
);
},
{
closed = 1;
nodes = (
"350 0 LINE",
"659 410 LINE",
"604 458 LINE",
"259 0 LINE"
);
},
{
closed = 1;
nodes = (
"389 565 LINE",
"306 565 LINE",
"306 60 LINE",
"389 60 LINE"
);
},
{
closed = 1;
nodes = (
"524 565 LINE",
"441 565 LINE",
"441 237 LINE",
"524 237 LINE"
);
}
);
width = 740;
},
{
associatedMasterId = "C60226DB-E4D3-4E89-B452-CA8BAB7E3EC0";
backgroundImage = {
crop = "{{0, 0}, {273, 403}}";
imagePath = "PILOTE/HEAR/B/_images/Capture d’écran 2020-04-14 à 14.48.02.png";
locked = "1";
transform = "{2.92754, 0, 0, 2.51911, -2, -108}";
};
layerId = "7E22CD37-36FC-41ED-BD82-03D19541C35A";
name = "Apr 16 20, 17:24";
paths = (
{
closed = 1;
nodes = (
"572 416 LINE",
"655 416 LINE",
"655 760 LINE",
"572 760 LINE"
);
},
{
closed = 1;
nodes = (
"95 501 LINE",
"655 501 LINE",
"655 574 LINE",
"95 574 LINE"
);
},
{
closed = 1;
nodes = (
"178 760 LINE",
"95 760 LINE",
"95 0 LINE",
"178 0 LINE"
);
},
{
closed = 1;
nodes = (
"95 0 LINE",
"298 0 LINE",
"298 73 LINE",
"95 73 LINE"
);
},
{
closed = 1;
nodes = (
"417 550 LINE",
"334 550 LINE",
"334 140 LINE",
"417 140 LINE"
);
},
{
closed = 1;
nodes = (
"536 550 LINE",
"453 550 LINE",
"453 287 LINE",
"536 287 LINE"
);
},
{
closed = 1;
nodes = (
"298 0 LINE",
"655 416 LINE",
"600 464 LINE",
"242 47 LINE"
);
}
);
width = 745;
}
);
unicode = "0056,0076";
},
{
color = 3;
glyphname = W;
lastChange = "2020-07-22 13:19:04 +0000";
layers = (
{
anchors = (
{
name = bottom;
position = "{459, 0}";
},
{
name = top;
position = "{459, 760}";
}
);
background = {
paths = (
{
closed = 1;
nodes = (
"714 454 LINE",
"797 454 LINE",
"797 760 LINE",
"714 760 LINE"
);
},
{
closed = 1;
nodes = (
"171 500 LINE",
"797 500 LINE",
"797 575 LINE",
"171 575 LINE"
);
},
{
closed = 1;
nodes = (
"254 760 LINE",
"171 760 LINE",
"171 0 LINE",
"254 0 LINE"
);
},
{
closed = 1;
nodes = (
"171 0 LINE",
"426 0 LINE",
"426 75 LINE",
"171 75 LINE"
);
},
{
closed = 1;
nodes = (
"497 575 LINE",
"414 575 LINE",
"414 93 LINE",
"497 93 LINE"
);
},
{
closed = 1;
nodes = (
"647 575 LINE",
"564 575 LINE",
"564 277 LINE",
"647 277 LINE"
);
},
{
closed = 1;
nodes = (
"426 0 LINE",
"797 454 LINE",
"736 498 LINE",
"366 46 LINE"
);
}
);
};
layerId = "C60226DB-E4D3-4E89-B452-CA8BAB7E3EC0";
paths = (
{
closed = 1;
nodes = (
"173 760 LINE",
"90 760 LINE",
"90 0 LINE",
"173 0 LINE"
);
},
{
closed = 1;
nodes = (
"426 75 LINE",
"90 75 LINE",
"90 0 LINE",
"426 0 LINE"
);
},
{
closed = 1;
nodes = (
"714 400 LINE",
"797 454 LINE",
"797 760 LINE",
"714 760 LINE"
);
},
{
closed = 1;
nodes = (
"414 0 LINE",
"497 115 LINE",
"497 760 LINE",
"414 760 LINE"
);
},
{
closed = 1;
nodes = (
"564 230 LINE",
"647 310 LINE",
"647 760 LINE",
"564 760 LINE"
);
},
{
closed = 1;
nodes = (
"426 0 LINE",
"797 454 LINE",
"736 498 LINE",
"367 47 LINE"
);
}
);
width = 862;
},
{
associatedMasterId = "C60226DB-E4D3-4E89-B452-CA8BAB7E3EC0";
layerId = "AA03E0D3-1253-46B2-AD00-8FF8D9081B5C";
name = "Apr 14 20, 23:06";
width = 740;
},
{
associatedMasterId = "C60226DB-E4D3-4E89-B452-CA8BAB7E3EC0";
layerId = "83E02435-DAA0-4E9D-AD39-CB9942E81828";
name = "Apr 15 20, 15:45";
width = 740;
},
{
associatedMasterId = "C60226DB-E4D3-4E89-B452-CA8BAB7E3EC0";
layerId = "660FD8E0-E31C-493C-8864-354F190692E4";
name = "Apr 16 20, 17:24";
paths = (
{
closed = 1;
nodes = (
"730 0 LINE",
"730 760 LINE",
"647 760 LINE",
"647 0 LINE"
);
},
{
closed = 1;
nodes = (
"730 0 LINE",
"730 73 LINE",
"95 73 LINE",
"95 0 LINE"
);
},
{
closed = 1;
nodes = (
"95 760 LINE",
"95 0 LINE",
"178 0 LINE",
"178 760 LINE"
);
},
{
closed = 1;
nodes = (
"371 760 LINE",
"371 160 LINE",
"454 160 LINE",
"454 760 LINE"
);
},
{
closed = 1;
nodes = (
"233 760 LINE",
"233 0 LINE",
"316 0 LINE",
"316 760 LINE"
);
},
{
closed = 1;
nodes = (
"469 11 LINE",
"529 53 LINE",
"165 573 LINE",
"105 531 LINE"
);
}
);
width = 825;
},
{
associatedMasterId = "C60226DB-E4D3-4E89-B452-CA8BAB7E3EC0";
background = {
paths = (
{
closed = 1;
nodes = (
"682 450 LINE",
"765 450 LINE",
"765 760 LINE",
"682 760 LINE"
);
},
{
closed = 1;
nodes = (
"135 501 LINE",
"741 501 LINE",
"741 574 LINE",
"135 574 LINE"
);
},
{
closed = 1;
nodes = (
"218 760 LINE",
"135 760 LINE",
"135 0 LINE",
"218 0 LINE"
);
},
{
closed = 1;
nodes = (
"135 0 LINE",
"397 0 LINE",
"397 73 LINE",
"135 73 LINE"
);
},
{
closed = 1;
nodes = (
"471 574 LINE",
"388 574 LINE",
"388 93 LINE",
"471 93 LINE"
);
},
{
closed = 1;
nodes = (
"618 574 LINE",
"535 574 LINE",
"535 277 LINE",
"618 277 LINE"
);
},
{
closed = 1;
nodes = (
"397 0 LINE",
"765 450 LINE",
"708 495 LINE",
"340 45 LINE"
);
}
);
};
layerId = "499D4EC8-BF0A-420B-8EF8-7F3BE8E1CC8B";
name = "Apr 23 20, 23:13";
paths = (
{
closed = 1;
nodes = (
"178 760 LINE",
"95 760 LINE",
"95 0 LINE",
"178 0 LINE"
);
},
{
closed = 1;
nodes = (
"398 73 LINE",
"95 73 LINE",
"95 0 LINE",
"398 0 LINE"
);
},
{
closed = 1;
nodes = (
"683 450 LINE",
"766 450 LINE",
"766 760 LINE",
"683 760 LINE"
);
},
{
closed = 1;
nodes = (
"389 84 LINE",
"472 104 LINE",
"472 760 LINE",
"389 760 LINE"
);
},
{
closed = 1;
nodes = (
"536 274 LINE",
"619 274 LINE",
"619 760 LINE",
"536 760 LINE"
);
},
{
closed = 1;
nodes = (
"398 0 LINE",
"766 450 LINE",
"709 495 LINE",
"341 45 LINE"
);
},
{
closed = 1;
nodes = (
"95 501 LINE",
"766 501 LINE",
"766 574 LINE",
"95 574 LINE"
);
}
);
width = 861;
}
);
unicode = "0057,0077";
},
{
color = 3;
glyphname = X;
lastChange = "2020-07-16 13:25:50 +0000";
layers = (
{
anchors = (
{
name = bottom;
position = "{403, 0}";
},
{
name = top;
position = "{403, 760}";
}
);
layerId = "C60226DB-E4D3-4E89-B452-CA8BAB7E3EC0";
paths = (
{
closed = 1;
nodes = (
"715 0 LINE",
"194 760 LINE",
"94 760 LINE",
"615 0 LINE"
);
},
{
closed = 1;
nodes = (
"369 397 LINE",
"90 0 LINE",
"182 0 LINE",
"417 334 LINE"
);
},
{
closed = 1;
nodes = (
"433 367 LINE",
"709 760 LINE",
"617 760 LINE",
"385 429 LINE"
);
},
{
closed = 1;
nodes = (
"65 0 LINE",
"740 0 LINE",
"740 75 LINE",
"65 75 LINE"
);
},
{
closed = 1;
nodes = (
"65 685 LINE",
"740 685 LINE",
"740 760 LINE",
"65 760 LINE"
);
}
);
width = 805;
},
{
associatedMasterId = "C60226DB-E4D3-4E89-B452-CA8BAB7E3EC0";
layerId = "E25DB1E5-A1F8-42DC-8C29-C517D0FDE2E3";
name = "Apr 14 20, 23:06";
width = 740;
},
{
associatedMasterId = "C60226DB-E4D3-4E89-B452-CA8BAB7E3EC0";
layerId = "1708B6DA-BF43-4D39-A2AA-4B7A6076FF86";
name = "Apr 15 20, 15:45";
width = 740;
},
{
associatedMasterId = "C60226DB-E4D3-4E89-B452-CA8BAB7E3EC0";
layerId = "12286828-1DB1-4622-A1B3-FB915C0DC4AB";
name = "Apr 16 20, 17:24";
paths = (
{
closed = 1;
nodes = (
"178 760 LINE",
"95 760 LINE",
"95 0 LINE",
"178 0 LINE"
);
},
{
closed = 1;
nodes = (
"614 0 LINE",
"697 0 LINE",
"697 760 LINE",
"614 760 LINE"
);
},
{
closed = 1;
nodes = (
"276 760 LINE",
"95 760 LINE",
"95 687 LINE",
"276 687 LINE"
);
},
{
closed = 1;
nodes = (
"276 73 LINE",
"95 73 LINE",
"95 0 LINE",
"276 0 LINE"
);
},
{
closed = 1;
nodes = (
"697 760 LINE",
"516 760 LINE",
"516 687 LINE",
"697 687 LINE"
);
},
{
closed = 1;
nodes = (
"697 73 LINE",
"516 73 LINE",
"516 0 LINE",
"697 0 LINE"
);
},
{
closed = 1;
nodes = (
"594 0 LINE",
"283 760 LINE",
"195 760 LINE",
"505 0 LINE"
);
},
{
closed = 1;
nodes = (
"363 388 LINE",
"202 0 LINE",
"280 0 LINE",
"406 297 LINE"
);
},
{
closed = 1;
nodes = (
"425 362 LINE",
"590 760 LINE",
"513 760 LINE",
"384 456 LINE"
);
}
);
width = 792;
},
{
associatedMasterId = "C60226DB-E4D3-4E89-B452-CA8BAB7E3EC0";
layerId = "860B80DC-28F8-4BC3-9ACD-55BF915BA807";
name = "Apr 21 20, 00:57";
paths = (
{
closed = 1;
nodes = (
"178 760 LINE",
"95 760 LINE",
"95 0 LINE",
"178 0 LINE"
);
},
{
closed = 1;
nodes = (
"614 0 LINE",
"697 0 LINE",
"697 760 LINE",
"614 760 LINE"
);
},
{
closed = 1;
nodes = (
"276 760 LINE",
"95 760 LINE",
"95 687 LINE",
"276 687 LINE"
);
},
{
closed = 1;
nodes = (
"276 73 LINE",
"95 73 LINE",
"95 0 LINE",
"276 0 LINE"
);
},
{
closed = 1;
nodes = (
"697 760 LINE",
"516 760 LINE",
"516 687 LINE",
"697 687 LINE"
);
},
{
closed = 1;
nodes = (
"697 73 LINE",
"516 73 LINE",
"516 0 LINE",
"697 0 LINE"
);
},
{
closed = 1;
nodes = (
"594 0 LINE",
"283 760 LINE",
"195 760 LINE",
"505 0 LINE"
);
},
{
closed = 1;
nodes = (
"363 388 LINE",
"202 0 LINE",
"280 0 LINE",
"406 297 LINE"
);
},
{
closed = 1;
nodes = (
"425 362 LINE",
"590 760 LINE",
"513 760 LINE",
"384 456 LINE"
);
}
);
width = 792;
},
{
associatedMasterId = "C60226DB-E4D3-4E89-B452-CA8BAB7E3EC0";
background = {
paths = (
{
closed = 1;
nodes = (
"713 0 LINE",
"215 760 LINE",
"117 760 LINE",
"614 0 LINE"
);
},
{
closed = 1;
nodes = (
"379 394 LINE",
"112 0 LINE",
"201 0 LINE",
"422 327 LINE"
);
},
{
closed = 1;
nodes = (
"441 366 LINE",
"708 760 LINE",
"620 760 LINE",
"398 432 LINE"
);
}
);
};
layerId = "F1F8DA21-DEA4-4023-B35F-BBD0954C419F";
name = "Apr 23 20, 15:55";
paths = (
{
closed = 1;
nodes = (
"713 0 LINE",
"215 760 LINE",
"117 760 LINE",
"614 0 LINE"
);
},
{
closed = 1;
nodes = (
"379 394 LINE",
"112 0 LINE",
"201 0 LINE",
"424 329 LINE"
);
},
{
closed = 1;
nodes = (
"442 367 LINE",
"708 760 LINE",
"620 760 LINE",
"398 432 LINE"
);
},
{
closed = 1;
nodes = (
"60 0 LINE",
"765 0 LINE",
"765 73 LINE",
"60 73 LINE"
);
},
{
closed = 1;
nodes = (
"65 687 LINE",
"760 687 LINE",
"760 760 LINE",
"65 760 LINE"
);
}
);
width = 825;
}
);
unicode = "0058,0078";
},
{
color = 3;
glyphname = Y;
lastChange = "2020-07-16 22:03:47 +0000";
layers = (
{
anchors = (
{
name = bottom;
position = "{434, 4}";
},
{
name = top;
position = "{434, 756}";
},
{
name = topleft;
position = "{34, 756}";
}
);
layerId = "C60226DB-E4D3-4E89-B452-CA8BAB7E3EC0";
paths = (
{
closed = 1;
nodes = (
"823 682 LINE",
"823 756 LINE",
"44 756 LINE",
"44 682 LINE",
"113 682 LINE",
"395 231 LINE",
"472 231 LINE",
"754 682 LINE"
);
},
{
closed = 1;
nodes = (
"438 310 LINE",
"210 682 LINE",
"666 682 LINE"
);
},
{
closed = 1;
nodes = (
"392 4 LINE",
"475 4 LINE",
"475 756 LINE",
"392 756 LINE"
);
}
);
width = 867;
},
{
associatedMasterId = "C60226DB-E4D3-4E89-B452-CA8BAB7E3EC0";
layerId = "B78FCD57-0509-42F2-8181-E2B46E212D45";
name = "Apr 27 20, 22:30";
paths = (
{
closed = 1;
nodes = (
"60 760 LINE",
"60 550 LINE",
"143 550 LINE",
"143 760 LINE"
);
},
{
closed = 1;
nodes = (
"660 0 LINE",
"660 760 LINE",
"577 760 LINE",
"577 0 LINE"
);
},
{
closed = 1;
nodes = (
"298 332 LINE",
"298 259 LINE",
"660 259 LINE",
"660 332 LINE"
);
},
{
closed = 1;
nodes = (
"117 595 LINE",
"60 550 LINE",
"298 259 LINE",
"392 259 LINE"
);
},
{
closed = 1;
nodes = (
"290 379 LINE",
"290 760 LINE",
"207 760 LINE",
"207 379 LINE"
);
},
{
closed = 1;
nodes = (
"437 303 LINE",
"437 760 LINE",
"354 760 LINE",
"354 303 LINE"
);
}
);
width = 745;
}
);
unicode = "0059,0079";
},
{
color = 3;
glyphname = Z;
lastChange = "2020-07-16 13:25:50 +0000";
layers = (
{
anchors = (
{
name = bottom;
position = "{370, 0}";
},
{
name = top;
position = "{370, 760}";
}
);
layerId = "C60226DB-E4D3-4E89-B452-CA8BAB7E3EC0";
paths = (
{
closed = 1;
nodes = (
"587 610 LINE",
"670 610 LINE",
"670 760 LINE",
"587 760 LINE"
);
},
{
closed = 1;
nodes = (
"158 152 LINE",
"75 152 LINE",
"75 0 LINE",
"158 0 LINE"
);
},
{
closed = 1;
nodes = (
"75 0 LINE",
"675 0 LINE",
"675 75 LINE",
"75 75 LINE"
);
},
{
closed = 1;
nodes = (
"133 101 LINE",
"670 610 LINE",
"606 655 LINE",
"75 152 LINE"
);
},
{
closed = 1;
nodes = (
"80 685 LINE",
"670 685 LINE",
"670 760 LINE",
"80 760 LINE"
);
},
{
closed = 1;
nodes = (
"330 0 LINE",
"413 0 LINE",
"413 760 LINE",
"330 760 LINE"
);
}
);
width = 740;
},
{
associatedMasterId = "C60226DB-E4D3-4E89-B452-CA8BAB7E3EC0";
layerId = "477F6F2D-A91D-4E0E-85B7-8B66977812D9";
name = "Apr 14 20, 23:06";
width = 740;
},
{
associatedMasterId = "C60226DB-E4D3-4E89-B452-CA8BAB7E3EC0";
layerId = "78282E0E-3796-490C-B087-AEFA725D84EC";
name = "Apr 15 20, 15:45";
width = 740;
},
{
associatedMasterId = "C60226DB-E4D3-4E89-B452-CA8BAB7E3EC0";
layerId = "C144CFD8-37D9-4A65-8D54-D60C1C0B6ABE";
name = "Apr 16 20, 17:24";
paths = (
{
closed = 1;
nodes = (
"610 760 LINE",
"90 760 LINE",
"90 687 LINE",
"610 687 LINE"
);
},
{
closed = 1;
nodes = (
"610 73 LINE",
"90 73 LINE",
"90 0 LINE",
"610 0 LINE"
);
},
{
closed = 1;
nodes = (
"527 0 LINE",
"610 0 LINE",
"610 232 LINE",
"527 232 LINE"
);
},
{
closed = 1;
nodes = (
"90 0 LINE",
"173 0 LINE",
"173 237 LINE",
"90 237 LINE"
);
},
{
closed = 1;
nodes = (
"153 194 LINE",
"610 687 LINE",
"554 737 LINE",
"90 237 LINE"
);
},
{
closed = 1;
nodes = (
"610 237 LINE",
"90 237 LINE",
"90 164 LINE",
"610 164 LINE"
);
}
);
width = 700;
},
{
associatedMasterId = "C60226DB-E4D3-4E89-B452-CA8BAB7E3EC0";
layerId = "50CD6AB7-79E0-46CF-9D7B-51CDD6D7ABE3";
name = "Apr 21 20, 00:57";
paths = (
{
closed = 1;
nodes = (
"610 760 LINE",
"90 760 LINE",
"90 687 LINE",
"610 687 LINE"
);
},
{
closed = 1;
nodes = (
"610 73 LINE",
"90 73 LINE",
"90 0 LINE",
"610 0 LINE"
);
},
{
closed = 1;
nodes = (
"527 0 LINE",
"610 0 LINE",
"610 232 LINE",
"527 232 LINE"
);
},
{
closed = 1;
nodes = (
"90 0 LINE",
"173 0 LINE",
"173 237 LINE",
"90 237 LINE"
);
},
{
closed = 1;
nodes = (
"153 194 LINE",
"610 687 LINE",
"554 737 LINE",
"90 237 LINE"
);
},
{
closed = 1;
nodes = (
"610 237 LINE",
"90 237 LINE",
"90 164 LINE",
"610 164 LINE"
);
}
);
width = 700;
},
{
associatedMasterId = "C60226DB-E4D3-4E89-B452-CA8BAB7E3EC0";
layerId = "0AC7433F-EAB9-4969-A61E-4E043351144D";
name = "Apr 23 20, 14:36";
paths = (
{
closed = 1;
nodes = (
"620 760 LINE",
"70 760 LINE",
"70 687 LINE",
"620 687 LINE"
);
},
{
closed = 1;
nodes = (
"630 73 LINE",
"70 73 LINE",
"70 0 LINE",
"630 0 LINE"
);
},
{
closed = 1;
nodes = (
"547 0 LINE",
"630 0 LINE",
"630 400 LINE",
"547 400 LINE"
);
},
{
closed = 1;
nodes = (
"70 0 LINE",
"153 0 LINE",
"153 237 LINE",
"70 237 LINE"
);
},
{
closed = 1;
nodes = (
"133 194 LINE",
"620 687 LINE",
"564 737 LINE",
"70 237 LINE"
);
},
{
closed = 1;
nodes = (
"630 400 LINE",
"240 400 LINE",
"240 327 LINE",
"630 327 LINE"
);
},
{
closed = 1;
nodes = (
"483 0 LINE",
"483 400 LINE",
"400 400 LINE",
"400 0 LINE"
);
}
);
width = 710;
}
);
unicode = "005A,007A";
},
{
color = 3;
glyphname = germandbls;
lastChange = "2020-07-16 13:13:55 +0000";
layers = (
{
background = {
components = (
{
name = B;
transform = "{1, 0, 0, 1, 26, 0}";
}
);
};
layerId = "C60226DB-E4D3-4E89-B452-CA8BAB7E3EC0";
paths = (
{
closed = 1;
nodes = (
"323 760 LINE",
"240 760 LINE",
"240 0 LINE",
"323 0 LINE"
);
},
{
closed = 1;
nodes = (
"438 414 LINE",
"724 414 LINE",
"724 489 LINE",
"438 489 LINE"
);
},
{
closed = 1;
nodes = (
"683 760 LINE",
"90 760 LINE",
"90 685 LINE",
"683 685 LINE"
);
},
{
closed = 1;
nodes = (
"390 75 LINE",
"390 0 LINE",
"724 0 LINE",
"724 75 LINE"
);
},
{
closed = 1;
nodes = (
"724 489 LINE",
"641 489 LINE",
"641 0 LINE",
"724 0 LINE"
);
},
{
closed = 1;
nodes = (
"173 760 LINE",
"90 760 LINE",
"90 0 LINE",
"173 0 LINE"
);
},
{
closed = 1;
nodes = (
"683 760 LINE",
"600 760 LINE",
"600 635 LINE",
"683 635 LINE"
);
},
{
closed = 1;
nodes = (
"521 537 LINE",
"438 537 LINE",
"438 414 LINE",
"521 414 LINE"
);
},
{
closed = 1;
nodes = (
"657 711 LINE",
"438 537 LINE",
"444 443 LINE",
"683 635 LINE"
);
}
);
width = 799;
},
{
associatedMasterId = "C60226DB-E4D3-4E89-B452-CA8BAB7E3EC0";
background = {
components = (
{
name = B;
}
);
};
layerId = "BFB61738-4301-4A43-9ED5-70C173F533F8";
name = "Jul 16 20, 12:10";
paths = (
{
closed = 1;
nodes = (
"323 760 LINE",
"240 760 LINE",
"240 0 LINE",
"323 0 LINE"
);
},
{
closed = 1;
nodes = (
"435 414 LINE",
"728 414 LINE",
"728 489 LINE",
"435 489 LINE"
);
},
{
closed = 1;
nodes = (
"680 760 LINE",
"90 760 LINE",
"90 685 LINE",
"680 685 LINE"
);
},
{
closed = 1;
nodes = (
"390 75 LINE",
"390 0 LINE",
"728 0 LINE",
"728 75 LINE"
);
},
{
closed = 1;
nodes = (
"728 489 LINE",
"645 489 LINE",
"645 0 LINE",
"728 0 LINE"
);
},
{
closed = 1;
nodes = (
"173 760 LINE",
"90 760 LINE",
"90 0 LINE",
"173 0 LINE"
);
},
{
closed = 1;
nodes = (
"680 760 LINE",
"597 760 LINE",
"597 655 LINE",
"680 655 LINE"
);
},
{
closed = 1;
nodes = (
"518 518 LINE",
"435 518 LINE",
"435 414 LINE",
"518 414 LINE"
);
},
{
closed = 1;
nodes = (
"695 744 LINE",
"414 520 LINE",
"441 443 LINE",
"695 647 LINE"
);
}
);
width = 750;
}
);
leftMetricsKey = B;
rightMetricsKey = B;
unicode = 00DF;
},
{
color = 3;
glyphname = ordmasculine;
lastChange = "2020-07-16 13:13:55 +0000";
layers = (
{
background = {
components = (
{
name = degree;
transform = "{1, 0, 0, 1, -10, 0}";
}
);
};
layerId = "C60226DB-E4D3-4E89-B452-CA8BAB7E3EC0";
paths = (
{
closed = 1;
nodes = (
"307 470 LINE",
"390 470 LINE",
"390 760 LINE",
"307 760 LINE"
);
},
{
closed = 1;
nodes = (
"173 760 LINE",
"90 760 LINE",
"90 470 LINE",
"173 470 LINE"
);
},
{
closed = 1;
nodes = (
"90 470 LINE",
"390 470 LINE",
"390 545 LINE",
"90 545 LINE"
);
},
{
closed = 1;
nodes = (
"90 685 LINE",
"390 685 LINE",
"390 760 LINE",
"90 760 LINE"
);
},
{
closed = 1;
nodes = (
"90 390 LINE",
"90 315 LINE",
"390 315 LINE",
"390 390 LINE"
);
}
);
width = 480;
}
);
unicode = 00BA;
},
{
color = 3;
glyphname = zero;
lastChange = "2020-07-16 13:13:55 +0000";
layers = (
{
layerId = "C60226DB-E4D3-4E89-B452-CA8BAB7E3EC0";
paths = (
{
closed = 1;
nodes = (
"75 760 LINE",
"75 0 LINE",
"158 0 LINE",
"158 760 LINE"
);
},
{
closed = 1;
nodes = (
"75 760 LINE",
"75 685 LINE",
"625 685 LINE",
"625 760 LINE"
);
},
{
closed = 1;
nodes = (
"625 0 LINE",
"625 760 LINE",
"542 760 LINE",
"542 0 LINE"
);
},
{
closed = 1;
nodes = (
"75 75 LINE",
"75 0 LINE",
"625 0 LINE",
"625 75 LINE"
);
},
{
closed = 1;
nodes = (
"440 716 LINE",
"184 48 LINE",
"269 46 LINE",
"525 715 LINE"
);
}
);
width = 700;
}
);
unicode = 0030;
},
{
color = 3;
glyphname = one;
lastChange = "2020-07-16 13:13:55 +0000";
layers = (
{
layerId = "C60226DB-E4D3-4E89-B452-CA8BAB7E3EC0";
paths = (
{
closed = 1;
nodes = (
"60 685 LINE",
"550 685 LINE",
"550 760 LINE",
"60 760 LINE"
);
},
{
closed = 1;
nodes = (
"343 595 LINE",
"260 595 LINE",
"260 0 LINE",
"343 0 LINE"
);
},
{
closed = 1;
nodes = (
"550 760 LINE",
"467 760 LINE",
"467 0 LINE",
"550 0 LINE"
);
},
{
closed = 1;
nodes = (
"130 0 LINE",
"670 0 LINE",
"670 75 LINE",
"130 75 LINE"
);
},
{
closed = 1;
nodes = (
"474 292 LINE",
"528 359 LINE",
"235 747 LINE",
"165 701 LINE"
);
}
);
width = 700;
},
{
associatedMasterId = "C60226DB-E4D3-4E89-B452-CA8BAB7E3EC0";
layerId = "E225C21A-06F1-412E-AF69-AC43FDA64930";
name = "1";
paths = (
{
closed = 1;
nodes = (
"319 760 LINE",
"319 687 LINE",
"547 687 LINE",
"547 760 LINE"
);
},
{
closed = 1;
nodes = (
"547 0 LINE",
"547 760 LINE",
"464 760 LINE",
"464 0 LINE"
);
},
{
closed = 1;
nodes = (
"217 575 LINE",
"217 500 LINE",
"547 500 LINE",
"547 575 LINE"
);
},
{
closed = 1;
nodes = (
"133 369 LINE",
"373 712 LINE",
"319 760 LINE",
"45 369 LINE"
);
}
);
width = 642;
}
);
unicode = 0031;
},
{
color = 3;
glyphname = two;
lastChange = "2020-07-16 13:13:55 +0000";
layers = (
{
layerId = "C60226DB-E4D3-4E89-B452-CA8BAB7E3EC0";
paths = (
{
closed = 1;
nodes = (
"85 529 LINE",
"85 0 LINE",
"168 0 LINE",
"168 529 LINE"
);
},
{
closed = 1;
nodes = (
"85 760 LINE",
"85 685 LINE",
"625 685 LINE",
"625 760 LINE"
);
},
{
closed = 1;
nodes = (
"625 454 LINE",
"625 760 LINE",
"542 760 LINE",
"542 454 LINE"
);
},
{
closed = 1;
nodes = (
"85 529 LINE",
"85 454 LINE",
"625 454 LINE",
"625 529 LINE"
);
},
{
closed = 1;
nodes = (
"375 180 LINE",
"375 529 LINE",
"292 529 LINE",
"292 180 LINE"
);
},
{
closed = 1;
nodes = (
"85 0 LINE",
"625 0 LINE",
"625 75 LINE",
"85 75 LINE"
);
},
{
closed = 1;
nodes = (
"152 456 LINE",
"91 397 LINE",
"416 2 LINE",
"479 56 LINE"
);
}
);
width = 700;
}
);
unicode = 0032;
},
{
color = 3;
glyphname = three;
lastChange = "2020-07-16 13:13:55 +0000";
layers = (
{
layerId = "C60226DB-E4D3-4E89-B452-CA8BAB7E3EC0";
paths = (
{
closed = 1;
nodes = (
"80 685 LINE",
"610 685 LINE",
"610 760 LINE",
"80 760 LINE"
);
},
{
closed = 1;
nodes = (
"403 760 LINE",
"320 760 LINE",
"320 162 LINE",
"403 162 LINE"
);
},
{
closed = 1;
nodes = (
"610 760 LINE",
"527 760 LINE",
"527 0 LINE",
"610 0 LINE"
);
},
{
closed = 1;
nodes = (
"80 0 LINE",
"610 0 LINE",
"610 75 LINE",
"80 75 LINE"
);
},
{
closed = 1;
nodes = (
"90 529 LINE",
"90 454 LINE",
"610 454 LINE",
"610 529 LINE"
);
},
{
closed = 1;
nodes = (
"273 0 LINE",
"596 395 LINE",
"550 458 LINE",
"216 50 LINE"
);
}
);
width = 700;
}
);
unicode = 0033;
},
{
color = 3;
glyphname = four;
lastChange = "2020-07-22 13:20:41 +0000";
layers = (
{
layerId = "C60226DB-E4D3-4E89-B452-CA8BAB7E3EC0";
paths = (
{
closed = 1;
nodes = (
"312 760 LINE",
"312 685 LINE",
"549 685 LINE",
"549 760 LINE"
);
},
{
closed = 1;
nodes = (
"549 0 LINE",
"549 760 LINE",
"466 760 LINE",
"466 0 LINE"
);
},
{
closed = 1;
nodes = (
"249 575 LINE",
"249 500 LINE",
"549 500 LINE",
"549 575 LINE"
);
},
{
closed = 1;
nodes = (
"131 255 LINE",
"374 720 LINE",
"312 760 LINE",
"65 287 LINE",
"65 255 LINE"
);
},
{
closed = 1;
nodes = (
"650 287 LINE",
"65 287 LINE",
"65 212 LINE",
"650 212 LINE"
);
}
);
width = 700;
}
);
unicode = 0034;
},
{
color = 3;
glyphname = five;
lastChange = "2020-07-16 13:13:55 +0000";
layers = (
{
layerId = "C60226DB-E4D3-4E89-B452-CA8BAB7E3EC0";
paths = (
{
closed = 1;
nodes = (
"532 0 LINE",
"615 0 LINE",
"615 529 LINE",
"532 529 LINE"
);
},
{
closed = 1;
nodes = (
"75 685 LINE",
"615 685 LINE",
"615 760 LINE",
"75 760 LINE"
);
},
{
closed = 1;
nodes = (
"158 760 LINE",
"75 760 LINE",
"75 454 LINE",
"158 454 LINE"
);
},
{
closed = 1;
nodes = (
"75 454 LINE",
"615 454 LINE",
"615 529 LINE",
"75 529 LINE"
);
},
{
closed = 1;
nodes = (
"408 529 LINE",
"325 529 LINE",
"325 162 LINE",
"408 162 LINE"
);
},
{
closed = 1;
nodes = (
"75 75 LINE",
"75 0 LINE",
"615 0 LINE",
"615 75 LINE"
);
},
{
closed = 1;
nodes = (
"278 0 LINE",
"601 395 LINE",
"555 458 LINE",
"221 50 LINE"
);
}
);
width = 700;
}
);
unicode = 0035;
},
{
color = 3;
glyphname = six;
lastChange = "2020-07-16 13:13:55 +0000";
layers = (
{
layerId = "C60226DB-E4D3-4E89-B452-CA8BAB7E3EC0";
paths = (
{
closed = 1;
nodes = (
"173 760 LINE",
"90 760 LINE",
"90 0 LINE",
"173 0 LINE"
);
},
{
closed = 1;
nodes = (
"620 75 LINE",
"90 75 LINE",
"90 0 LINE",
"620 0 LINE"
);
},
{
closed = 1;
nodes = (
"537 0 LINE",
"620 0 LINE",
"620 367 LINE",
"537 367 LINE"
);
},
{
closed = 1;
nodes = (
"620 367 LINE",
"90 367 LINE",
"90 292 LINE",
"620 292 LINE"
);
},
{
closed = 1;
nodes = (
"297 292 LINE",
"380 292 LINE",
"380 727 LINE",
"297 617 LINE"
);
},
{
closed = 1;
nodes = (
"625 685 LINE",
"625 760 LINE",
"90 760 LINE",
"90 685 LINE"
);
},
{
closed = 1;
nodes = (
"378 760 LINE",
"104 368 LINE",
"150 303 LINE",
"435 710 LINE"
);
}
);
width = 700;
}
);
unicode = 0036;
},
{
color = 3;
glyphname = seven;
lastChange = "2020-07-22 13:20:43 +0000";
layers = (
{
layerId = "C60226DB-E4D3-4E89-B452-CA8BAB7E3EC0";
paths = (
{
closed = 1;
nodes = (
"547 580 LINE",
"630 580 LINE",
"630 760 LINE",
"547 760 LINE"
);
},
{
closed = 1;
nodes = (
"72 685 LINE",
"630 685 LINE",
"630 760 LINE",
"72 760 LINE"
);
},
{
closed = 1;
nodes = (
"300 253 LINE",
"383 253 LINE",
"383 760 LINE",
"300 760 LINE"
);
},
{
closed = 1;
nodes = (
"197 0 LINE",
"630 580 LINE",
"558 611 LINE",
"102 0 LINE"
);
}
);
width = 700;
},
{
associatedMasterId = "C60226DB-E4D3-4E89-B452-CA8BAB7E3EC0";
layerId = "46AFA82E-F85F-4236-96A1-165F503B47AD";
name = "Apr 27 20, 23:28";
paths = (
{
closed = 1;
nodes = (
"610 0 LINE",
"610 73 LINE",
"320 73 LINE",
"320 0 LINE"
);
},
{
closed = 1;
nodes = (
"320 600 LINE",
"320 0 LINE",
"403 0 LINE",
"403 600 LINE"
);
},
{
closed = 1;
nodes = (
"527 760 LINE",
"527 0 LINE",
"610 0 LINE",
"610 760 LINE"
);
},
{
closed = 1;
nodes = (
"610 687 LINE",
"610 760 LINE",
"50 760 LINE",
"50 687 LINE"
);
},
{
closed = 1;
nodes = (
"552 291 LINE",
"609 349 LINE",
"273 760 LINE",
"202 718 LINE"
);
}
);
width = 705;
}
);
unicode = 0037;
},
{
color = 3;
glyphname = eight;
lastChange = "2020-07-16 13:13:55 +0000";
layers = (
{
layerId = "C60226DB-E4D3-4E89-B452-CA8BAB7E3EC0";
paths = (
{
closed = 1;
nodes = (
"537 620 LINE",
"620 620 LINE",
"620 760 LINE",
"537 760 LINE"
);
},
{
closed = 1;
nodes = (
"163 142 LINE",
"80 142 LINE",
"80 0 LINE",
"163 0 LINE"
);
},
{
closed = 1;
nodes = (
"80 0 LINE",
"620 0 LINE",
"620 75 LINE",
"80 75 LINE"
);
},
{
closed = 1;
nodes = (
"138 95 LINE",
"620 620 LINE",
"557 660 LINE",
"80 142 LINE"
);
},
{
closed = 1;
nodes = (
"80 685 LINE",
"620 685 LINE",
"620 760 LINE",
"80 760 LINE"
);
},
{
closed = 1;
nodes = (
"80 377 LINE",
"620 377 LINE",
"620 452 LINE",
"80 452 LINE"
);
},
{
closed = 1;
nodes = (
"620 452 LINE",
"537 452 LINE",
"537 0 LINE",
"620 0 LINE"
);
},
{
closed = 1;
nodes = (
"163 760 LINE",
"80 760 LINE",
"80 377 LINE",
"163 377 LINE"
);
}
);
width = 700;
}
);
unicode = 0038;
},
{
color = 3;
glyphname = nine;
lastChange = "2020-07-16 13:13:55 +0000";
layers = (
{
layerId = "C60226DB-E4D3-4E89-B452-CA8BAB7E3EC0";
paths = (
{
closed = 1;
nodes = (
"527 0 LINE",
"610 0 LINE",
"610 760 LINE",
"527 760 LINE"
);
},
{
closed = 1;
nodes = (
"80 685 LINE",
"610 685 LINE",
"610 760 LINE",
"80 760 LINE"
);
},
{
closed = 1;
nodes = (
"163 760 LINE",
"80 760 LINE",
"80 393 LINE",
"163 393 LINE"
);
},
{
closed = 1;
nodes = (
"80 393 LINE",
"610 393 LINE",
"610 468 LINE",
"80 468 LINE"
);
},
{
closed = 1;
nodes = (
"403 468 LINE",
"320 468 LINE",
"320 33 LINE",
"403 143 LINE"
);
},
{
closed = 1;
nodes = (
"75 75 LINE",
"75 0 LINE",
"610 0 LINE",
"610 75 LINE"
);
},
{
closed = 1;
nodes = (
"322 0 LINE",
"596 392 LINE",
"550 457 LINE",
"265 50 LINE"
);
}
);
width = 700;
}
);
unicode = 0039;
},
{
color = 3;
glyphname = one.sansSerifBlackCircled;
lastChange = "2020-07-16 13:13:55 +0000";
layers = (
{
layerId = "C60226DB-E4D3-4E89-B452-CA8BAB7E3EC0";
paths = (
{
closed = 1;
nodes = (
"770 0 LINE",
"770 760 LINE",
"90 760 LINE",
"90 0 LINE"
);
},
{
closed = 1;
nodes = (
"627 180 LINE",
"627 131 LINE",
"273 131 LINE",
"273 180 LINE",
"358 180 LINE",
"358 507 LINE",
"303 580 LINE",
"227 580 LINE",
"227 629 LINE",
"548 629 LINE",
"548 180 LINE"
);
},
{
closed = 1;
nodes = (
"372 580 LINE",
"494 419 LINE",
"494 580 LINE"
);
},
{
closed = 1;
nodes = (
"494 180 LINE",
"494 329 LINE",
"412 436 LINE",
"412 180 LINE"
);
}
);
width = 860;
}
);
unicode = 278A;
},
{
color = 3;
glyphname = two.sansSerifBlackCircled;
lastChange = "2020-07-16 13:13:55 +0000";
layers = (
{
layerId = "C60226DB-E4D3-4E89-B452-CA8BAB7E3EC0";
paths = (
{
closed = 1;
nodes = (
"770 0 LINE",
"770 760 LINE",
"90 760 LINE",
"90 0 LINE"
);
},
{
closed = 1;
nodes = (
"612 429 LINE",
"448 429 LINE",
"448 250 LINE",
"505 180 LINE",
"612 180 LINE",
"612 131 LINE",
"258 131 LINE",
"258 478 LINE",
"557 478 LINE",
"557 580 LINE",
"258 580 LINE",
"258 629 LINE",
"612 629 LINE"
);
},
{
closed = 1;
nodes = (
"393 429 LINE",
"313 429 LINE",
"313 416 LINE",
"393 318 LINE"
);
},
{
closed = 1;
nodes = (
"436 180 LINE",
"313 329 LINE",
"313 180 LINE"
);
}
);
width = 860;
}
);
unicode = 278B;
},
{
color = 3;
glyphname = three.sansSerifBlackCircled;
lastChange = "2020-07-16 13:13:55 +0000";
layers = (
{
layerId = "C60226DB-E4D3-4E89-B452-CA8BAB7E3EC0";
paths = (
{
closed = 1;
nodes = (
"770 0 LINE",
"770 760 LINE",
"90 760 LINE",
"90 0 LINE"
);
},
{
closed = 1;
nodes = (
"609 131 LINE",
"261 131 LINE",
"261 180 LINE",
"364 180 LINE",
"419 247 LINE",
"419 429 LINE",
"268 429 LINE",
"268 478 LINE",
"419 478 LINE",
"419 580 LINE",
"261 580 LINE",
"261 629 LINE",
"609 629 LINE"
);
},
{
closed = 1;
nodes = (
"554 580 LINE",
"473 580 LINE",
"473 478 LINE",
"554 478 LINE"
);
},
{
closed = 1;
nodes = (
"473 314 LINE",
"554 413 LINE",
"554 429 LINE",
"473 429 LINE"
);
},
{
closed = 1;
nodes = (
"554 180 LINE",
"554 335 LINE",
"428 180 LINE"
);
}
);
width = 860;
}
);
unicode = 278C;
},
{
color = 3;
glyphname = four.sansSerifBlackCircled;
lastChange = "2020-07-16 13:13:55 +0000";
layers = (
{
layerId = "C60226DB-E4D3-4E89-B452-CA8BAB7E3EC0";
paths = (
{
closed = 1;
nodes = (
"770 0 LINE",
"770 760 LINE",
"90 760 LINE",
"90 0 LINE"
);
},
{
closed = 1;
nodes = (
"613 270 LINE",
"547 270 LINE",
"547 131 LINE",
"493 131 LINE",
"493 270 LINE",
"230 270 LINE",
"230 319 LINE",
"392 629 LINE",
"547 629 LINE",
"547 319 LINE",
"613 319 LINE"
);
},
{
closed = 1;
nodes = (
"493 580 LINE",
"421 580 LINE",
"383 508 LINE",
"493 508 LINE"
);
},
{
closed = 1;
nodes = (
"493 319 LINE",
"493 459 LINE",
"357 459 LINE",
"284 319 LINE"
);
}
);
width = 860;
}
);
unicode = 278D;
},
{
color = 3;
glyphname = five.sansSerifBlackCircled;
lastChange = "2020-07-16 13:13:55 +0000";
layers = (
{
layerId = "C60226DB-E4D3-4E89-B452-CA8BAB7E3EC0";
paths = (
{
closed = 1;
nodes = (
"770 0 LINE",
"770 760 LINE",
"90 760 LINE",
"90 0 LINE"
);
},
{
closed = 1;
nodes = (
"308 580 LINE",
"308 478 LINE",
"607 478 LINE",
"607 131 LINE",
"253 131 LINE",
"253 180 LINE",
"361 180 LINE",
"417 247 LINE",
"417 429 LINE",
"253 429 LINE",
"253 629 LINE",
"607 629 LINE",
"607 580 LINE"
);
},
{
closed = 1;
nodes = (
"472 429 LINE",
"472 313 LINE",
"552 413 LINE",
"552 429 LINE"
);
},
{
closed = 1;
nodes = (
"552 180 LINE",
"552 334 LINE",
"426 180 LINE"
);
}
);
width = 860;
}
);
unicode = 278E;
},
{
color = 3;
glyphname = six.sansSerifBlackCircled;
lastChange = "2020-07-16 13:13:55 +0000";
layers = (
{
layerId = "C60226DB-E4D3-4E89-B452-CA8BAB7E3EC0";
paths = (
{
closed = 1;
nodes = (
"770 0 LINE",
"770 760 LINE",
"90 760 LINE",
"90 0 LINE"
);
},
{
closed = 1;
nodes = (
"443 544 LINE",
"443 371 LINE",
"601 371 LINE",
"601 131 LINE",
"253 131 LINE",
"253 629 LINE",
"604 629 LINE",
"604 580 LINE",
"467 580 LINE"
);
},
{
closed = 1;
nodes = (
"308 580 LINE",
"308 437 LINE",
"407 580 LINE"
);
},
{
closed = 1;
nodes = (
"388 468 LINE",
"322 371 LINE",
"388 371 LINE"
);
},
{
closed = 1;
nodes = (
"308 322 LINE",
"308 180 LINE",
"546 180 LINE",
"546 322 LINE"
);
}
);
width = 860;
}
);
unicode = 278F;
},
{
color = 3;
glyphname = seven.sansSerifBlackCircled;
lastChange = "2020-07-16 13:13:55 +0000";
layers = (
{
layerId = "C60226DB-E4D3-4E89-B452-CA8BAB7E3EC0";
paths = (
{
closed = 1;
nodes = (
"770 0 LINE",
"770 760 LINE",
"90 760 LINE",
"90 0 LINE"
);
},
{
closed = 1;
nodes = (
"624 511 LINE",
"340 131 LINE",
"278 131 LINE",
"408 304 LINE",
"408 580 LINE",
"258 580 LINE",
"258 629 LINE",
"624 629 LINE"
);
},
{
closed = 1;
nodes = (
"569 580 LINE",
"462 580 LINE",
"462 378 LINE",
"569 521 LINE"
);
}
);
width = 860;
}
);
unicode = 2790;
},
{
color = 3;
glyphname = eight.sansSerifBlackCircled;
lastChange = "2020-07-16 13:13:55 +0000";
layers = (
{
layerId = "C60226DB-E4D3-4E89-B452-CA8BAB7E3EC0";
paths = (
{
closed = 1;
nodes = (
"770 0 LINE",
"770 760 LINE",
"90 760 LINE",
"90 0 LINE"
);
},
{
closed = 1;
nodes = (
"607 537 LINE",
"506 427 LINE",
"607 427 LINE",
"607 131 LINE",
"253 131 LINE",
"253 224 LINE",
"395 378 LINE",
"253 378 LINE",
"253 629 LINE",
"607 629 LINE"
);
},
{
closed = 1;
nodes = (
"552 580 LINE",
"308 580 LINE",
"308 427 LINE",
"440 427 LINE",
"552 548 LINE"
);
},
{
closed = 1;
nodes = (
"461 378 LINE",
"308 212 LINE",
"308 179 LINE",
"552 179 LINE",
"552 378 LINE"
);
}
);
width = 860;
}
);
unicode = 2791;
},
{
color = 3;
glyphname = nine.sansSerifBlackCircled;
lastChange = "2020-07-16 13:13:55 +0000";
layers = (
{
layerId = "C60226DB-E4D3-4E89-B452-CA8BAB7E3EC0";
paths = (
{
closed = 1;
nodes = (
"770 0 LINE",
"770 760 LINE",
"90 760 LINE",
"90 0 LINE"
);
},
{
closed = 1;
nodes = (
"417 216 LINE",
"417 389 LINE",
"259 389 LINE",
"259 629 LINE",
"607 629 LINE",
"607 131 LINE",
"256 131 LINE",
"256 180 LINE",
"393 180 LINE"
);
},
{
closed = 1;
nodes = (
"552 180 LINE",
"552 323 LINE",
"453 180 LINE"
);
},
{
closed = 1;
nodes = (
"472 292 LINE",
"538 389 LINE",
"472 389 LINE"
);
},
{
closed = 1;
nodes = (
"552 438 LINE",
"552 580 LINE",
"314 580 LINE",
"314 438 LINE"
);
}
);
width = 860;
}
);
unicode = 2792;
},
{
color = 3;
glyphname = zero.sansSerifBlackCircled;
lastChange = "2020-07-16 13:13:55 +0000";
layers = (
{
layerId = "C60226DB-E4D3-4E89-B452-CA8BAB7E3EC0";
paths = (
{
closed = 1;
nodes = (
"770 0 LINE",
"770 760 LINE",
"90 760 LINE",
"90 0 LINE"
);
},
{
closed = 1;
nodes = (
"610 131 LINE",
"250 131 LINE",
"250 629 LINE",
"610 629 LINE"
);
},
{
closed = 1;
nodes = (
"304 180 LINE",
"328 180 LINE",
"481 580 LINE",
"304 580 LINE"
);
},
{
closed = 1;
nodes = (
"556 580 LINE",
"537 580 LINE",
"384 180 LINE",
"556 180 LINE"
);
}
);
width = 860;
}
);
unicode = 1F10C;
},
{
color = 3;
glyphname = twosuperior;
lastChange = "2020-07-22 13:16:48 +0000";
layers = (
{
layerId = "C60226DB-E4D3-4E89-B452-CA8BAB7E3EC0";
paths = (
{
closed = 1;
nodes = (
"85 652 LINE",
"85 393 LINE",
"132 393 LINE",
"132 652 LINE"
);
},
{
closed = 1;
nodes = (
"86 760 LINE",
"86 717 LINE",
"348 717 LINE",
"348 760 LINE"
);
},
{
closed = 1;
nodes = (
"348 609 LINE",
"348 760 LINE",
"301 760 LINE",
"301 609 LINE"
);
},
{
closed = 1;
nodes = (
"85 652 LINE",
"85 609 LINE",
"348 609 LINE",
"348 652 LINE"
);
},
{
closed = 1;
nodes = (
"232 473 LINE",
"232 652 LINE",
"185 652 LINE",
"185 473 LINE"
);
},
{
closed = 1;
nodes = (
"85 393 LINE",
"348 393 LINE",
"348 436 LINE",
"85 436 LINE"
);
},
{
closed = 1;
nodes = (
"126 613 LINE",
"89 585 LINE",
"246 394 LINE",
"284 420 LINE"
);
}
);
width = 423;
}
);
leftMetricsKey = two;
rightMetricsKey = two;
unicode = 00B2;
},
{
color = 3;
glyphname = fraction;
lastChange = "2020-07-16 13:13:55 +0000";
layers = (
{
layerId = "C60226DB-E4D3-4E89-B452-CA8BAB7E3EC0";
paths = (
{
closed = 1;
nodes = (
"124 -117 LINE",
"438 860 LINE",
"359 860 LINE",
"45 -117 LINE"
);
}
);
width = 483;
}
);
unicode = 2044;
},
{
color = 3;
glyphname = period;
lastChange = "2020-07-16 13:13:55 +0000";
layers = (
{
layerId = "C60226DB-E4D3-4E89-B452-CA8BAB7E3EC0";
paths = (
{
closed = 1;
nodes = (
"208 108 LINE",
"100 108 LINE",
"100 0 LINE",
"208 0 LINE"
);
}
);
width = 308;
}
);
unicode = 002E;
},
{
color = 3;
glyphname = comma;
lastChange = "2020-07-22 13:18:07 +0000";
layers = (
{
layerId = "C60226DB-E4D3-4E89-B452-CA8BAB7E3EC0";
paths = (
{
closed = 1;
nodes = (
"193 108 LINE",
"100 108 LINE",
"100 -140 LINE",
"193 -140 LINE"
);
}
);
width = 293;
}
);
unicode = 002C;
},
{
color = 3;
glyphname = colon;
lastChange = "2020-07-16 13:13:55 +0000";
layers = (
{
layerId = "C60226DB-E4D3-4E89-B452-CA8BAB7E3EC0";
paths = (
{
closed = 1;
nodes = (
"208 108 LINE",
"100 108 LINE",
"100 0 LINE",
"208 0 LINE"
);
},
{
closed = 1;
nodes = (
"208 490 LINE",
"100 490 LINE",
"100 382 LINE",
"208 382 LINE"
);
}
);
width = 308;
}
);
unicode = 003A;
},
{
color = 3;
glyphname = semicolon;
lastChange = "2020-07-16 13:13:55 +0000";
layers = (
{
background = {
paths = (
{
closed = 1;
nodes = (
"208 108 LINE",
"100 108 LINE",
"100 0 LINE",
"208 0 LINE"
);
},
{
closed = 1;
nodes = (
"208 490 LINE",
"100 490 LINE",
"100 382 LINE",
"208 382 LINE"
);
}
);
};
layerId = "C60226DB-E4D3-4E89-B452-CA8BAB7E3EC0";
paths = (
{
closed = 1;
nodes = (
"200 108 LINE",
"107 108 LINE",
"107 -140 LINE",
"200 -140 LINE"
);
},
{
closed = 1;
nodes = (
"208 490 LINE",
"100 490 LINE",
"100 382 LINE",
"208 382 LINE"
);
}
);
width = 308;
}
);
unicode = 003B;
},
{
color = 3;
glyphname = exclam;
lastChange = "2020-07-16 13:13:55 +0000";
layers = (
{
layerId = "C60226DB-E4D3-4E89-B452-CA8BAB7E3EC0";
paths = (
{
closed = 1;
nodes = (
"209 109 LINE",
"100 109 LINE",
"100 0 LINE",
"209 0 LINE"
);
},
{
closed = 1;
nodes = (
"196 760 LINE",
"113 760 LINE",
"113 205 LINE",
"196 205 LINE"
);
}
);
width = 309;
}
);
unicode = 0021;
},
{
color = 3;
glyphname = exclamdown;
lastChange = "2020-07-16 13:13:55 +0000";
layers = (
{
layerId = "C60226DB-E4D3-4E89-B452-CA8BAB7E3EC0";
paths = (
{
closed = 1;
nodes = (
"100 760 LINE",
"100 651 LINE",
"209 651 LINE",
"209 760 LINE"
);
},
{
closed = 1;
nodes = (
"113 555 LINE",
"113 0 LINE",
"196 0 LINE",
"196 555 LINE"
);
}
);
width = 309;
}
);
unicode = 00A1;
},
{
color = 3;
glyphname = question;
lastChange = "2020-07-16 13:13:55 +0000";
layers = (
{
layerId = "C60226DB-E4D3-4E89-B452-CA8BAB7E3EC0";
paths = (
{
closed = 1;
nodes = (
"75 760 LINE",
"75 685 LINE",
"640 685 LINE",
"640 760 LINE"
);
},
{
closed = 1;
nodes = (
"640 454 LINE",
"640 760 LINE",
"557 760 LINE",
"557 454 LINE"
);
},
{
closed = 1;
nodes = (
"209 529 LINE",
"209 454 LINE",
"640 454 LINE",
"640 529 LINE"
);
},
{
closed = 1;
nodes = (
"433 454 LINE",
"433 760 LINE",
"350 760 LINE",
"350 454 LINE"
);
},
{
closed = 1;
nodes = (
"292 205 LINE",
"292 529 LINE",
"209 529 LINE",
"209 205 LINE"
);
},
{
closed = 1;
nodes = (
"304 108 LINE",
"196 108 LINE",
"196 0 LINE",
"304 0 LINE"
);
}
);
width = 690;
}
);
unicode = 003F;
},
{
color = 3;
glyphname = questiondown;
lastChange = "2020-07-16 13:13:55 +0000";
layers = (
{
layerId = "C60226DB-E4D3-4E89-B452-CA8BAB7E3EC0";
paths = (
{
closed = 1;
nodes = (
"615 0 LINE",
"615 75 LINE",
"50 75 LINE",
"50 0 LINE"
);
},
{
closed = 1;
nodes = (
"50 306 LINE",
"50 0 LINE",
"133 0 LINE",
"133 306 LINE"
);
},
{
closed = 1;
nodes = (
"481 231 LINE",
"481 306 LINE",
"50 306 LINE",
"50 231 LINE"
);
},
{
closed = 1;
nodes = (
"257 306 LINE",
"257 0 LINE",
"340 0 LINE",
"340 306 LINE"
);
},
{
closed = 1;
nodes = (
"398 555 LINE",
"398 231 LINE",
"481 231 LINE",
"481 555 LINE"
);
},
{
closed = 1;
nodes = (
"386 652 LINE",
"494 652 LINE",
"494 760 LINE",
"386 760 LINE"
);
}
);
width = 690;
}
);
unicode = 00BF;
},
{
color = 3;
glyphname = periodcentered;
lastChange = "2020-07-16 13:13:55 +0000";
layers = (
{
layerId = "C60226DB-E4D3-4E89-B452-CA8BAB7E3EC0";
paths = (
{
closed = 1;
nodes = (
"208 408 LINE",
"100 408 LINE",
"100 300 LINE",
"208 300 LINE"
);
}
);
width = 308;
}
);
unicode = 00B7;
},
{
color = 3;
glyphname = bullet;
lastChange = "2020-07-16 13:13:55 +0000";
layers = (
{
layerId = "C60226DB-E4D3-4E89-B452-CA8BAB7E3EC0";
paths = (
{
closed = 1;
nodes = (
"392 500 LINE",
"100 500 LINE",
"100 208 LINE",
"392 208 LINE"
);
}
);
width = 492;
}
);
unicode = 2022;
},
{
color = 3;
glyphname = asterisk;
lastChange = "2020-07-16 13:13:55 +0000";
layers = (
{
layerId = "C60226DB-E4D3-4E89-B452-CA8BAB7E3EC0";
paths = (
{
closed = 1;
nodes = (
"50 539 LINE",
"421 539 LINE",
"421 614 LINE",
"50 614 LINE"
);
},
{
closed = 1;
nodes = (
"173 393 LINE",
"363 723 LINE",
"298 760 LINE",
"108 430 LINE"
);
},
{
closed = 1;
nodes = (
"177 760 LINE",
"106 719 LINE",
"294 393 LINE",
"366 434 LINE"
);
}
);
width = 471;
}
);
unicode = 002A;
},
{
color = 3;
glyphname = numbersign;
lastChange = "2020-07-16 13:13:55 +0000";
layers = (
{
layerId = "C60226DB-E4D3-4E89-B452-CA8BAB7E3EC0";
paths = (
{
closed = 1;
nodes = (
"190 0 LINE",
"434 760 LINE",
"355 760 LINE",
"111 0 LINE"
);
},
{
closed = 1;
nodes = (
"445 0 LINE",
"689 760 LINE",
"610 760 LINE",
"366 0 LINE"
);
},
{
closed = 1;
nodes = (
"142 530 LINE",
"118 455 LINE",
"730 455 LINE",
"755 530 LINE"
);
},
{
closed = 1;
nodes = (
"70 305 LINE",
"45 230 LINE",
"658 230 LINE",
"682 305 LINE"
);
}
);
width = 800;
}
);
unicode = 0023;
},
{
color = 3;
glyphname = slash;
lastChange = "2020-07-16 13:13:55 +0000";
layers = (
{
layerId = "C60226DB-E4D3-4E89-B452-CA8BAB7E3EC0";
paths = (
{
closed = 1;
nodes = (
"124 -117 LINE",
"438 860 LINE",
"359 860 LINE",
"45 -117 LINE"
);
}
);
width = 483;
}
);
unicode = 002F;
},
{
color = 3;
glyphname = backslash;
lastChange = "2020-07-16 13:13:55 +0000";
layers = (
{
layerId = "C60226DB-E4D3-4E89-B452-CA8BAB7E3EC0";
paths = (
{
closed = 1;
nodes = (
"130 860 LINE",
"45 860 LINE",
"359 -117 LINE",
"444 -117 LINE"
);
}
);
width = 489;
}
);
unicode = 005C;
},
{
color = 3;
glyphname = parenleft;
lastChange = "2020-07-16 13:13:55 +0000";
layers = (
{
guideLines = (
{
angle = 90;
position = "{298, -155}";
},
{
position = "{127, 383}";
}
);
layerId = "C60226DB-E4D3-4E89-B452-CA8BAB7E3EC0";
paths = (
{
closed = 1;
nodes = (
"226 884 LINE",
"80 383 LINE",
"224 -118 LINE",
"310 -118 LINE",
"165 386 LINE",
"309 884 LINE"
);
}
);
width = 355;
}
);
unicode = 0028;
},
{
color = 3;
glyphname = parenright;
lastChange = "2020-07-16 13:13:55 +0000";
layers = (
{
layerId = "C60226DB-E4D3-4E89-B452-CA8BAB7E3EC0";
paths = (
{
closed = 1;
nodes = (
"190 386 LINE",
"45 -118 LINE",
"131 -118 LINE",
"275 383 LINE",
"129 884 LINE",
"46 884 LINE"
);
}
);
width = 355;
}
);
unicode = 0029;
},
{
color = 3;
glyphname = braceleft;
lastChange = "2020-07-16 13:13:55 +0000";
layers = (
{
layerId = "C60226DB-E4D3-4E89-B452-CA8BAB7E3EC0";
paths = (
{
closed = 1;
nodes = (
"150 -118 LINE",
"373 -118 LINE",
"373 -43 LINE",
"233 -43 LINE",
"233 809 LINE",
"373 809 LINE",
"373 884 LINE",
"150 884 LINE"
);
},
{
closed = 1;
nodes = (
"233 346 LINE",
"233 421 LINE",
"30 421 LINE",
"30 346 LINE"
);
}
);
width = 418;
}
);
unicode = 007B;
},
{
color = 3;
glyphname = braceright;
lastChange = "2020-07-16 13:13:55 +0000";
layers = (
{
background = {
paths = (
{
closed = 1;
nodes = (
"45 884 LINE",
"45 809 LINE",
"185 809 LINE",
"185 -43 LINE",
"45 -43 LINE",
"45 -118 LINE",
"268 -118 LINE",
"268 884 LINE"
);
},
{
closed = 1;
nodes = (
"388 421 LINE",
"185 421 LINE",
"185 346 LINE",
"388 346 LINE"
);
}
);
};
layerId = "C60226DB-E4D3-4E89-B452-CA8BAB7E3EC0";
paths = (
{
closed = 1;
nodes = (
"45 884 LINE",
"45 809 LINE",
"185 809 LINE",
"185 -43 LINE",
"45 -43 LINE",
"45 -118 LINE",
"268 -118 LINE",
"268 884 LINE"
);
},
{
closed = 1;
nodes = (
"388 421 LINE",
"185 421 LINE",
"185 346 LINE",
"388 346 LINE"
);
}
);
width = 418;
}
);
unicode = 007D;
},
{
color = 3;
glyphname = bracketleft;
lastChange = "2020-07-16 13:13:55 +0000";
layers = (
{
background = {
paths = (
{
closed = 1;
nodes = (
"244 -118 LINE",
"244 -68 LINE",
"135 -68 LINE",
"135 754 LINE",
"244 754 LINE",
"244 805 LINE",
"74 805 LINE",
"74 -118 LINE"
);
}
);
};
layerId = "C60226DB-E4D3-4E89-B452-CA8BAB7E3EC0";
paths = (
{
closed = 1;
nodes = (
"100 -118 LINE",
"323 -118 LINE",
"323 -43 LINE",
"183 -43 LINE",
"183 809 LINE",
"323 809 LINE",
"323 884 LINE",
"100 884 LINE"
);
}
);
width = 368;
}
);
unicode = 005B;
},
{
color = 3;
glyphname = bracketright;
lastChange = "2020-07-16 13:13:55 +0000";
layers = (
{
background = {
paths = (
{
closed = 1;
nodes = (
"100 -118 LINE",
"323 -118 LINE",
"323 -43 LINE",
"183 -43 LINE",
"183 810 LINE",
"323 810 LINE",
"323 885 LINE",
"100 885 LINE"
);
}
);
};
layerId = "C60226DB-E4D3-4E89-B452-CA8BAB7E3EC0";
paths = (
{
closed = 1;
nodes = (
"45 884 LINE",
"45 809 LINE",
"185 809 LINE",
"185 -43 LINE",
"45 -43 LINE",
"45 -118 LINE",
"268 -118 LINE",
"268 884 LINE"
);
}
);
width = 368;
}
);
unicode = 005D;
},
{
color = 3;
glyphname = hyphen;
lastChange = "2020-07-16 13:13:55 +0000";
layers = (
{
layerId = "C60226DB-E4D3-4E89-B452-CA8BAB7E3EC0";
paths = (
{
closed = 1;
nodes = (
"467 268 LINE",
"467 347 LINE",
"115 347 LINE",
"115 268 LINE"
);
}
);
width = 582;
}
);
unicode = 002D;
},
{
color = 3;
glyphname = endash;
lastChange = "2020-07-16 13:13:55 +0000";
layers = (
{
layerId = "C60226DB-E4D3-4E89-B452-CA8BAB7E3EC0";
paths = (
{
closed = 1;
nodes = (
"667 268 LINE",
"667 347 LINE",
"115 347 LINE",
"115 268 LINE"
);
}
);
width = 782;
}
);
unicode = 2013;
},
{
color = 3;
glyphname = emdash;
lastChange = "2020-07-16 13:13:55 +0000";
layers = (
{
layerId = "C60226DB-E4D3-4E89-B452-CA8BAB7E3EC0";
paths = (
{
closed = 1;
nodes = (
"867 268 LINE",
"867 347 LINE",
"115 347 LINE",
"115 268 LINE"
);
}
);
width = 982;
}
);
unicode = 2014;
},
{
color = 3;
glyphname = underscore;
lastChange = "2020-07-16 13:13:55 +0000";
layers = (
{
layerId = "C60226DB-E4D3-4E89-B452-CA8BAB7E3EC0";
paths = (
{
closed = 1;
nodes = (
"667 -79 LINE",
"667 0 LINE",
"115 0 LINE",
"115 -79 LINE"
);
}
);
width = 782;
}
);
unicode = 005F;
},
{
color = 3;
glyphname = quotesinglbase;
lastChange = "2020-07-16 13:13:55 +0000";
layers = (
{
layerId = "C60226DB-E4D3-4E89-B452-CA8BAB7E3EC0";
paths = (
{
closed = 1;
nodes = (
"178 108 LINE",
"85 108 LINE",
"85 -140 LINE",
"178 -140 LINE"
);
}
);
width = 263;
}
);
unicode = 201A;
},
{
color = 3;
glyphname = quotedblbase;
lastChange = "2020-07-16 13:13:55 +0000";
layers = (
{
layerId = "C60226DB-E4D3-4E89-B452-CA8BAB7E3EC0";
paths = (
{
closed = 1;
nodes = (
"178 108 LINE",
"85 108 LINE",
"85 -140 LINE",
"178 -140 LINE"
);
},
{
closed = 1;
nodes = (
"178 108 LINE",
"85 108 LINE",
"85 -140 LINE",
"178 -140 LINE"
);
},
{
closed = 1;
nodes = (
"338 108 LINE",
"245 108 LINE",
"245 -140 LINE",
"338 -140 LINE"
);
}
);
width = 423;
}
);
unicode = 201E;
},
{
color = 3;
glyphname = quotedblleft;
lastChange = "2020-07-16 13:13:55 +0000";
layers = (
{
layerId = "C60226DB-E4D3-4E89-B452-CA8BAB7E3EC0";
paths = (
{
closed = 1;
nodes = (
"178 760 LINE",
"85 760 LINE",
"85 512 LINE",
"178 512 LINE"
);
},
{
closed = 1;
nodes = (
"178 760 LINE",
"85 760 LINE",
"85 512 LINE",
"178 512 LINE"
);
},
{
closed = 1;
nodes = (
"338 760 LINE",
"245 760 LINE",
"245 512 LINE",
"338 512 LINE"
);
}
);
width = 423;
}
);
unicode = 201C;
},
{
color = 3;
glyphname = quotedblright;
lastChange = "2020-07-16 13:13:55 +0000";
layers = (
{
layerId = "C60226DB-E4D3-4E89-B452-CA8BAB7E3EC0";
paths = (
{
closed = 1;
nodes = (
"178 760 LINE",
"85 760 LINE",
"85 512 LINE",
"178 512 LINE"
);
},
{
closed = 1;
nodes = (
"178 760 LINE",
"85 760 LINE",
"85 512 LINE",
"178 512 LINE"
);
},
{
closed = 1;
nodes = (
"338 760 LINE",
"245 760 LINE",
"245 512 LINE",
"338 512 LINE"
);
}
);
width = 423;
}
);
unicode = 201D;
},
{
color = 3;
glyphname = quoteleft;
lastChange = "2020-07-16 13:13:55 +0000";
layers = (
{
layerId = "C60226DB-E4D3-4E89-B452-CA8BAB7E3EC0";
paths = (
{
closed = 1;
nodes = (
"178 760 LINE",
"85 760 LINE",
"85 512 LINE",
"178 512 LINE"
);
}
);
width = 263;
}
);
unicode = 2018;
},
{
color = 3;
glyphname = quoteright;
lastChange = "2020-07-16 13:13:55 +0000";
layers = (
{
layerId = "C60226DB-E4D3-4E89-B452-CA8BAB7E3EC0";
paths = (
{
closed = 1;
nodes = (
"178 760 LINE",
"85 760 LINE",
"85 512 LINE",
"178 512 LINE"
);
}
);
width = 263;
}
);
unicode = 2019;
},
{
color = 3;
glyphname = guillemetleft;
lastChange = "2020-07-16 13:13:55 +0000";
layers = (
{
layerId = "C60226DB-E4D3-4E89-B452-CA8BAB7E3EC0";
paths = (
{
closed = 1;
nodes = (
"287 91 LINE",
"173 291 LINE",
"283 480 LINE",
"192 480 LINE",
"80 287 LINE",
"192 91 LINE"
);
},
{
closed = 1;
nodes = (
"502 91 LINE",
"388 291 LINE",
"498 480 LINE",
"407 480 LINE",
"295 287 LINE",
"407 91 LINE"
);
}
);
width = 592;
}
);
unicode = 00AB;
},
{
color = 3;
glyphname = guillemetright;
lastChange = "2020-07-16 13:13:55 +0000";
layers = (
{
layerId = "C60226DB-E4D3-4E89-B452-CA8BAB7E3EC0";
paths = (
{
closed = 1;
nodes = (
"512 287 LINE",
"400 480 LINE",
"309 480 LINE",
"419 291 LINE",
"305 91 LINE",
"400 91 LINE"
);
},
{
closed = 1;
nodes = (
"297 287 LINE",
"185 480 LINE",
"94 480 LINE",
"204 291 LINE",
"90 91 LINE",
"185 91 LINE"
);
}
);
width = 592;
}
);
unicode = 00BB;
},
{
color = 3;
glyphname = guilsinglleft;
lastChange = "2020-07-16 13:13:55 +0000";
layers = (
{
layerId = "C60226DB-E4D3-4E89-B452-CA8BAB7E3EC0";
paths = (
{
closed = 1;
nodes = (
"287 91 LINE",
"173 291 LINE",
"283 480 LINE",
"192 480 LINE",
"80 287 LINE",
"192 91 LINE"
);
}
);
width = 377;
}
);
unicode = 2039;
},
{
color = 3;
glyphname = guilsinglright;
lastChange = "2020-07-16 13:13:55 +0000";
layers = (
{
layerId = "C60226DB-E4D3-4E89-B452-CA8BAB7E3EC0";
paths = (
{
closed = 1;
nodes = (
"297 287 LINE",
"185 480 LINE",
"94 480 LINE",
"204 291 LINE",
"90 91 LINE",
"185 91 LINE"
);
}
);
width = 377;
}
);
unicode = 203A;
},
{
color = 3;
glyphname = quotedbl;
lastChange = "2020-07-16 13:13:55 +0000";
layers = (
{
layerId = "C60226DB-E4D3-4E89-B452-CA8BAB7E3EC0";
paths = (
{
closed = 1;
nodes = (
"178 760 LINE",
"85 760 LINE",
"85 512 LINE",
"178 512 LINE"
);
},
{
closed = 1;
nodes = (
"178 760 LINE",
"85 760 LINE",
"85 512 LINE",
"178 512 LINE"
);
},
{
closed = 1;
nodes = (
"338 760 LINE",
"245 760 LINE",
"245 512 LINE",
"338 512 LINE"
);
}
);
width = 423;
}
);
unicode = 0022;
},
{
color = 3;
glyphname = quotesingle;
lastChange = "2020-07-16 13:13:55 +0000";
layers = (
{
layerId = "C60226DB-E4D3-4E89-B452-CA8BAB7E3EC0";
paths = (
{
closed = 1;
nodes = (
"178 760 LINE",
"85 760 LINE",
"85 512 LINE",
"178 512 LINE"
);
}
);
width = 263;
}
);
unicode = 0027;
},
{
color = 3;
glyphname = .notdef;
lastChange = "2020-07-16 13:13:55 +0000";
layers = (
{
layerId = "C60226DB-E4D3-4E89-B452-CA8BAB7E3EC0";
paths = (
{
closed = 1;
nodes = (
"90 760 LINE",
"90 0 LINE",
"706 0 LINE",
"706 760 LINE"
);
}
);
width = 796;
}
);
},
{
color = 3;
glyphname = cent;
lastChange = "2020-07-16 13:13:55 +0000";
layers = (
{
layerId = "C60226DB-E4D3-4E89-B452-CA8BAB7E3EC0";
paths = (
{
closed = 1;
nodes = (
"110 529 LINE",
"583 529 LINE",
"583 604 LINE",
"110 604 LINE"
);
},
{
closed = 1;
nodes = (
"193 604 LINE",
"110 604 LINE",
"110 0 LINE",
"193 0 LINE"
);
},
{
closed = 1;
nodes = (
"110 0 LINE",
"583 0 LINE",
"583 75 LINE",
"110 75 LINE"
);
},
{
closed = 1;
nodes = (
"181 374 LINE",
"137 295 LINE",
"353 7 LINE",
"419 58 LINE"
);
},
{
closed = 1;
nodes = (
"400 704 LINE",
"317 704 LINE",
"317 -100 LINE",
"400 -100 LINE"
);
}
);
width = 700;
}
);
unicode = 00A2;
},
{
color = 3;
glyphname = currency;
lastChange = "2020-07-16 13:13:55 +0000";
layers = (
{
layerId = "C60226DB-E4D3-4E89-B452-CA8BAB7E3EC0";
paths = (
{
closed = 1;
nodes = (
"415 252 LINE",
"554 112 LINE",
"612 171 LINE",
"472 312 LINE"
);
},
{
closed = 1;
nodes = (
"222 300 LINE",
"90 168 LINE",
"143 115 LINE",
"274 246 LINE"
);
},
{
closed = 1;
nodes = (
"272 512 LINE",
"145 638 LINE",
"87 579 LINE",
"213 454 LINE"
);
},
{
closed = 1;
nodes = (
"472 446 LINE",
"609 582 LINE",
"556 635 LINE",
"419 499 LINE"
);
},
{
closed = 1;
nodes = (
"179 546 LINE",
"179 204 LINE",
"521 204 LINE",
"521 546 LINE"
);
},
{
closed = 1;
nodes = (
"262 279 LINE",
"262 471 LINE",
"438 471 LINE",
"438 279 LINE"
);
}
);
width = 700;
}
);
unicode = 00A4;
},
{
color = 3;
glyphname = dollar;
lastChange = "2020-07-16 13:13:55 +0000";
layers = (
{
layerId = "C60226DB-E4D3-4E89-B452-CA8BAB7E3EC0";
paths = (
{
closed = 1;
nodes = (
"537 0 LINE",
"620 0 LINE",
"620 529 LINE",
"537 529 LINE"
);
},
{
closed = 1;
nodes = (
"80 685 LINE",
"620 685 LINE",
"620 760 LINE",
"80 760 LINE"
);
},
{
closed = 1;
nodes = (
"163 760 LINE",
"80 760 LINE",
"80 454 LINE",
"163 454 LINE"
);
},
{
closed = 1;
nodes = (
"80 454 LINE",
"620 454 LINE",
"620 529 LINE",
"80 529 LINE"
);
},
{
closed = 1;
nodes = (
"80 0 LINE",
"620 0 LINE",
"620 75 LINE",
"80 75 LINE"
);
},
{
closed = 1;
nodes = (
"309 75 LINE",
"309 -100 LINE",
"392 -100 LINE",
"392 75 LINE"
);
},
{
closed = 1;
nodes = (
"392 454 LINE",
"392 860 LINE",
"309 860 LINE",
"309 454 LINE"
);
},
{
closed = 1;
nodes = (
"283 0 LINE",
"606 395 LINE",
"560 458 LINE",
"226 50 LINE"
);
}
);
width = 700;
}
);
unicode = 0024;
},
{
color = 3;
glyphname = euro;
lastChange = "2020-07-16 13:13:55 +0000";
layers = (
{
layerId = "C60226DB-E4D3-4E89-B452-CA8BAB7E3EC0";
paths = (
{
closed = 1;
nodes = (
"150 685 LINE",
"640 685 LINE",
"640 760 LINE",
"150 760 LINE"
);
},
{
closed = 1;
nodes = (
"233 760 LINE",
"150 760 LINE",
"150 0 LINE",
"233 0 LINE"
);
},
{
closed = 1;
nodes = (
"150 0 LINE",
"650 0 LINE",
"650 75 LINE",
"150 75 LINE"
);
},
{
closed = 1;
nodes = (
"233 329 LINE",
"50 329 LINE",
"50 254 LINE",
"233 254 LINE"
);
},
{
closed = 1;
nodes = (
"297 254 LINE",
"562 254 LINE",
"562 329 LINE",
"297 329 LINE"
);
},
{
closed = 1;
nodes = (
"201 497 LINE",
"172 397 LINE",
"472 0 LINE",
"548 51 LINE"
);
},
{
closed = 1;
nodes = (
"50 529 LINE",
"50 454 LINE",
"562 454 LINE",
"562 529 LINE"
);
}
);
width = 700;
},
{
associatedMasterId = "C60226DB-E4D3-4E89-B452-CA8BAB7E3EC0";
layerId = "6B217A6C-149B-4A8B-BDA3-1F5E741DF2BF";
name = "May 14 20, 15:02";
paths = (
{
closed = 1;
nodes = (
"190 685 LINE",
"720 685 LINE",
"720 760 LINE",
"190 760 LINE"
);
},
{
closed = 1;
nodes = (
"273 760 LINE",
"190 760 LINE",
"190 0 LINE",
"273 0 LINE"
);
},
{
closed = 1;
nodes = (
"190 0 LINE",
"720 0 LINE",
"720 75 LINE",
"190 75 LINE"
);
},
{
closed = 1;
nodes = (
"480 760 LINE",
"397 760 LINE",
"397 170 LINE",
"480 170 LINE"
);
},
{
closed = 1;
nodes = (
"241 497 LINE",
"212 397 LINE",
"505 9 LINE",
"571 60 LINE"
);
},
{
closed = 1;
nodes = (
"397 454 LINE",
"640 454 LINE",
"640 529 LINE",
"397 529 LINE"
);
},
{
closed = 1;
nodes = (
"273 329 LINE",
"70 329 LINE",
"70 254 LINE",
"273 254 LINE"
);
},
{
closed = 1;
nodes = (
"273 529 LINE",
"70 529 LINE",
"70 454 LINE",
"273 454 LINE"
);
},
{
closed = 1;
nodes = (
"397 254 LINE",
"640 254 LINE",
"640 329 LINE",
"397 329 LINE"
);
}
);
width = 800;
},
{
associatedMasterId = "C60226DB-E4D3-4E89-B452-CA8BAB7E3EC0";
layerId = "4F31D2AC-2548-4634-8E9C-1A99C501D949";
name = "Jul 2 20, 10:55";
paths = (
{
closed = 1;
nodes = (
"140 685 LINE",
"640 685 LINE",
"640 760 LINE",
"140 760 LINE"
);
},
{
closed = 1;
nodes = (
"223 760 LINE",
"140 760 LINE",
"140 0 LINE",
"223 0 LINE"
);
},
{
closed = 1;
nodes = (
"140 0 LINE",
"640 0 LINE",
"640 75 LINE",
"140 75 LINE"
);
},
{
closed = 1;
nodes = (
"317 454 LINE",
"580 454 LINE",
"580 529 LINE",
"317 529 LINE"
);
},
{
closed = 1;
nodes = (
"223 329 LINE",
"50 329 LINE",
"50 254 LINE",
"223 254 LINE"
);
},
{
closed = 1;
nodes = (
"223 529 LINE",
"50 529 LINE",
"50 454 LINE",
"223 454 LINE"
);
},
{
closed = 1;
nodes = (
"287 254 LINE",
"580 254 LINE",
"580 329 LINE",
"287 329 LINE"
);
},
{
closed = 1;
nodes = (
"455 760 LINE",
"220 449 LINE",
"220 311 LINE",
"455 0 LINE",
"521 51 LINE",
"273 380 LINE",
"521 709 LINE"
);
}
);
width = 700;
}
);
unicode = 20AC;
},
{
color = 3;
glyphname = sterling;
lastChange = "2020-07-16 13:13:55 +0000";
layers = (
{
layerId = "C60226DB-E4D3-4E89-B452-CA8BAB7E3EC0";
paths = (
{
closed = 1;
nodes = (
"223 760 LINE",
"140 760 LINE",
"140 0 LINE",
"223 0 LINE"
);
},
{
closed = 1;
nodes = (
"630 760 LINE",
"140 760 LINE",
"140 685 LINE",
"630 685 LINE"
);
},
{
closed = 1;
nodes = (
"332 331 LINE",
"540 331 LINE",
"540 406 LINE",
"332 406 LINE"
);
},
{
closed = 1;
nodes = (
"60 0 LINE",
"610 0 LINE",
"610 75 LINE",
"60 75 LINE"
);
},
{
closed = 1;
nodes = (
"630 760 LINE",
"547 760 LINE",
"547 527 LINE",
"630 527 LINE"
);
},
{
closed = 1;
nodes = (
"373 760 LINE",
"290 760 LINE",
"290 0 LINE",
"373 0 LINE"
);
},
{
closed = 1;
nodes = (
"192 406 LINE",
"60 406 LINE",
"60 331 LINE",
"192 331 LINE"
);
}
);
width = 700;
}
);
unicode = 00A3;
},
{
color = 3;
glyphname = yen;
lastChange = "2020-07-16 13:13:55 +0000";
layers = (
{
layerId = "C60226DB-E4D3-4E89-B452-CA8BAB7E3EC0";
paths = (
{
closed = 1;
nodes = (
"653 685 LINE",
"653 760 LINE",
"47 760 LINE",
"47 685 LINE",
"109 685 LINE",
"298 319 LINE",
"401 319 LINE",
"590 685 LINE"
);
},
{
closed = 1;
nodes = (
"355 392 LINE",
"202 685 LINE",
"506 685 LINE"
);
},
{
closed = 1;
nodes = (
"309 0 LINE",
"392 0 LINE",
"392 379 LINE",
"309 379 LINE"
);
},
{
closed = 1;
nodes = (
"127 304 LINE",
"567 304 LINE",
"567 379 LINE",
"127 379 LINE"
);
},
{
closed = 1;
nodes = (
"127 164 LINE",
"567 164 LINE",
"567 239 LINE",
"127 239 LINE"
);
}
);
width = 700;
}
);
unicode = 00A5;
},
{
color = 3;
glyphname = plus;
lastChange = "2020-07-16 13:13:55 +0000";
layers = (
{
layerId = "C60226DB-E4D3-4E89-B452-CA8BAB7E3EC0";
paths = (
{
closed = 1;
nodes = (
"585 417 LINE",
"392 417 LINE",
"392 624 LINE",
"308 624 LINE",
"308 417 LINE",
"115 417 LINE",
"115 342 LINE",
"308 342 LINE",
"308 135 LINE",
"392 135 LINE",
"392 342 LINE",
"585 342 LINE"
);
}
);
width = 700;
}
);
unicode = 002B;
},
{
color = 3;
glyphname = minus;
lastChange = "2020-07-16 13:13:55 +0000";
layers = (
{
background = {
paths = (
{
closed = 1;
nodes = (
"560 420 LINE",
"140 420 LINE",
"140 339 LINE",
"560 339 LINE"
);
}
);
};
layerId = "C60226DB-E4D3-4E89-B452-CA8BAB7E3EC0";
paths = (
{
closed = 1;
nodes = (
"560 420 LINE",
"140 420 LINE",
"140 339 LINE",
"560 339 LINE"
);
}
);
width = 700;
}
);
unicode = 2212;
},
{
color = 3;
glyphname = multiply;
lastChange = "2020-07-16 13:13:55 +0000";
layers = (
{
guideLines = (
{
position = "{356, 166}";
},
{
position = "{356, 593}";
}
);
layerId = "C60226DB-E4D3-4E89-B452-CA8BAB7E3EC0";
paths = (
{
closed = 1;
nodes = (
"511 593 LINE",
"353 436 LINE",
"196 593 LINE",
"136 534 LINE",
"294 376 LINE",
"136 219 LINE",
"189 166 LINE",
"347 323 LINE",
"503 166 LINE",
"563 225 LINE",
"406 383 LINE",
"564 540 LINE"
);
}
);
width = 700;
}
);
unicode = 00D7;
},
{
color = 3;
glyphname = divide;
lastChange = "2020-07-16 13:13:55 +0000";
layers = (
{
layerId = "C60226DB-E4D3-4E89-B452-CA8BAB7E3EC0";
paths = (
{
closed = 1;
nodes = (
"561 420 LINE",
"140 420 LINE",
"140 339 LINE",
"561 339 LINE"
);
},
{
closed = 1;
nodes = (
"403 605 LINE",
"298 605 LINE",
"298 500 LINE",
"403 500 LINE"
);
},
{
closed = 1;
nodes = (
"403 259 LINE",
"298 259 LINE",
"298 154 LINE",
"403 154 LINE"
);
}
);
width = 700;
}
);
unicode = 00F7;
},
{
color = 3;
glyphname = equal;
lastChange = "2020-07-16 13:13:55 +0000";
layers = (
{
layerId = "C60226DB-E4D3-4E89-B452-CA8BAB7E3EC0";
paths = (
{
closed = 1;
nodes = (
"140 436 LINE",
"560 436 LINE",
"560 511 LINE",
"140 511 LINE"
);
},
{
closed = 1;
nodes = (
"140 246 LINE",
"560 246 LINE",
"560 321 LINE",
"140 321 LINE"
);
}
);
width = 700;
}
);
unicode = 003D;
},
{
color = 3;
glyphname = notequal;
lastChange = "2020-07-16 13:13:55 +0000";
layers = (
{
layerId = "C60226DB-E4D3-4E89-B452-CA8BAB7E3EC0";
paths = (
{
closed = 1;
nodes = (
"460 645 LINE",
"176 152 LINE",
"241 114 LINE",
"525 607 LINE"
);
},
{
closed = 1;
nodes = (
"140 436 LINE",
"560 436 LINE",
"560 511 LINE",
"140 511 LINE"
);
},
{
closed = 1;
nodes = (
"140 246 LINE",
"560 246 LINE",
"560 321 LINE",
"140 321 LINE"
);
}
);
width = 700;
}
);
unicode = 2260;
},
{
color = 3;
glyphname = plusminus;
lastChange = "2020-07-16 13:13:55 +0000";
layers = (
{
layerId = "C60226DB-E4D3-4E89-B452-CA8BAB7E3EC0";
paths = (
{
closed = 1;
nodes = (
"565 171 LINE",
"135 171 LINE",
"135 96 LINE",
"565 96 LINE"
);
},
{
closed = 1;
nodes = (
"565 455 LINE",
"392 455 LINE",
"392 612 LINE",
"308 612 LINE",
"308 455 LINE",
"135 455 LINE",
"135 380 LINE",
"308 380 LINE",
"308 223 LINE",
"392 223 LINE",
"392 380 LINE",
"565 380 LINE"
);
}
);
width = 700;
}
);
unicode = 00B1;
},
{
color = 3;
glyphname = approxequal;
lastChange = "2020-07-16 13:13:55 +0000";
layers = (
{
background = {
paths = (
{
closed = 1;
nodes = (
"140 436 LINE",
"560 436 LINE",
"560 511 LINE",
"140 511 LINE"
);
},
{
closed = 1;
nodes = (
"140 246 LINE",
"560 246 LINE",
"560 321 LINE",
"140 321 LINE"
);
}
);
};
layerId = "C60226DB-E4D3-4E89-B452-CA8BAB7E3EC0";
paths = (
{
closed = 1;
nodes = (
"314 511 LINE",
"130 511 LINE",
"130 436 LINE",
"273 436 LINE",
"382 326 LINE",
"570 326 LINE",
"570 401 LINE",
"423 401 LINE"
);
},
{
closed = 1;
nodes = (
"130 321 LINE",
"130 246 LINE",
"275 246 LINE",
"384 136 LINE",
"570 136 LINE",
"570 211 LINE",
"425 211 LINE",
"316 321 LINE"
);
}
);
width = 700;
}
);
unicode = 2248;
},
{
color = 3;
glyphname = asciitilde;
lastChange = "2020-07-16 13:13:55 +0000";
layers = (
{
layerId = "C60226DB-E4D3-4E89-B452-CA8BAB7E3EC0";
paths = (
{
closed = 1;
nodes = (
"314 474 LINE",
"130 474 LINE",
"130 395 LINE",
"273 395 LINE",
"382 285 LINE",
"570 285 LINE",
"570 364 LINE",
"423 364 LINE"
);
}
);
width = 700;
}
);
unicode = 007E;
},
{
color = 3;
glyphname = logicalnot;
lastChange = "2020-07-16 13:13:55 +0000";
layers = (
{
layerId = "C60226DB-E4D3-4E89-B452-CA8BAB7E3EC0";
paths = (
{
closed = 1;
nodes = (
"585 417 LINE",
"115 417 LINE",
"115 342 LINE",
"501 342 LINE",
"501 135 LINE",
"585 135 LINE"
);
}
);
width = 700;
}
);
unicode = 00AC;
},
{
color = 3;
glyphname = emptyset;
lastChange = "2020-07-16 13:13:55 +0000";
layers = (
{
guideLines = (
{
position = "{484, -100}";
},
{
position = "{484, 860}";
}
);
layerId = "C60226DB-E4D3-4E89-B452-CA8BAB7E3EC0";
paths = (
{
closed = 1;
nodes = (
"90 760 LINE",
"90 0 LINE",
"173 0 LINE",
"173 760 LINE"
);
},
{
closed = 1;
nodes = (
"90 760 LINE",
"90 685 LINE",
"720 685 LINE",
"720 760 LINE"
);
},
{
closed = 1;
nodes = (
"720 0 LINE",
"720 760 LINE",
"637 760 LINE",
"637 0 LINE"
);
},
{
closed = 1;
nodes = (
"90 75 LINE",
"90 0 LINE",
"720 0 LINE",
"720 75 LINE"
);
},
{
closed = 1;
nodes = (
"585 860 LINE",
"138 -100 LINE",
"226 -100 LINE",
"672 860 LINE"
);
}
);
width = 810;
}
);
unicode = 2205;
},
{
color = 3;
glyphname = infinity;
lastChange = "2020-07-16 13:13:55 +0000";
layers = (
{
layerId = "C60226DB-E4D3-4E89-B452-CA8BAB7E3EC0";
paths = (
{
closed = 1;
nodes = (
"701 185 LINE",
"701 110 LINE",
"849 110 LINE",
"849 185 LINE"
);
},
{
closed = 1;
nodes = (
"239 575 LINE",
"239 650 LINE",
"90 650 LINE",
"90 575 LINE"
);
},
{
closed = 1;
nodes = (
"90 650 LINE",
"90 110 LINE",
"173 110 LINE",
"173 650 LINE"
);
},
{
closed = 1;
nodes = (
"178 592 LINE",
"701 110 LINE",
"757 171 LINE",
"239 650 LINE"
);
},
{
closed = 1;
nodes = (
"766 650 LINE",
"766 110 LINE",
"849 110 LINE",
"849 650 LINE"
);
},
{
closed = 1;
nodes = (
"428 650 LINE",
"428 110 LINE",
"511 110 LINE",
"511 650 LINE"
);
},
{
closed = 1;
nodes = (
"511 110 LINE",
"511 185 LINE",
"90 185 LINE",
"90 110 LINE"
);
},
{
closed = 1;
nodes = (
"849 575 LINE",
"849 650 LINE",
"428 650 LINE",
"428 575 LINE"
);
}
);
width = 939;
}
);
unicode = 221E;
},
{
color = 3;
glyphname = percent;
lastChange = "2020-07-16 13:13:55 +0000";
layers = (
{
layerId = "C60226DB-E4D3-4E89-B452-CA8BAB7E3EC0";
paths = (
{
closed = 1;
nodes = (
"702 0 LINE",
"785 0 LINE",
"785 270 LINE",
"702 270 LINE"
);
},
{
closed = 1;
nodes = (
"588 270 LINE",
"505 270 LINE",
"505 0 LINE",
"588 0 LINE"
);
},
{
closed = 1;
nodes = (
"505 0 LINE",
"785 0 LINE",
"785 73 LINE",
"505 73 LINE"
);
},
{
closed = 1;
nodes = (
"505 195 LINE",
"785 195 LINE",
"785 270 LINE",
"505 270 LINE"
);
},
{
closed = 1;
nodes = (
"217 0 LINE",
"707 760 LINE",
"618 760 LINE",
"128 0 LINE"
);
},
{
closed = 1;
nodes = (
"247 490 LINE",
"330 490 LINE",
"330 760 LINE",
"247 760 LINE"
);
},
{
closed = 1;
nodes = (
"133 760 LINE",
"50 760 LINE",
"50 490 LINE",
"133 490 LINE"
);
},
{
closed = 1;
nodes = (
"50 490 LINE",
"330 490 LINE",
"330 563 LINE",
"50 563 LINE"
);
},
{
closed = 1;
nodes = (
"50 685 LINE",
"330 685 LINE",
"330 760 LINE",
"50 760 LINE"
);
}
);
width = 835;
}
);
unicode = 0025;
},
{
color = 3;
glyphname = perthousand;
lastChange = "2020-07-16 13:13:55 +0000";
layers = (
{
layerId = "C60226DB-E4D3-4E89-B452-CA8BAB7E3EC0";
paths = (
{
closed = 1;
nodes = (
"702 0 LINE",
"785 0 LINE",
"785 270 LINE",
"702 270 LINE"
);
},
{
closed = 1;
nodes = (
"588 270 LINE",
"505 270 LINE",
"505 0 LINE",
"588 0 LINE"
);
},
{
closed = 1;
nodes = (
"505 0 LINE",
"785 0 LINE",
"785 73 LINE",
"505 73 LINE"
);
},
{
closed = 1;
nodes = (
"505 195 LINE",
"785 195 LINE",
"785 270 LINE",
"505 270 LINE"
);
},
{
closed = 1;
nodes = (
"217 0 LINE",
"707 760 LINE",
"618 760 LINE",
"128 0 LINE"
);
},
{
closed = 1;
nodes = (
"247 490 LINE",
"330 490 LINE",
"330 760 LINE",
"247 760 LINE"
);
},
{
closed = 1;
nodes = (
"133 760 LINE",
"50 760 LINE",
"50 490 LINE",
"133 490 LINE"
);
},
{
closed = 1;
nodes = (
"50 490 LINE",
"330 490 LINE",
"330 563 LINE",
"50 563 LINE"
);
},
{
closed = 1;
nodes = (
"50 685 LINE",
"330 685 LINE",
"330 760 LINE",
"50 760 LINE"
);
},
{
closed = 1;
nodes = (
"899 0 LINE",
"982 0 LINE",
"982 270 LINE",
"899 270 LINE"
);
},
{
closed = 1;
nodes = (
"785 270 LINE",
"702 270 LINE",
"702 0 LINE",
"785 0 LINE"
);
},
{
closed = 1;
nodes = (
"702 0 LINE",
"982 0 LINE",
"982 73 LINE",
"702 73 LINE"
);
},
{
closed = 1;
nodes = (
"702 195 LINE",
"982 195 LINE",
"982 270 LINE",
"702 270 LINE"
);
}
);
width = 1032;
}
);
unicode = 2030;
},
{
color = 3;
glyphname = upArrow;
lastChange = "2020-07-16 13:13:55 +0000";
layers = (
{
layerId = "C60226DB-E4D3-4E89-B452-CA8BAB7E3EC0";
paths = (
{
closed = 1;
nodes = (
"620 439 LINE",
"350 709 LINE",
"80 439 LINE",
"80 328 LINE",
"309 556 LINE",
"309 112 LINE",
"391 112 LINE",
"391 556 LINE",
"620 328 LINE"
);
}
);
width = 700;
}
);
unicode = 2191;
},
{
color = 3;
glyphname = northEastArrow;
lastChange = "2020-07-16 13:13:55 +0000";
layers = (
{
layerId = "C60226DB-E4D3-4E89-B452-CA8BAB7E3EC0";
paths = (
{
closed = 1;
nodes = (
"570 240 LINE",
"570 622 LINE",
"188 622 LINE",
"110 543 LINE",
"433 542 LINE",
"119 228 LINE",
"177 170 LINE",
"491 484 LINE",
"492 161 LINE"
);
}
);
width = 700;
}
);
unicode = 2197;
},
{
color = 3;
glyphname = rightArrow;
lastChange = "2020-07-16 13:13:55 +0000";
layers = (
{
layerId = "C60226DB-E4D3-4E89-B452-CA8BAB7E3EC0";
paths = (
{
closed = 1;
nodes = (
"391 122 LINE",
"660 391 LINE",
"390 662 LINE",
"279 662 LINE",
"507 432 LINE",
"63 432 LINE",
"63 350 LINE",
"507 350 LINE",
"279 122 LINE"
);
}
);
width = 700;
}
);
unicode = 2192;
},
{
color = 3;
glyphname = southEastArrow;
lastChange = "2020-07-16 13:13:55 +0000";
layers = (
{
layerId = "C60226DB-E4D3-4E89-B452-CA8BAB7E3EC0";
paths = (
{
closed = 1;
nodes = (
"187 180 LINE",
"569 180 LINE",
"570 563 LINE",
"491 641 LINE",
"490 317 LINE",
"176 631 LINE",
"118 573 LINE",
"432 259 LINE",
"110 259 LINE"
);
}
);
width = 700;
}
);
unicode = 2198;
},
{
color = 3;
glyphname = downArrow;
lastChange = "2020-07-16 13:13:55 +0000";
layers = (
{
layerId = "C60226DB-E4D3-4E89-B452-CA8BAB7E3EC0";
paths = (
{
closed = 1;
nodes = (
"391 265 LINE",
"391 709 LINE",
"309 709 LINE",
"309 265 LINE",
"80 493 LINE",
"80 382 LINE",
"350 112 LINE",
"620 382 LINE",
"620 493 LINE"
);
}
);
width = 700;
}
);
unicode = 2193;
},
{
color = 3;
glyphname = southWestArrow;
lastChange = "2020-07-16 13:13:55 +0000";
layers = (
{
layerId = "C60226DB-E4D3-4E89-B452-CA8BAB7E3EC0";
paths = (
{
closed = 1;
nodes = (
"130 543 LINE",
"130 161 LINE",
"512 161 LINE",
"590 240 LINE",
"267 241 LINE",
"581 555 LINE",
"523 613 LINE",
"209 299 LINE",
"208 622 LINE"
);
}
);
width = 700;
}
);
unicode = 2199;
},
{
color = 3;
glyphname = leftArrow;
lastChange = "2020-07-16 13:13:55 +0000";
layers = (
{
layerId = "C60226DB-E4D3-4E89-B452-CA8BAB7E3EC0";
paths = (
{
closed = 1;
nodes = (
"193 350 LINE",
"637 350 LINE",
"637 432 LINE",
"193 432 LINE",
"421 662 LINE",
"310 662 LINE",
"40 391 LINE",
"309 122 LINE",
"421 122 LINE"
);
}
);
width = 700;
}
);
unicode = 2190;
},
{
color = 3;
glyphname = northWestArrow;
lastChange = "2020-07-16 13:13:55 +0000";
layers = (
{
layerId = "C60226DB-E4D3-4E89-B452-CA8BAB7E3EC0";
paths = (
{
closed = 1;
nodes = (
"209 484 LINE",
"523 170 LINE",
"581 228 LINE",
"267 542 LINE",
"590 543 LINE",
"512 622 LINE",
"130 622 LINE",
"130 240 LINE",
"208 161 LINE"
);
}
);
width = 700;
}
);
unicode = 2196;
},
{
color = 3;
glyphname = leftRightArrow;
lastChange = "2020-07-16 13:13:55 +0000";
layers = (
{
layerId = "C60226DB-E4D3-4E89-B452-CA8BAB7E3EC0";
paths = (
{
closed = 1;
nodes = (
"310 651 LINE",
"40 381 LINE",
"310 111 LINE",
"421 111 LINE",
"193 340 LINE",
"647 340 LINE",
"647 422 LINE",
"193 422 LINE",
"421 651 LINE"
);
},
{
closed = 1;
nodes = (
"825 422 LINE",
"371 422 LINE",
"371 340 LINE",
"825 340 LINE",
"597 111 LINE",
"708 111 LINE",
"978 381 LINE",
"708 651 LINE",
"597 651 LINE"
);
}
);
width = 1018;
}
);
unicode = 2194;
},
{
color = 3;
glyphname = upDownArrow;
lastChange = "2020-07-16 13:13:55 +0000";
layers = (
{
layerId = "C60226DB-E4D3-4E89-B452-CA8BAB7E3EC0";
paths = (
{
closed = 1;
nodes = (
"620 580 LINE",
"350 850 LINE",
"80 580 LINE",
"80 469 LINE",
"309 697 LINE",
"309 243 LINE",
"391 243 LINE",
"391 697 LINE",
"620 469 LINE"
);
},
{
closed = 1;
nodes = (
"391 65 LINE",
"391 519 LINE",
"309 519 LINE",
"309 65 LINE",
"80 293 LINE",
"80 182 LINE",
"350 -88 LINE",
"620 182 LINE",
"620 293 LINE"
);
}
);
width = 700;
}
);
unicode = 2195;
},
{
color = 3;
glyphname = lozenge;
lastChange = "2020-07-16 13:13:55 +0000";
layers = (
{
background = {
paths = (
{
closed = 1;
nodes = (
"80 380 LINE",
"327 -50 LINE",
"393 -50 LINE",
"642 380 LINE",
"392 810 LINE",
"325 810 LINE"
);
},
{
closed = 1;
nodes = (
"175 380 LINE",
"353 707 LINE",
"554 380 LINE",
"365 51 LINE"
);
}
);
};
layerId = "C60226DB-E4D3-4E89-B452-CA8BAB7E3EC0";
paths = (
{
closed = 1;
nodes = (
"642 380 LINE",
"395 810 LINE",
"329 810 LINE",
"80 380 LINE",
"327 -50 LINE",
"393 -50 LINE"
);
},
{
closed = 1;
nodes = (
"550 374 LINE",
"365 51 LINE",
"172 385 LINE",
"357 709 LINE"
);
}
);
width = 722;
}
);
unicode = 25CA;
},
{
color = 3;
glyphname = at;
lastChange = "2020-07-16 13:13:55 +0000";
layers = (
{
layerId = "C60226DB-E4D3-4E89-B452-CA8BAB7E3EC0";
paths = (
{
closed = 1;
nodes = (
"745 198 LINE",
"745 760 LINE",
"662 760 LINE",
"662 198 LINE"
);
},
{
closed = 1;
nodes = (
"745 0 LINE",
"745 75 LINE",
"100 75 LINE",
"100 0 LINE"
);
},
{
closed = 1;
nodes = (
"100 760 LINE",
"100 0 LINE",
"183 0 LINE",
"183 760 LINE"
);
},
{
closed = 1;
nodes = (
"745 685 LINE",
"745 760 LINE",
"100 760 LINE",
"100 685 LINE"
);
},
{
closed = 1;
nodes = (
"745 198 LINE",
"745 273 LINE",
"254 273 LINE",
"254 198 LINE"
);
},
{
closed = 1;
nodes = (
"587 475 LINE",
"587 550 LINE",
"405 550 LINE",
"405 475 LINE"
);
},
{
closed = 1;
nodes = (
"587 198 LINE",
"587 550 LINE",
"504 550 LINE",
"504 198 LINE"
);
},
{
closed = 1;
nodes = (
"493 550 LINE",
"405 550 LINE",
"254 303 LINE",
"326 276 LINE"
);
},
{
closed = 1;
nodes = (
"337 198 LINE",
"337 303 LINE",
"254 303 LINE",
"254 198 LINE"
);
}
);
width = 845;
}
);
unicode = 0040;
},
{
color = 3;
glyphname = ampersand;
lastChange = "2020-07-16 13:13:55 +0000";
layers = (
{
layerId = "C60226DB-E4D3-4E89-B452-CA8BAB7E3EC0";
paths = (
{
closed = 1;
nodes = (
"158 685 LINE",
"543 685 LINE",
"543 760 LINE",
"158 760 LINE"
);
},
{
closed = 1;
nodes = (
"158 450 LINE",
"75 450 LINE",
"75 0 LINE",
"158 0 LINE"
);
},
{
closed = 1;
nodes = (
"626 595 LINE",
"543 595 LINE",
"543 0 LINE",
"626 0 LINE"
);
},
{
closed = 1;
nodes = (
"75 0 LINE",
"626 0 LINE",
"626 75 LINE",
"75 75 LINE"
);
},
{
closed = 1;
nodes = (
"75 375 LINE",
"753 375 LINE",
"753 450 LINE",
"75 450 LINE"
);
},
{
closed = 1;
nodes = (
"241 760 LINE",
"158 760 LINE",
"158 375 LINE",
"241 375 LINE"
);
},
{
closed = 1;
nodes = (
"295 436 LINE",
"217 405 LINE",
"406 10 LINE",
"482 45 LINE"
);
}
);
width = 773;
}
);
unicode = 0026;
},
{
color = 3;
glyphname = paragraph;
lastChange = "2020-07-16 13:13:55 +0000";
layers = (
{
layerId = "C60226DB-E4D3-4E89-B452-CA8BAB7E3EC0";
paths = (
{
closed = 1;
nodes = (
"533 760 LINE",
"450 760 LINE",
"450 0 LINE",
"533 0 LINE"
);
},
{
closed = 1;
nodes = (
"683 760 LINE",
"600 760 LINE",
"600 0 LINE",
"683 0 LINE"
);
},
{
closed = 1;
nodes = (
"70 760 LINE",
"70 361 LINE",
"153 361 LINE",
"153 760 LINE"
);
},
{
closed = 1;
nodes = (
"70 760 LINE",
"70 685 LINE",
"533 685 LINE",
"533 760 LINE"
);
},
{
closed = 1;
nodes = (
"70 436 LINE",
"70 361 LINE",
"533 361 LINE",
"533 436 LINE"
);
},
{
closed = 1;
nodes = (
"453 704 LINE",
"385 752 LINE",
"151 419 LINE",
"222 374 LINE"
);
}
);
width = 773;
}
);
unicode = 00B6;
},
{
color = 3;
glyphname = section;
lastChange = "2020-07-16 13:13:55 +0000";
layers = (
{
layerId = "C60226DB-E4D3-4E89-B452-CA8BAB7E3EC0";
paths = (
{
closed = 1;
nodes = (
"447 0 LINE",
"530 0 LINE",
"530 540 LINE",
"447 540 LINE"
);
},
{
closed = 1;
nodes = (
"173 760 LINE",
"90 760 LINE",
"90 230 LINE",
"173 230 LINE"
);
},
{
closed = 1;
nodes = (
"90 230 LINE",
"530 230 LINE",
"530 305 LINE",
"90 305 LINE"
);
},
{
closed = 1;
nodes = (
"90 465 LINE",
"530 465 LINE",
"530 540 LINE",
"90 540 LINE"
);
},
{
closed = 1;
nodes = (
"90 685 LINE",
"480 685 LINE",
"480 760 LINE",
"90 760 LINE"
);
},
{
closed = 1;
nodes = (
"140 0 LINE",
"530 0 LINE",
"530 75 LINE",
"140 75 LINE"
);
}
);
width = 620;
}
);
unicode = 00A7;
},
{
color = 3;
glyphname = copyright;
lastChange = "2020-07-16 13:13:55 +0000";
layers = (
{
layerId = "C60226DB-E4D3-4E89-B452-CA8BAB7E3EC0";
paths = (
{
closed = 1;
nodes = (
"90 760 LINE",
"90 0 LINE",
"746 0 LINE",
"746 760 LINE"
);
},
{
closed = 1;
nodes = (
"595 574 LINE",
"595 635 LINE",
"229 635 LINE",
"229 125 LINE",
"595 125 LINE",
"595 186 LINE",
"485 186 LINE",
"431 257 LINE",
"431 574 LINE"
);
},
{
closed = 1;
nodes = (
"364 346 LINE",
"296 436 LINE",
"296 574 LINE",
"364 574 LINE"
);
},
{
closed = 1;
nodes = (
"296 328 LINE",
"402 186 LINE",
"296 186 LINE"
);
},
{
closed = 1;
nodes = (
"679 61 LINE",
"157 61 LINE",
"157 699 LINE",
"679 699 LINE"
);
}
);
width = 836;
}
);
unicode = 00A9;
},
{
color = 3;
glyphname = registered;
lastChange = "2020-07-22 13:32:23 +0000";
layers = (
{
layerId = "C60226DB-E4D3-4E89-B452-CA8BAB7E3EC0";
paths = (
{
closed = 1;
nodes = (
"80 393 LINE",
"447 393 LINE",
"447 760 LINE",
"80 760 LINE"
);
},
{
closed = 1;
nodes = (
"125 436 LINE",
"125 717 LINE",
"401 717 LINE",
"401 436 LINE"
);
},
{
closed = 1;
nodes = (
"217 599 LINE",
"302 460 LINE",
"347 460 LINE",
"307 525 LINE",
"358 525 LINE",
"358 690 LINE",
"168 690 LINE",
"168 460 LINE",
"207 460 LINE",
"207 599 LINE"
);
},
{
closed = 1;
nodes = (
"318 653 LINE",
"318 636 LINE",
"207 636 LINE",
"207 653 LINE"
);
},
{
closed = 1;
nodes = (
"285 562 LINE",
"262 599 LINE",
"318 599 LINE",
"318 562 LINE"
);
}
);
width = 527;
}
);
unicode = 00AE;
},
{
color = 3;
glyphname = trademark;
lastChange = "2020-07-22 13:12:44 +0000";
layers = (
{
background = {
paths = (
{
closed = 1;
nodes = (
"470 760 LINE",
"470 393 LINE",
"512 393 LINE",
"512 531 LINE",
"542 568 LINE",
"542 393 LINE",
"584 393 LINE",
"584 619 LINE",
"615 657 LINE",
"615 393 LINE",
"657 393 LINE",
"657 709 LINE",
"668 722 LINE",
"765 722 LINE",
"765 393 LINE",
"807 393 LINE",
"807 760 LINE"
);
},
{
closed = 1;
nodes = (
"512 722 LINE",
"542 722 LINE",
"542 628 LINE",
"512 591 LINE"
);
},
{
closed = 1;
nodes = (
"584 722 LINE",
"619 722 LINE",
"584 679 LINE"
);
}
);
};
guideLines = (
{
angle = 230.9061;
position = "{607, 641}";
}
);
layerId = "C60226DB-E4D3-4E89-B452-CA8BAB7E3EC0";
paths = (
{
closed = 1;
nodes = (
"60 760 LINE",
"60 628 LINE",
"158 628 LINE",
"158 393 LINE",
"306 393 LINE",
"306 628 LINE",
"403 628 LINE",
"403 760 LINE"
);
},
{
closed = 1;
nodes = (
"470 760 LINE",
"470 393 LINE",
"517 393 LINE",
"517 531 LINE",
"542 562 LINE",
"542 393 LINE",
"589 393 LINE",
"589 619 LINE",
"615 651 LINE",
"615 393 LINE",
"662 393 LINE",
"662 709 LINE",
"669 717 LINE",
"760 717 LINE",
"760 393 LINE",
"807 393 LINE",
"807 760 LINE"
);
},
{
closed = 1;
nodes = (
"107 717 LINE",
"158 717 LINE",
"158 671 LINE",
"107 671 LINE"
);
},
{
closed = 1;
nodes = (
"277 671 LINE",
"205 671 LINE",
"205 717 LINE",
"241 717 LINE"
);
},
{
closed = 1;
nodes = (
"334 671 LINE",
"298 717 LINE",
"356 717 LINE",
"356 671 LINE"
);
},
{
closed = 1;
nodes = (
"517 717 LINE",
"542 717 LINE",
"542 628 LINE",
"517 597 LINE"
);
},
{
closed = 1;
nodes = (
"589 717 LINE",
"615 717 LINE",
"589 685 LINE"
);
},
{
closed = 1;
nodes = (
"205 436 LINE",
"205 628 LINE",
"259 628 LINE",
"259 436 LINE"
);
}
);
width = 897;
}
);
unicode = 2122;
},
{
color = 3;
glyphname = degree;
lastChange = "2020-07-16 13:13:55 +0000";
layers = (
{
layerId = "C60226DB-E4D3-4E89-B452-CA8BAB7E3EC0";
paths = (
{
closed = 1;
nodes = (
"287 490 LINE",
"370 490 LINE",
"370 760 LINE",
"287 760 LINE"
);
},
{
closed = 1;
nodes = (
"173 760 LINE",
"90 760 LINE",
"90 490 LINE",
"173 490 LINE"
);
},
{
closed = 1;
nodes = (
"90 490 LINE",
"370 490 LINE",
"370 565 LINE",
"90 565 LINE"
);
},
{
closed = 1;
nodes = (
"90 685 LINE",
"370 685 LINE",
"370 760 LINE",
"90 760 LINE"
);
}
);
width = 470;
}
);
unicode = 00B0;
},
{
color = 3;
glyphname = bar;
lastChange = "2020-07-16 13:13:55 +0000";
layers = (
{
layerId = "C60226DB-E4D3-4E89-B452-CA8BAB7E3EC0";
paths = (
{
closed = 1;
nodes = (
"173 -200 LINE",
"173 810 LINE",
"90 810 LINE",
"90 -200 LINE"
);
}
);
width = 263;
}
);
unicode = 007C;
},
{
color = 3;
glyphname = brokenbar;
lastChange = "2020-07-16 13:13:55 +0000";
layers = (
{
layerId = "C60226DB-E4D3-4E89-B452-CA8BAB7E3EC0";
paths = (
{
closed = 1;
nodes = (
"90 210 LINE",
"90 -200 LINE",
"173 -200 LINE",
"173 210 LINE"
);
},
{
closed = 1;
nodes = (
"173 400 LINE",
"173 810 LINE",
"90 810 LINE",
"90 400 LINE"
);
}
);
width = 263;
}
);
unicode = 00A6;
},
{
color = 3;
glyphname = dagger;
lastChange = "2020-07-16 13:13:55 +0000";
layers = (
{
layerId = "C60226DB-E4D3-4E89-B452-CA8BAB7E3EC0";
paths = (
{
closed = 1;
nodes = (
"353 -200 LINE",
"353 810 LINE",
"270 810 LINE",
"270 -200 LINE"
);
},
{
closed = 1;
nodes = (
"70 475 LINE",
"553 475 LINE",
"553 550 LINE",
"70 550 LINE"
);
}
);
width = 623;
}
);
unicode = 2020;
},
{
color = 3;
glyphname = daggerdbl;
lastChange = "2020-07-16 13:13:55 +0000";
layers = (
{
layerId = "C60226DB-E4D3-4E89-B452-CA8BAB7E3EC0";
paths = (
{
closed = 1;
nodes = (
"353 -200 LINE",
"353 810 LINE",
"270 810 LINE",
"270 -200 LINE"
);
},
{
closed = 1;
nodes = (
"70 475 LINE",
"553 475 LINE",
"553 550 LINE",
"70 550 LINE"
);
},
{
closed = 1;
nodes = (
"70 85 LINE",
"553 85 LINE",
"553 160 LINE",
"70 160 LINE"
);
}
);
width = 623;
}
);
unicode = 2021;
},
{
color = 3;
glyphname = beerMug;
lastChange = "2020-07-16 13:13:55 +0000";
layers = (
{
layerId = "C60226DB-E4D3-4E89-B452-CA8BAB7E3EC0";
paths = (
{
closed = 1;
nodes = (
"90 685 LINE",
"623 685 LINE",
"623 760 LINE",
"90 760 LINE"
);
},
{
closed = 1;
nodes = (
"173 760 LINE",
"90 760 LINE",
"90 0 LINE",
"173 0 LINE"
);
},
{
closed = 1;
nodes = (
"623 760 LINE",
"540 760 LINE",
"540 0 LINE",
"623 0 LINE"
);
},
{
closed = 1;
nodes = (
"90 0 LINE",
"623 0 LINE",
"623 75 LINE",
"90 75 LINE"
);
},
{
closed = 1;
nodes = (
"540 455 LINE",
"793 455 LINE",
"793 530 LINE",
"540 530 LINE"
);
},
{
closed = 1;
nodes = (
"323 0 LINE",
"323 605 LINE",
"240 605 LINE",
"240 0 LINE"
);
},
{
closed = 1;
nodes = (
"473 0 LINE",
"473 605 LINE",
"390 605 LINE",
"390 0 LINE"
);
},
{
closed = 1;
nodes = (
"540 155 LINE",
"793 155 LINE",
"793 230 LINE",
"540 230 LINE"
);
},
{
closed = 1;
nodes = (
"793 530 LINE",
"710 530 LINE",
"710 155 LINE",
"793 155 LINE"
);
},
{
closed = 1;
nodes = (
"90 530 LINE",
"623 530 LINE",
"623 605 LINE",
"90 605 LINE"
);
}
);
width = 853;
}
);
unicode = 1F37A;
},
{
color = 3;
glyphname = chequeredFlag;
lastChange = "2020-07-22 12:24:47 +0000";
layers = (
{
layerId = "C60226DB-E4D3-4E89-B452-CA8BAB7E3EC0";
paths = (
{
closed = 1;
nodes = (
"538 680 LINE",
"429 760 LINE",
"90 760 LINE",
"90 0 LINE",
"173 0 LINE",
"173 310 LINE",
"347 310 LINE",
"456 230 LINE",
"754 230 LINE",
"754 680 LINE"
);
},
{
closed = 1;
nodes = (
"588 530 LINE",
"588 455 LINE",
"671 455 LINE",
"671 380 LINE",
"588 380 LINE",
"588 305 LINE",
"505 305 LINE",
"505 380 LINE",
"497 380 LINE",
"422 435 LINE",
"422 360 LINE",
"388 385 LINE",
"339 385 LINE",
"339 460 LINE",
"256 460 LINE",
"256 385 LINE",
"173 385 LINE",
"173 460 LINE",
"256 460 LINE",
"256 535 LINE",
"173 535 LINE",
"173 610 LINE",
"256 610 LINE",
"256 685 LINE",
"339 685 LINE",
"339 610 LINE",
"388 610 LINE",
"422 585 LINE",
"422 660 LINE",
"497 605 LINE",
"505 605 LINE",
"505 530 LINE",
"588 530 LINE",
"588 605 LINE",
"671 605 LINE",
"671 530 LINE"
);
},
{
closed = 1;
nodes = (
"256 610 LINE",
"256 535 LINE",
"339 535 LINE",
"339 610 LINE"
);
},
{
closed = 1;
nodes = (
"505 455 LINE",
"505 530 LINE",
"497 530 LINE",
"422 585 LINE",
"422 510 LINE",
"497 455 LINE"
);
},
{
closed = 1;
nodes = (
"339 535 LINE",
"339 460 LINE",
"388 460 LINE",
"422 435 LINE",
"422 510 LINE",
"388 535 LINE"
);
},
{
closed = 1;
nodes = (
"588 380 LINE",
"588 455 LINE",
"505 455 LINE",
"505 380 LINE"
);
}
);
width = 824;
},
{
associatedMasterId = "C60226DB-E4D3-4E89-B452-CA8BAB7E3EC0";
layerId = "10E2A74E-2B91-45E5-A071-3941D47BC0F3";
name = "Jul 1 20, 17:09";
paths = (
{
closed = 1;
nodes = (
"399 760 LINE",
"100 760 LINE",
"100 685 LINE",
"358 685 LINE",
"467 605 LINE",
"716 605 LINE",
"716 680 LINE",
"508 680 LINE"
);
},
{
closed = 1;
nodes = (
"100 385 LINE",
"100 310 LINE",
"358 310 LINE",
"467 230 LINE",
"716 230 LINE",
"716 305 LINE",
"508 305 LINE",
"399 385 LINE"
);
},
{
closed = 1;
nodes = (
"100 760 LINE",
"100 0 LINE",
"183 0 LINE",
"183 760 LINE"
);
},
{
closed = 1;
nodes = (
"681 680 LINE",
"681 230 LINE",
"764 230 LINE",
"764 680 LINE"
);
},
{
closed = 1;
nodes = (
"100 760 LINE",
"100 0 LINE",
"183 0 LINE",
"183 760 LINE"
);
},
{
closed = 1;
nodes = (
"349 535 LINE",
"358 535 LINE",
"432 481 LINE",
"432 556 LINE",
"358 610 LINE",
"349 610 LINE"
);
},
{
closed = 1;
nodes = (
"183 535 LINE",
"266 535 LINE",
"266 610 LINE",
"183 610 LINE"
);
},
{
closed = 1;
nodes = (
"266 460 LINE",
"349 460 LINE",
"349 535 LINE",
"266 535 LINE"
);
},
{
closed = 1;
nodes = (
"183 385 LINE",
"266 385 LINE",
"266 460 LINE",
"183 460 LINE"
);
},
{
closed = 1;
nodes = (
"598 530 LINE",
"681 530 LINE",
"681 605 LINE",
"598 605 LINE"
);
},
{
closed = 1;
nodes = (
"515 455 LINE",
"598 455 LINE",
"598 530 LINE",
"515 530 LINE"
);
},
{
closed = 1;
nodes = (
"598 380 LINE",
"681 380 LINE",
"681 455 LINE",
"598 455 LINE"
);
},
{
closed = 1;
nodes = (
"515 305 LINE",
"598 305 LINE",
"598 380 LINE",
"515 380 LINE"
);
},
{
closed = 1;
nodes = (
"266 610 LINE",
"349 610 LINE",
"349 685 LINE",
"266 685 LINE"
);
},
{
closed = 1;
nodes = (
"432 556 LINE",
"467 530 LINE",
"515 530 LINE",
"515 605 LINE",
"467 605 LINE",
"432 631 LINE"
);
},
{
closed = 1;
nodes = (
"349 385 LINE",
"358 385 LINE",
"419 340 LINE",
"432 340 LINE",
"432 406 LINE",
"358 460 LINE",
"349 460 LINE"
);
},
{
closed = 1;
nodes = (
"432 406 LINE",
"467 380 LINE",
"515 380 LINE",
"515 455 LINE",
"467 455 LINE",
"432 481 LINE"
);
}
);
width = 796;
},
{
associatedMasterId = "C60226DB-E4D3-4E89-B452-CA8BAB7E3EC0";
layerId = "09FD67D3-5EA1-4F4F-B1AC-19197B94D557";
name = "Jul 1 20, 17:56";
paths = (
{
closed = 1;
nodes = (
"439 760 LINE",
"100 760 LINE",
"100 685 LINE",
"398 685 LINE",
"507 605 LINE",
"716 605 LINE",
"716 680 LINE",
"548 680 LINE"
);
},
{
closed = 1;
nodes = (
"100 385 LINE",
"100 310 LINE",
"328 310 LINE",
"437 230 LINE",
"716 230 LINE",
"716 305 LINE",
"478 305 LINE",
"369 385 LINE"
);
},
{
closed = 1;
nodes = (
"100 760 LINE",
"100 0 LINE",
"183 0 LINE",
"183 760 LINE"
);
},
{
closed = 1;
nodes = (
"681 680 LINE",
"681 230 LINE",
"764 230 LINE",
"764 680 LINE"
);
},
{
closed = 1;
nodes = (
"100 760 LINE",
"100 0 LINE",
"183 0 LINE",
"183 760 LINE"
);
}
);
width = 796;
},
{
associatedMasterId = "C60226DB-E4D3-4E89-B452-CA8BAB7E3EC0";
background = {
paths = (
{
closed = 1;
nodes = (
"100 585 LINE",
"100 510 LINE",
"347 510 LINE",
"456 610 LINE",
"764 610 LINE",
"764 685 LINE",
"415 685 LINE",
"306 585 LINE"
);
},
{
closed = 1;
nodes = (
"141 510 LINE",
"141 435 LINE",
"388 435 LINE",
"497 535 LINE",
"805 535 LINE",
"805 610 LINE",
"456 610 LINE",
"347 510 LINE"
);
},
{
closed = 1;
nodes = (
"182 435 LINE",
"182 360 LINE",
"429 360 LINE",
"538 460 LINE",
"846 460 LINE",
"846 535 LINE",
"497 535 LINE",
"388 435 LINE"
);
},
{
closed = 1;
nodes = (
"223 360 LINE",
"223 285 LINE",
"470 285 LINE",
"579 385 LINE",
"887 385 LINE",
"887 460 LINE",
"538 460 LINE",
"429 360 LINE"
);
},
{
closed = 1;
nodes = (
"59 660 LINE",
"59 585 LINE",
"306 585 LINE",
"415 685 LINE",
"723 685 LINE",
"723 760 LINE",
"374 760 LINE",
"265 660 LINE"
);
},
{
closed = 1;
nodes = (
"183 760 LINE",
"183 0 LINE",
"266 0 LINE",
"266 760 LINE"
);
},
{
closed = 1;
nodes = (
"266 760 LINE",
"266 0 LINE",
"349 0 LINE",
"349 760 LINE"
);
},
{
closed = 1;
nodes = (
"349 760 LINE",
"349 0 LINE",
"432 0 LINE",
"432 760 LINE"
);
},
{
closed = 1;
nodes = (
"432 760 LINE",
"432 0 LINE",
"515 0 LINE",
"515 760 LINE"
);
},
{
closed = 1;
nodes = (
"515 760 LINE",
"515 0 LINE",
"598 0 LINE",
"598 760 LINE"
);
},
{
closed = 1;
nodes = (
"598 760 LINE",
"598 0 LINE",
"681 0 LINE",
"681 760 LINE"
);
}
);
};
layerId = "10E9DD73-F15D-4529-B0F6-8C1958E72291";
name = "Jul 1 20, 17:59";
paths = (
{
closed = 1;
nodes = (
"100 660 LINE",
"100 585 LINE",
"306 585 LINE",
"415 685 LINE",
"764 685 LINE",
"764 760 LINE",
"374 760 LINE",
"265 660 LINE"
);
},
{
closed = 1;
nodes = (
"430 360 LINE",
"100 360 LINE",
"100 285 LINE",
"471 285 LINE",
"580 385 LINE",
"764 385 LINE",
"764 460 LINE",
"539 460 LINE"
);
},
{
closed = 1;
nodes = (
"100 760 LINE",
"100 0 LINE",
"183 0 LINE",
"183 760 LINE"
);
},
{
closed = 1;
nodes = (
"681 760 LINE",
"681 385 LINE",
"764 385 LINE",
"764 760 LINE"
);
},
{
closed = 1;
nodes = (
"100 760 LINE",
"100 0 LINE",
"183 0 LINE",
"183 760 LINE"
);
},
{
closed = 1;
nodes = (
"183 510 LINE",
"266 510 LINE",
"266 585 LINE",
"183 585 LINE"
);
},
{
closed = 1;
nodes = (
"183 360 LINE",
"266 360 LINE",
"266 435 LINE",
"183 435 LINE"
);
},
{
closed = 1;
nodes = (
"266 435 LINE",
"349 435 LINE",
"349 512 LINE",
"347 510 LINE",
"266 510 LINE"
);
},
{
closed = 1;
nodes = (
"349 360 LINE",
"432 360 LINE",
"432 475 LINE",
"388 435 LINE",
"349 435 LINE"
);
},
{
closed = 1;
nodes = (
"349 512 LINE",
"432 588 LINE",
"432 686 LINE",
"349 690 LINE"
);
},
{
closed = 1;
nodes = (
"515 438 LINE",
"539 460 LINE",
"598 460 LINE",
"598 535 LINE",
"515 535 LINE"
);
},
{
closed = 1;
nodes = (
"598 535 LINE",
"681 535 LINE",
"681 610 LINE",
"598 610 LINE"
);
},
{
closed = 1;
nodes = (
"515 610 LINE",
"598 610 LINE",
"598 685 LINE",
"515 685 LINE"
);
},
{
closed = 1;
nodes = (
"432 588 LINE",
"432 475 LINE",
"497 535 LINE",
"515 535 LINE",
"515 610 LINE",
"456 610 LINE"
);
}
);
width = 796;
},
{
associatedMasterId = "C60226DB-E4D3-4E89-B452-CA8BAB7E3EC0";
layerId = "C1EA3A65-88F6-400A-BB7D-0AA16C09CFDB";
name = "Jul 16 20, 15:02";
paths = (
{
closed = 1;
nodes = (
"538 680 LINE",
"429 760 LINE",
"90 760 LINE",
"90 0 LINE",
"173 0 LINE",
"173 310 LINE",
"347 310 LINE",
"456 230 LINE",
"754 230 LINE",
"754 680 LINE"
);
},
{
closed = 1;
nodes = (
"588 530 LINE",
"588 455 LINE",
"671 455 LINE",
"671 380 LINE",
"588 380 LINE",
"588 305 LINE",
"505 305 LINE",
"505 380 LINE",
"497 380 LINE",
"422 435 LINE",
"422 360 LINE",
"388 385 LINE",
"339 385 LINE",
"339 460 LINE",
"256 460 LINE",
"256 385 LINE",
"173 385 LINE",
"173 460 LINE",
"256 460 LINE",
"256 535 LINE",
"173 535 LINE",
"173 610 LINE",
"256 610 LINE",
"256 685 LINE",
"339 685 LINE",
"339 610 LINE",
"388 610 LINE",
"422 585 LINE",
"422 660 LINE",
"497 605 LINE",
"505 605 LINE",
"505 530 LINE",
"588 530 LINE",
"588 605 LINE",
"671 605 LINE",
"671 530 LINE"
);
},
{
closed = 1;
nodes = (
"256 610 LINE",
"256 535 LINE",
"339 535 LINE",
"339 610 LINE"
);
},
{
closed = 1;
nodes = (
"505 455 LINE",
"505 530 LINE",
"497 530 LINE",
"422 585 LINE",
"422 510 LINE",
"497 455 LINE"
);
},
{
closed = 1;
nodes = (
"339 535 LINE",
"339 460 LINE",
"388 460 LINE",
"422 435 LINE",
"422 510 LINE",
"388 535 LINE"
);
},
{
closed = 1;
nodes = (
"588 380 LINE",
"588 455 LINE",
"505 455 LINE",
"505 380 LINE"
);
}
);
width = 824;
}
);
unicode = 1F3C1;
},
{
color = 3;
glyphname = chequeredFlag.ss01;
lastChange = "2020-07-22 12:24:57 +0000";
layers = (
{
guideLines = (
{
angle = 90;
position = "{456, 531}";
}
);
layerId = "C60226DB-E4D3-4E89-B452-CA8BAB7E3EC0";
paths = (
{
closed = 1;
nodes = (
"90 0 LINE",
"173 0 LINE",
"173 310 LINE",
"388 310 LINE",
"497 390 LINE",
"754 390 LINE",
"754 840 LINE",
"415 840 LINE",
"306 760 LINE",
"90 760 LINE"
);
},
{
closed = 1;
nodes = (
"671 615 LINE",
"671 540 LINE",
"588 540 LINE",
"588 615 LINE"
);
},
{
closed = 1;
nodes = (
"671 765 LINE",
"671 690 LINE",
"588 690 LINE",
"588 765 LINE"
);
},
{
closed = 1;
nodes = (
"588 540 LINE",
"588 465 LINE",
"505 465 LINE",
"505 540 LINE"
);
},
{
closed = 1;
nodes = (
"588 690 LINE",
"588 615 LINE",
"505 615 LINE",
"505 690 LINE"
);
},
{
closed = 1;
nodes = (
"456 615 LINE",
"505 615 LINE",
"505 540 LINE",
"456 540 LINE",
"422 515 LINE",
"422 590 LINE"
);
},
{
closed = 1;
nodes = (
"456 765 LINE",
"505 765 LINE",
"505 690 LINE",
"456 690 LINE",
"422 665 LINE",
"422 740 LINE"
);
},
{
closed = 1;
nodes = (
"347 460 LINE",
"422 515 LINE",
"422 440 LINE",
"347 385 LINE",
"339 385 LINE",
"339 460 LINE"
);
},
{
closed = 1;
nodes = (
"347 610 LINE",
"422 665 LINE",
"422 590 LINE",
"347 535 LINE",
"339 535 LINE",
"339 610 LINE"
);
},
{
closed = 1;
nodes = (
"339 535 LINE",
"339 460 LINE",
"256 460 LINE",
"256 535 LINE"
);
},
{
closed = 1;
nodes = (
"339 685 LINE",
"339 610 LINE",
"256 610 LINE",
"256 685 LINE"
);
},
{
closed = 1;
nodes = (
"256 460 LINE",
"256 385 LINE",
"173 385 LINE",
"173 460 LINE"
);
},
{
closed = 1;
nodes = (
"256 610 LINE",
"256 535 LINE",
"173 535 LINE",
"173 610 LINE"
);
}
);
width = 824;
},
{
associatedMasterId = "C60226DB-E4D3-4E89-B452-CA8BAB7E3EC0";
layerId = "10E2A74E-2B91-45E5-A071-3941D47BC0F3";
name = "Jul 1 20, 17:09";
paths = (
{
closed = 1;
nodes = (
"399 760 LINE",
"100 760 LINE",
"100 685 LINE",
"358 685 LINE",
"467 605 LINE",
"716 605 LINE",
"716 680 LINE",
"508 680 LINE"
);
},
{
closed = 1;
nodes = (
"100 385 LINE",
"100 310 LINE",
"358 310 LINE",
"467 230 LINE",
"716 230 LINE",
"716 305 LINE",
"508 305 LINE",
"399 385 LINE"
);
},
{
closed = 1;
nodes = (
"100 760 LINE",
"100 0 LINE",
"183 0 LINE",
"183 760 LINE"
);
},
{
closed = 1;
nodes = (
"681 680 LINE",
"681 230 LINE",
"764 230 LINE",
"764 680 LINE"
);
},
{
closed = 1;
nodes = (
"100 760 LINE",
"100 0 LINE",
"183 0 LINE",
"183 760 LINE"
);
},
{
closed = 1;
nodes = (
"349 535 LINE",
"358 535 LINE",
"432 481 LINE",
"432 556 LINE",
"358 610 LINE",
"349 610 LINE"
);
},
{
closed = 1;
nodes = (
"183 535 LINE",
"266 535 LINE",
"266 610 LINE",
"183 610 LINE"
);
},
{
closed = 1;
nodes = (
"266 460 LINE",
"349 460 LINE",
"349 535 LINE",
"266 535 LINE"
);
},
{
closed = 1;
nodes = (
"183 385 LINE",
"266 385 LINE",
"266 460 LINE",
"183 460 LINE"
);
},
{
closed = 1;
nodes = (
"598 530 LINE",
"681 530 LINE",
"681 605 LINE",
"598 605 LINE"
);
},
{
closed = 1;
nodes = (
"515 455 LINE",
"598 455 LINE",
"598 530 LINE",
"515 530 LINE"
);
},
{
closed = 1;
nodes = (
"598 380 LINE",
"681 380 LINE",
"681 455 LINE",
"598 455 LINE"
);
},
{
closed = 1;
nodes = (
"515 305 LINE",
"598 305 LINE",
"598 380 LINE",
"515 380 LINE"
);
},
{
closed = 1;
nodes = (
"266 610 LINE",
"349 610 LINE",
"349 685 LINE",
"266 685 LINE"
);
},
{
closed = 1;
nodes = (
"432 556 LINE",
"467 530 LINE",
"515 530 LINE",
"515 605 LINE",
"467 605 LINE",
"432 631 LINE"
);
},
{
closed = 1;
nodes = (
"349 385 LINE",
"358 385 LINE",
"419 340 LINE",
"432 340 LINE",
"432 406 LINE",
"358 460 LINE",
"349 460 LINE"
);
},
{
closed = 1;
nodes = (
"432 406 LINE",
"467 380 LINE",
"515 380 LINE",
"515 455 LINE",
"467 455 LINE",
"432 481 LINE"
);
}
);
width = 796;
},
{
associatedMasterId = "C60226DB-E4D3-4E89-B452-CA8BAB7E3EC0";
layerId = "09FD67D3-5EA1-4F4F-B1AC-19197B94D557";
name = "Jul 1 20, 17:56";
paths = (
{
closed = 1;
nodes = (
"439 760 LINE",
"100 760 LINE",
"100 685 LINE",
"398 685 LINE",
"507 605 LINE",
"716 605 LINE",
"716 680 LINE",
"548 680 LINE"
);
},
{
closed = 1;
nodes = (
"100 385 LINE",
"100 310 LINE",
"328 310 LINE",
"437 230 LINE",
"716 230 LINE",
"716 305 LINE",
"478 305 LINE",
"369 385 LINE"
);
},
{
closed = 1;
nodes = (
"100 760 LINE",
"100 0 LINE",
"183 0 LINE",
"183 760 LINE"
);
},
{
closed = 1;
nodes = (
"681 680 LINE",
"681 230 LINE",
"764 230 LINE",
"764 680 LINE"
);
},
{
closed = 1;
nodes = (
"100 760 LINE",
"100 0 LINE",
"183 0 LINE",
"183 760 LINE"
);
}
);
width = 796;
},
{
associatedMasterId = "C60226DB-E4D3-4E89-B452-CA8BAB7E3EC0";
background = {
paths = (
{
closed = 1;
nodes = (
"100 585 LINE",
"100 510 LINE",
"347 510 LINE",
"456 610 LINE",
"764 610 LINE",
"764 685 LINE",
"415 685 LINE",
"306 585 LINE"
);
},
{
closed = 1;
nodes = (
"141 510 LINE",
"141 435 LINE",
"388 435 LINE",
"497 535 LINE",
"805 535 LINE",
"805 610 LINE",
"456 610 LINE",
"347 510 LINE"
);
},
{
closed = 1;
nodes = (
"182 435 LINE",
"182 360 LINE",
"429 360 LINE",
"538 460 LINE",
"846 460 LINE",
"846 535 LINE",
"497 535 LINE",
"388 435 LINE"
);
},
{
closed = 1;
nodes = (
"223 360 LINE",
"223 285 LINE",
"470 285 LINE",
"579 385 LINE",
"887 385 LINE",
"887 460 LINE",
"538 460 LINE",
"429 360 LINE"
);
},
{
closed = 1;
nodes = (
"59 660 LINE",
"59 585 LINE",
"306 585 LINE",
"415 685 LINE",
"723 685 LINE",
"723 760 LINE",
"374 760 LINE",
"265 660 LINE"
);
},
{
closed = 1;
nodes = (
"183 760 LINE",
"183 0 LINE",
"266 0 LINE",
"266 760 LINE"
);
},
{
closed = 1;
nodes = (
"266 760 LINE",
"266 0 LINE",
"349 0 LINE",
"349 760 LINE"
);
},
{
closed = 1;
nodes = (
"349 760 LINE",
"349 0 LINE",
"432 0 LINE",
"432 760 LINE"
);
},
{
closed = 1;
nodes = (
"432 760 LINE",
"432 0 LINE",
"515 0 LINE",
"515 760 LINE"
);
},
{
closed = 1;
nodes = (
"515 760 LINE",
"515 0 LINE",
"598 0 LINE",
"598 760 LINE"
);
},
{
closed = 1;
nodes = (
"598 760 LINE",
"598 0 LINE",
"681 0 LINE",
"681 760 LINE"
);
}
);
};
layerId = "10E9DD73-F15D-4529-B0F6-8C1958E72291";
name = "Jul 1 20, 17:59";
paths = (
{
closed = 1;
nodes = (
"100 660 LINE",
"100 585 LINE",
"306 585 LINE",
"415 685 LINE",
"764 685 LINE",
"764 760 LINE",
"374 760 LINE",
"265 660 LINE"
);
},
{
closed = 1;
nodes = (
"430 360 LINE",
"100 360 LINE",
"100 285 LINE",
"471 285 LINE",
"580 385 LINE",
"764 385 LINE",
"764 460 LINE",
"539 460 LINE"
);
},
{
closed = 1;
nodes = (
"100 760 LINE",
"100 0 LINE",
"183 0 LINE",
"183 760 LINE"
);
},
{
closed = 1;
nodes = (
"681 760 LINE",
"681 385 LINE",
"764 385 LINE",
"764 760 LINE"
);
},
{
closed = 1;
nodes = (
"100 760 LINE",
"100 0 LINE",
"183 0 LINE",
"183 760 LINE"
);
},
{
closed = 1;
nodes = (
"183 510 LINE",
"266 510 LINE",
"266 585 LINE",
"183 585 LINE"
);
},
{
closed = 1;
nodes = (
"183 360 LINE",
"266 360 LINE",
"266 435 LINE",
"183 435 LINE"
);
},
{
closed = 1;
nodes = (
"266 435 LINE",
"349 435 LINE",
"349 512 LINE",
"347 510 LINE",
"266 510 LINE"
);
},
{
closed = 1;
nodes = (
"349 360 LINE",
"432 360 LINE",
"432 475 LINE",
"388 435 LINE",
"349 435 LINE"
);
},
{
closed = 1;
nodes = (
"349 512 LINE",
"432 588 LINE",
"432 686 LINE",
"349 690 LINE"
);
},
{
closed = 1;
nodes = (
"515 438 LINE",
"539 460 LINE",
"598 460 LINE",
"598 535 LINE",
"515 535 LINE"
);
},
{
closed = 1;
nodes = (
"598 535 LINE",
"681 535 LINE",
"681 610 LINE",
"598 610 LINE"
);
},
{
closed = 1;
nodes = (
"515 610 LINE",
"598 610 LINE",
"598 685 LINE",
"515 685 LINE"
);
},
{
closed = 1;
nodes = (
"432 588 LINE",
"432 475 LINE",
"497 535 LINE",
"515 535 LINE",
"515 610 LINE",
"456 610 LINE"
);
}
);
width = 796;
},
{
associatedMasterId = "C60226DB-E4D3-4E89-B452-CA8BAB7E3EC0";
layerId = "7F66C097-DE8A-4E93-9855-B4ABC28B13E5";
name = "Jul 16 20, 14:44";
paths = (
{
closed = 1;
nodes = (
"538 680 LINE",
"429 760 LINE",
"90 760 LINE",
"90 0 LINE",
"173 0 LINE",
"173 310 LINE",
"347 310 LINE",
"456 230 LINE",
"754 230 LINE",
"754 680 LINE"
);
},
{
closed = 1;
nodes = (
"588 530 LINE",
"588 455 LINE",
"671 455 LINE",
"671 380 LINE",
"588 380 LINE",
"588 305 LINE",
"505 305 LINE",
"505 380 LINE",
"497 380 LINE",
"422 435 LINE",
"422 360 LINE",
"388 385 LINE",
"339 385 LINE",
"339 460 LINE",
"256 460 LINE",
"256 385 LINE",
"173 385 LINE",
"173 460 LINE",
"256 460 LINE",
"256 535 LINE",
"173 535 LINE",
"173 610 LINE",
"256 610 LINE",
"256 685 LINE",
"339 685 LINE",
"339 610 LINE",
"388 610 LINE",
"422 585 LINE",
"422 660 LINE",
"497 605 LINE",
"505 605 LINE",
"505 530 LINE",
"588 530 LINE",
"588 605 LINE",
"671 605 LINE",
"671 530 LINE"
);
},
{
closed = 1;
nodes = (
"256 610 LINE",
"256 535 LINE",
"339 535 LINE",
"339 610 LINE"
);
},
{
closed = 1;
nodes = (
"505 455 LINE",
"505 530 LINE",
"497 530 LINE",
"422 585 LINE",
"422 510 LINE",
"497 455 LINE"
);
},
{
closed = 1;
nodes = (
"339 535 LINE",
"339 460 LINE",
"388 460 LINE",
"422 435 LINE",
"422 510 LINE",
"388 535 LINE"
);
},
{
closed = 1;
nodes = (
"588 380 LINE",
"588 455 LINE",
"505 455 LINE",
"505 380 LINE"
);
}
);
width = 824;
},
{
associatedMasterId = "C60226DB-E4D3-4E89-B452-CA8BAB7E3EC0";
background = {
paths = (
{
closed = 1;
nodes = (
"90 0 LINE",
"173 0 LINE",
"173 230 LINE",
"388 230 LINE",
"497 310 LINE",
"754 310 LINE",
"754 760 LINE",
"415 760 LINE",
"306 680 LINE",
"90 680 LINE"
);
},
{
closed = 1;
nodes = (
"173 605 LINE",
"256 605 LINE",
"256 530 LINE",
"339 530 LINE",
"339 605 LINE",
"347 605 LINE",
"422 660 LINE",
"422 585 LINE",
"456 610 LINE",
"505 610 LINE",
"505 685 LINE",
"588 685 LINE",
"588 610 LINE",
"671 610 LINE",
"671 535 LINE",
"588 535 LINE",
"588 460 LINE",
"671 460 LINE",
"671 385 LINE",
"588 385 LINE",
"588 460 LINE",
"505 460 LINE",
"505 385 LINE",
"456 385 LINE",
"422 360 LINE",
"422 435 LINE",
"347 380 LINE",
"339 380 LINE",
"339 305 LINE",
"256 305 LINE",
"256 380 LINE",
"173 380 LINE",
"173 455 LINE",
"256 455 LINE",
"256 530 LINE",
"173 530 LINE"
);
},
{
closed = 1;
nodes = (
"505 535 LINE",
"588 535 LINE",
"588 610 LINE",
"505 610 LINE"
);
},
{
closed = 1;
nodes = (
"422 510 LINE",
"422 585 LINE",
"347 530 LINE",
"339 530 LINE",
"339 455 LINE",
"347 455 LINE"
);
},
{
closed = 1;
nodes = (
"422 510 LINE",
"422 435 LINE",
"456 460 LINE",
"505 460 LINE",
"505 535 LINE",
"456 535 LINE"
);
},
{
closed = 1;
nodes = (
"339 455 LINE",
"256 455 LINE",
"256 380 LINE",
"339 380 LINE"
);
}
);
};
guideLines = (
{
angle = 90;
position = "{456, 531}";
}
);
layerId = "800C17DB-9450-43E9-94B2-7AE0D49C9B55";
name = "Jul 16 20, 15:02";
paths = (
{
closed = 1;
nodes = (
"90 0 LINE",
"173 0 LINE",
"173 230 LINE",
"388 230 LINE",
"497 310 LINE",
"754 310 LINE",
"754 760 LINE",
"415 760 LINE",
"306 680 LINE",
"90 680 LINE"
);
},
{
closed = 1;
nodes = (
"671 535 LINE",
"671 460 LINE",
"588 460 LINE",
"588 535 LINE"
);
},
{
closed = 1;
nodes = (
"671 685 LINE",
"671 610 LINE",
"588 610 LINE",
"588 685 LINE"
);
},
{
closed = 1;
nodes = (
"588 460 LINE",
"588 385 LINE",
"505 385 LINE",
"505 460 LINE"
);
},
{
closed = 1;
nodes = (
"588 610 LINE",
"588 535 LINE",
"505 535 LINE",
"505 610 LINE"
);
},
{
closed = 1;
nodes = (
"456 535 LINE",
"505 535 LINE",
"505 460 LINE",
"456 460 LINE",
"422 435 LINE",
"422 510 LINE"
);
},
{
closed = 1;
nodes = (
"456 685 LINE",
"505 685 LINE",
"505 610 LINE",
"456 610 LINE",
"422 585 LINE",
"422 660 LINE"
);
},
{
closed = 1;
nodes = (
"347 380 LINE",
"422 435 LINE",
"422 360 LINE",
"347 305 LINE",
"339 305 LINE",
"339 380 LINE"
);
},
{
closed = 1;
nodes = (
"347 530 LINE",
"422 585 LINE",
"422 510 LINE",
"347 455 LINE",
"339 455 LINE",
"339 530 LINE"
);
},
{
closed = 1;
nodes = (
"339 455 LINE",
"339 380 LINE",
"256 380 LINE",
"256 455 LINE"
);
},
{
closed = 1;
nodes = (
"339 605 LINE",
"339 530 LINE",
"256 530 LINE",
"256 605 LINE"
);
},
{
closed = 1;
nodes = (
"256 380 LINE",
"256 305 LINE",
"173 305 LINE",
"173 380 LINE"
);
},
{
closed = 1;
nodes = (
"256 530 LINE",
"256 455 LINE",
"173 455 LINE",
"173 530 LINE"
);
}
);
width = 824;
}
);
},
{
color = 3;
glyphname = chequeredFlag.ss02;
lastChange = "2020-07-22 12:24:39 +0000";
layers = (
{
layerId = "C60226DB-E4D3-4E89-B452-CA8BAB7E3EC0";
paths = (
{
closed = 1;
nodes = (
"90 0 LINE",
"173 0 LINE",
"173 230 LINE",
"388 230 LINE",
"497 310 LINE",
"754 310 LINE",
"754 760 LINE",
"415 760 LINE",
"306 680 LINE",
"90 680 LINE"
);
},
{
closed = 1;
nodes = (
"671 535 LINE",
"671 460 LINE",
"588 460 LINE",
"588 535 LINE"
);
},
{
closed = 1;
nodes = (
"671 685 LINE",
"671 610 LINE",
"588 610 LINE",
"588 685 LINE"
);
},
{
closed = 1;
nodes = (
"588 460 LINE",
"588 385 LINE",
"505 385 LINE",
"505 460 LINE"
);
},
{
closed = 1;
nodes = (
"588 610 LINE",
"588 535 LINE",
"505 535 LINE",
"505 610 LINE"
);
},
{
closed = 1;
nodes = (
"456 535 LINE",
"505 535 LINE",
"505 460 LINE",
"456 460 LINE",
"422 435 LINE",
"422 510 LINE"
);
},
{
closed = 1;
nodes = (
"456 685 LINE",
"505 685 LINE",
"505 610 LINE",
"456 610 LINE",
"422 585 LINE",
"422 660 LINE"
);
},
{
closed = 1;
nodes = (
"347 380 LINE",
"422 435 LINE",
"422 360 LINE",
"347 305 LINE",
"339 305 LINE",
"339 380 LINE"
);
},
{
closed = 1;
nodes = (
"347 530 LINE",
"422 585 LINE",
"422 510 LINE",
"347 455 LINE",
"339 455 LINE",
"339 530 LINE"
);
},
{
closed = 1;
nodes = (
"339 455 LINE",
"339 380 LINE",
"256 380 LINE",
"256 455 LINE"
);
},
{
closed = 1;
nodes = (
"339 605 LINE",
"339 530 LINE",
"256 530 LINE",
"256 605 LINE"
);
},
{
closed = 1;
nodes = (
"256 380 LINE",
"256 305 LINE",
"173 305 LINE",
"173 380 LINE"
);
},
{
closed = 1;
nodes = (
"256 530 LINE",
"256 455 LINE",
"173 455 LINE",
"173 530 LINE"
);
}
);
width = 824;
},
{
associatedMasterId = "C60226DB-E4D3-4E89-B452-CA8BAB7E3EC0";
layerId = "10E2A74E-2B91-45E5-A071-3941D47BC0F3";
name = "Jul 1 20, 17:09";
paths = (
{
closed = 1;
nodes = (
"399 760 LINE",
"100 760 LINE",
"100 685 LINE",
"358 685 LINE",
"467 605 LINE",
"716 605 LINE",
"716 680 LINE",
"508 680 LINE"
);
},
{
closed = 1;
nodes = (
"100 385 LINE",
"100 310 LINE",
"358 310 LINE",
"467 230 LINE",
"716 230 LINE",
"716 305 LINE",
"508 305 LINE",
"399 385 LINE"
);
},
{
closed = 1;
nodes = (
"100 760 LINE",
"100 0 LINE",
"183 0 LINE",
"183 760 LINE"
);
},
{
closed = 1;
nodes = (
"681 680 LINE",
"681 230 LINE",
"764 230 LINE",
"764 680 LINE"
);
},
{
closed = 1;
nodes = (
"100 760 LINE",
"100 0 LINE",
"183 0 LINE",
"183 760 LINE"
);
},
{
closed = 1;
nodes = (
"349 535 LINE",
"358 535 LINE",
"432 481 LINE",
"432 556 LINE",
"358 610 LINE",
"349 610 LINE"
);
},
{
closed = 1;
nodes = (
"183 535 LINE",
"266 535 LINE",
"266 610 LINE",
"183 610 LINE"
);
},
{
closed = 1;
nodes = (
"266 460 LINE",
"349 460 LINE",
"349 535 LINE",
"266 535 LINE"
);
},
{
closed = 1;
nodes = (
"183 385 LINE",
"266 385 LINE",
"266 460 LINE",
"183 460 LINE"
);
},
{
closed = 1;
nodes = (
"598 530 LINE",
"681 530 LINE",
"681 605 LINE",
"598 605 LINE"
);
},
{
closed = 1;
nodes = (
"515 455 LINE",
"598 455 LINE",
"598 530 LINE",
"515 530 LINE"
);
},
{
closed = 1;
nodes = (
"598 380 LINE",
"681 380 LINE",
"681 455 LINE",
"598 455 LINE"
);
},
{
closed = 1;
nodes = (
"515 305 LINE",
"598 305 LINE",
"598 380 LINE",
"515 380 LINE"
);
},
{
closed = 1;
nodes = (
"266 610 LINE",
"349 610 LINE",
"349 685 LINE",
"266 685 LINE"
);
},
{
closed = 1;
nodes = (
"432 556 LINE",
"467 530 LINE",
"515 530 LINE",
"515 605 LINE",
"467 605 LINE",
"432 631 LINE"
);
},
{
closed = 1;
nodes = (
"349 385 LINE",
"358 385 LINE",
"419 340 LINE",
"432 340 LINE",
"432 406 LINE",
"358 460 LINE",
"349 460 LINE"
);
},
{
closed = 1;
nodes = (
"432 406 LINE",
"467 380 LINE",
"515 380 LINE",
"515 455 LINE",
"467 455 LINE",
"432 481 LINE"
);
}
);
width = 796;
},
{
associatedMasterId = "C60226DB-E4D3-4E89-B452-CA8BAB7E3EC0";
layerId = "09FD67D3-5EA1-4F4F-B1AC-19197B94D557";
name = "Jul 1 20, 17:56";
paths = (
{
closed = 1;
nodes = (
"439 760 LINE",
"100 760 LINE",
"100 685 LINE",
"398 685 LINE",
"507 605 LINE",
"716 605 LINE",
"716 680 LINE",
"548 680 LINE"
);
},
{
closed = 1;
nodes = (
"100 385 LINE",
"100 310 LINE",
"328 310 LINE",
"437 230 LINE",
"716 230 LINE",
"716 305 LINE",
"478 305 LINE",
"369 385 LINE"
);
},
{
closed = 1;
nodes = (
"100 760 LINE",
"100 0 LINE",
"183 0 LINE",
"183 760 LINE"
);
},
{
closed = 1;
nodes = (
"681 680 LINE",
"681 230 LINE",
"764 230 LINE",
"764 680 LINE"
);
},
{
closed = 1;
nodes = (
"100 760 LINE",
"100 0 LINE",
"183 0 LINE",
"183 760 LINE"
);
}
);
width = 796;
},
{
associatedMasterId = "C60226DB-E4D3-4E89-B452-CA8BAB7E3EC0";
background = {
paths = (
{
closed = 1;
nodes = (
"100 585 LINE",
"100 510 LINE",
"347 510 LINE",
"456 610 LINE",
"764 610 LINE",
"764 685 LINE",
"415 685 LINE",
"306 585 LINE"
);
},
{
closed = 1;
nodes = (
"141 510 LINE",
"141 435 LINE",
"388 435 LINE",
"497 535 LINE",
"805 535 LINE",
"805 610 LINE",
"456 610 LINE",
"347 510 LINE"
);
},
{
closed = 1;
nodes = (
"182 435 LINE",
"182 360 LINE",
"429 360 LINE",
"538 460 LINE",
"846 460 LINE",
"846 535 LINE",
"497 535 LINE",
"388 435 LINE"
);
},
{
closed = 1;
nodes = (
"223 360 LINE",
"223 285 LINE",
"470 285 LINE",
"579 385 LINE",
"887 385 LINE",
"887 460 LINE",
"538 460 LINE",
"429 360 LINE"
);
},
{
closed = 1;
nodes = (
"59 660 LINE",
"59 585 LINE",
"306 585 LINE",
"415 685 LINE",
"723 685 LINE",
"723 760 LINE",
"374 760 LINE",
"265 660 LINE"
);
},
{
closed = 1;
nodes = (
"183 760 LINE",
"183 0 LINE",
"266 0 LINE",
"266 760 LINE"
);
},
{
closed = 1;
nodes = (
"266 760 LINE",
"266 0 LINE",
"349 0 LINE",
"349 760 LINE"
);
},
{
closed = 1;
nodes = (
"349 760 LINE",
"349 0 LINE",
"432 0 LINE",
"432 760 LINE"
);
},
{
closed = 1;
nodes = (
"432 760 LINE",
"432 0 LINE",
"515 0 LINE",
"515 760 LINE"
);
},
{
closed = 1;
nodes = (
"515 760 LINE",
"515 0 LINE",
"598 0 LINE",
"598 760 LINE"
);
},
{
closed = 1;
nodes = (
"598 760 LINE",
"598 0 LINE",
"681 0 LINE",
"681 760 LINE"
);
}
);
};
layerId = "10E9DD73-F15D-4529-B0F6-8C1958E72291";
name = "Jul 1 20, 17:59";
paths = (
{
closed = 1;
nodes = (
"100 660 LINE",
"100 585 LINE",
"306 585 LINE",
"415 685 LINE",
"764 685 LINE",
"764 760 LINE",
"374 760 LINE",
"265 660 LINE"
);
},
{
closed = 1;
nodes = (
"430 360 LINE",
"100 360 LINE",
"100 285 LINE",
"471 285 LINE",
"580 385 LINE",
"764 385 LINE",
"764 460 LINE",
"539 460 LINE"
);
},
{
closed = 1;
nodes = (
"100 760 LINE",
"100 0 LINE",
"183 0 LINE",
"183 760 LINE"
);
},
{
closed = 1;
nodes = (
"681 760 LINE",
"681 385 LINE",
"764 385 LINE",
"764 760 LINE"
);
},
{
closed = 1;
nodes = (
"100 760 LINE",
"100 0 LINE",
"183 0 LINE",
"183 760 LINE"
);
},
{
closed = 1;
nodes = (
"183 510 LINE",
"266 510 LINE",
"266 585 LINE",
"183 585 LINE"
);
},
{
closed = 1;
nodes = (
"183 360 LINE",
"266 360 LINE",
"266 435 LINE",
"183 435 LINE"
);
},
{
closed = 1;
nodes = (
"266 435 LINE",
"349 435 LINE",
"349 512 LINE",
"347 510 LINE",
"266 510 LINE"
);
},
{
closed = 1;
nodes = (
"349 360 LINE",
"432 360 LINE",
"432 475 LINE",
"388 435 LINE",
"349 435 LINE"
);
},
{
closed = 1;
nodes = (
"349 512 LINE",
"432 588 LINE",
"432 686 LINE",
"349 690 LINE"
);
},
{
closed = 1;
nodes = (
"515 438 LINE",
"539 460 LINE",
"598 460 LINE",
"598 535 LINE",
"515 535 LINE"
);
},
{
closed = 1;
nodes = (
"598 535 LINE",
"681 535 LINE",
"681 610 LINE",
"598 610 LINE"
);
},
{
closed = 1;
nodes = (
"515 610 LINE",
"598 610 LINE",
"598 685 LINE",
"515 685 LINE"
);
},
{
closed = 1;
nodes = (
"432 588 LINE",
"432 475 LINE",
"497 535 LINE",
"515 535 LINE",
"515 610 LINE",
"456 610 LINE"
);
}
);
width = 796;
}
);
},
{
color = 3;
glyphname = dieresiscomb;
lastChange = "2020-07-16 13:13:55 +0000";
layers = (
{
anchors = (
{
name = _top;
position = "{260, 760}";
}
);
layerId = "C60226DB-E4D3-4E89-B452-CA8BAB7E3EC0";
paths = (
{
closed = 1;
nodes = (
"212 922 LINE",
"107 922 LINE",
"107 817 LINE",
"212 817 LINE"
);
},
{
closed = 1;
nodes = (
"413 922 LINE",
"308 922 LINE",
"308 817 LINE",
"413 817 LINE"
);
}
);
width = 520;
}
);
unicode = 0308;
},
{
color = 3;
glyphname = dotaccentcomb;
lastChange = "2020-07-16 13:13:55 +0000";
layers = (
{
anchors = (
{
name = _top;
position = "{155, 760}";
}
);
layerId = "C60226DB-E4D3-4E89-B452-CA8BAB7E3EC0";
paths = (
{
closed = 1;
nodes = (
"207 922 LINE",
"102 922 LINE",
"102 817 LINE",
"207 817 LINE"
);
}
);
width = 309;
}
);
unicode = 0307;
},
{
color = 3;
glyphname = gravecomb;
lastChange = "2020-07-16 13:13:55 +0000";
layers = (
{
anchors = (
{
name = _top;
position = "{223, 760}";
}
);
layerId = "C60226DB-E4D3-4E89-B452-CA8BAB7E3EC0";
paths = (
{
closed = 1;
nodes = (
"303 868 LINE",
"150 980 LINE",
"100 914 LINE",
"253 802 LINE"
);
}
);
width = 403;
}
);
unicode = 0300;
},
{
color = 3;
glyphname = acutecomb;
lastChange = "2020-07-16 13:13:55 +0000";
layers = (
{
anchors = (
{
name = _top;
position = "{180, 760}";
}
);
layerId = "C60226DB-E4D3-4E89-B452-CA8BAB7E3EC0";
paths = (
{
closed = 1;
nodes = (
"303 914 LINE",
"253 980 LINE",
"100 868 LINE",
"150 802 LINE"
);
}
);
width = 403;
},
{
anchors = (
{
name = _top;
position = "{212, 760}";
}
);
associatedMasterId = "C60226DB-E4D3-4E89-B452-CA8BAB7E3EC0";
layerId = "43C5B8F6-031C-4BB6-8BD3-F8244BDF3963";
name = "May 18 20, 17:11";
paths = (
{
closed = 1;
nodes = (
"358 930 LINE",
"216 930 LINE",
"98 810 LINE",
"212 810 LINE"
);
}
);
width = 456;
},
{
anchors = (
{
name = _top;
position = "{215, 760}";
}
);
associatedMasterId = "C60226DB-E4D3-4E89-B452-CA8BAB7E3EC0";
background = {
paths = (
{
closed = 1;
nodes = (
"817 1232 LINE",
"769 1300 LINE",
"154 853 LINE",
"202 786 LINE"
);
}
);
};
layerId = "E6FE2FBD-ED6B-419D-B849-014E896CE212";
name = "Jun 10 20, 11:24";
paths = (
{
closed = 1;
nodes = (
"389 917 LINE",
"244 917 LINE",
"90 810 LINE",
"235 810 LINE"
);
}
);
width = 479;
}
);
unicode = 0301;
},
{
color = 3;
glyphname = circumflexcomb;
lastChange = "2020-07-16 13:13:55 +0000";
layers = (
{
anchors = (
{
name = _top;
position = "{253, 760}";
}
);
background = {
paths = (
{
closed = 1;
nodes = (
"369 917 LINE",
"224 917 LINE",
"70 810 LINE",
"215 810 LINE"
);
}
);
};
guideLines = (
{
angle = 90;
position = "{253, 839}";
}
);
layerId = "C60226DB-E4D3-4E89-B452-CA8BAB7E3EC0";
paths = (
{
closed = 1;
nodes = (
"303 914 LINE",
"253 980 LINE",
"100 868 LINE",
"150 802 LINE"
);
},
{
closed = 1;
nodes = (
"406 868 LINE",
"253 980 LINE",
"203 914 LINE",
"356 802 LINE"
);
}
);
width = 506;
},
{
anchors = (
{
name = _top;
position = "{266, 760}";
}
);
associatedMasterId = "C60226DB-E4D3-4E89-B452-CA8BAB7E3EC0";
layerId = "758A9F15-3AED-4E60-A8F7-37AC6D3F8752";
name = "May 18 20, 22:46";
paths = (
{
closed = 1;
nodes = (
"330 930 LINE",
"193 930 LINE",
"75 810 LINE",
"184 810 LINE"
);
},
{
closed = 1;
nodes = (
"459 810 LINE",
"341 930 LINE",
"201 930 LINE",
"347 810 LINE"
);
}
);
width = 534;
},
{
anchors = (
{
name = _top;
position = "{266, 760}";
}
);
associatedMasterId = "C60226DB-E4D3-4E89-B452-CA8BAB7E3EC0";
background = {
paths = (
{
closed = 1;
nodes = (
"369 917 LINE",
"224 917 LINE",
"70 810 LINE",
"215 810 LINE"
);
}
);
};
layerId = "B1A80D7D-CC57-44E4-83C2-55F283E8E5C8";
name = "Jun 10 20, 11:39";
paths = (
{
closed = 1;
nodes = (
"319 917 LINE",
"224 917 LINE",
"70 810 LINE",
"215 810 LINE",
"271 849 LINE",
"328 810 LINE",
"473 810 LINE"
);
}
);
width = 543;
}
);
unicode = 0302;
},
{
color = 3;
glyphname = ringcomb;
lastChange = "2020-07-16 13:13:55 +0000";
layers = (
{
anchors = (
{
name = _top;
position = "{228, 760}";
}
);
layerId = "C60226DB-E4D3-4E89-B452-CA8BAB7E3EC0";
paths = (
{
closed = 1;
nodes = (
"93 930 LINE",
"93 685 LINE",
"363 685 LINE",
"363 930 LINE"
);
},
{
closed = 1;
nodes = (
"176 760 LINE",
"176 855 LINE",
"280 855 LINE",
"280 760 LINE"
);
}
);
width = 456;
}
);
unicode = 030A;
},
{
color = 3;
glyphname = u1F968;
lastChange = "2020-07-16 13:13:55 +0000";
layers = (
{
layerId = "C60226DB-E4D3-4E89-B452-CA8BAB7E3EC0";
paths = (
{
closed = 1;
nodes = (
"709 551 LINE",
"658 606 LINE",
"90 56 LINE",
"142 0 LINE"
);
},
{
closed = 1;
nodes = (
"901 248 LINE",
"847 300 LINE",
"589 54 LINE",
"642 0 LINE"
);
},
{
closed = 1;
nodes = (
"93 606 LINE",
"93 248 LINE",
"176 248 LINE",
"176 606 LINE"
);
},
{
closed = 1;
nodes = (
"275 555 LINE",
"852 0 LINE",
"907 62 LINE",
"343 606 LINE"
);
},
{
closed = 1;
nodes = (
"642 0 LINE",
"642 75 LINE",
"353 75 LINE",
"353 0 LINE"
);
},
{
closed = 1;
nodes = (
"93 248 LINE",
"353 0 LINE",
"427 42 LINE",
"144 316 LINE"
);
},
{
closed = 1;
nodes = (
"901 606 LINE",
"658 606 LINE",
"658 531 LINE",
"901 531 LINE"
);
},
{
closed = 1;
nodes = (
"818 248 LINE",
"901 248 LINE",
"901 606 LINE",
"818 606 LINE"
);
},
{
closed = 1;
nodes = (
"343 531 LINE",
"343 606 LINE",
"93 606 LINE",
"93 531 LINE"
);
}
